<?xml version="1.0" encoding="UTF-8"?>
<svg id="_レイヤー_1" data-name=" レイヤー 1" xmlns="http://www.w3.org/2000/svg" xmlns:xlink="http://www.w3.org/1999/xlink" version="1.1" viewBox="0 0 1349 787">
  <defs>
    <style>
      .cls-1 {
        clip-path: url(#clippath);
      }

      .cls-2 {
        stroke-width: 0px;
      }

      .cls-2, .cls-3 {
        fill: none;
      }

      .cls-3 {
        stroke: #000;
        stroke-linecap: round;
        stroke-linejoin: round;
        stroke-width: 4px;
      }
    </style>
    <clipPath id="clippath">
      <rect class="cls-2" x="1004" y="29.8" width="242.5" height="253.9"/>
    </clipPath>
  </defs>
  <g class="cls-1">
    <g>
      <path class="cls-3" d="M1006,253.9c15.9,16.8,44.7,35,70.6,24.9,27.1-10.5,41.7-81.7,25.7-139.3-16-57.5-41.7-91.3-60-81.4-18.3,10,28.9,141.3,91.3,161.2,62.5,19.9,52.6-185.7,17-187.6-35.6-1.9.2,134.2,55.7,139,42.6,3.7,31.8-79.7,31.8-79.7"/>
      <path class="cls-3" d="M1231.6,98.9s3.8-4.1,5.7-10.2"/>
      <path class="cls-3" d="M1244.4,96s-5-3.9-6.2-7.8"/>
    </g>
  </g>
</svg>