<?xml version="1.0" encoding="UTF-8"?>
<svg id="_レイヤー_1" data-name=" レイヤー 1" xmlns="http://www.w3.org/2000/svg" xmlns:xlink="http://www.w3.org/1999/xlink" version="1.1" viewBox="0 0 1349 787">
  <defs>
    <style>
      .cls-1 {
        clip-path: url(#clippath);
      }

      .cls-2 {
        stroke-width: 0px;
      }

      .cls-2, .cls-3 {
        fill: none;
      }

      .cls-3 {
        stroke: #000;
        stroke-linecap: round;
        stroke-linejoin: round;
        stroke-width: 4px;
      }
    </style>
    <clipPath id="clippath">
      <rect class="cls-2" x="7.2" y="340.9" width="152.6" height="177"/>
    </clipPath>
  </defs>
  <g class="cls-1">
    <g>
      <path class="cls-3" d="M77.6,356.7c15.5-11.3,35.6-16.1,54.5-12.9,12.1,2,25.6,9.8,25.7,22.1.1,11.2-10.7,19.1-20.6,24.3-32.4,17.1-68.2,27.6-99.3,47-13.5,8.4-26.9,20.1-28.6,35.9-1.9,18.7,14.5,35.3,32.6,40.3,18.1,5,37.3,1.2,55.8-2.5"/>
      <path class="cls-3" d="M87.4,359.8s-5.4-1-11.5.7"/>
      <path class="cls-3" d="M78.2,350.5s-.6,6.2-3.2,9.3"/>
    </g>
  </g>
</svg>