<?xml version="1.0" encoding="UTF-8"?>
<svg id="_レイヤー_1" data-name="レイヤー 1" xmlns="http://www.w3.org/2000/svg" xmlns:xlink="http://www.w3.org/1999/xlink" version="1.1" viewBox="0 0 336 591">
  <defs>
    <style>
      .cls-1 {
        clip-path: url(#clippath);
      }

      .cls-2 {
        stroke-width: 0px;
      }

      .cls-2, .cls-3 {
        fill: none;
      }

      .cls-3 {
        stroke: #000;
        stroke-linecap: round;
        stroke-linejoin: round;
        stroke-width: 2px;
      }
    </style>
    <clipPath id="clippath">
      <rect class="cls-2" x="122.2" y="70.8" width="51.8" height="60"/>
    </clipPath>
  </defs>
  <g class="cls-1">
    <g>
      <path class="cls-3" d="M146.1,76.4c5.2-3.8,11.9-5.4,18.3-4.3,4.1.7,8.6,3.3,8.6,7.4,0,3.7-3.6,6.4-6.9,8.1-10.9,5.7-22.9,9.3-33.3,15.8-4.5,2.8-9,6.8-9.6,12-.6,6.3,4.9,11.8,10.9,13.5,6.1,1.7,12.5.4,18.7-.8"/>
      <path class="cls-3" d="M149.4,77.4s-1.8-.3-3.9.2"/>
      <path class="cls-3" d="M146.3,74.3s-.2,2.1-1.1,3.1"/>
    </g>
  </g>
</svg>