<svg width="336" height="591" viewBox="0 0 336 591" fill="none" xmlns="http://www.w3.org/2000/svg">
<path d="M199.032 353.996C198.684 353.996 198.339 353.996 197.991 353.984C187.206 353.74 176.792 349.669 168.679 342.511C166.711 340.776 164.225 339.88 161.719 339.88C159.921 339.88 158.111 340.342 156.476 341.283C150.196 344.896 143.03 346.806 135.754 346.806C112.729 346.806 94 328.046 94 304.984C94 294.546 97.8787 284.546 104.923 276.816C107.592 273.888 108.397 269.712 107.004 266.001C105.762 262.684 105.13 259.196 105.13 255.628C105.13 239.293 118.398 226 134.71 226C141.334 226 147.601 228.157 152.832 232.233C154.723 233.709 157.006 234.455 159.298 234.455C161.176 234.455 163.063 233.952 164.743 232.934C170.715 229.317 177.57 227.407 184.57 227.407C204.939 227.407 221.806 243.352 222.964 263.706C223.138 266.759 224.624 269.582 227.041 271.451C238.604 280.389 245.313 294.412 244.989 308.966C244.718 321.084 239.802 332.422 231.146 340.889C222.506 349.345 211.097 354 199.028 354L199.032 353.996Z" fill="#37967B"/>
</svg>
