<?xml version="1.0" encoding="UTF-8"?>
<svg id="_レイヤー_1" data-name=" レイヤー 1" xmlns="http://www.w3.org/2000/svg" version="1.1" viewBox="0 0 1349 787">
  <defs>
    <style>
      .cls-1 {
        fill: #37967b;
        stroke-width: 0px;
      }
    </style>
  </defs>
  <path class="cls-1" d="M1132.4,595.9c-.8,0-1.6,0-2.4,0-24.8-.6-48.6-9.9-67.3-26.3-4.5-4-10.2-6-16-6s-8.3,1.1-12,3.2c-14.4,8.3-30.9,12.7-47.5,12.7-52.8,0-95.8-43-95.8-95.8s8.9-46.8,25.1-64.5c6.1-6.7,8-16.3,4.8-24.8-2.9-7.6-4.3-15.6-4.3-23.8,0-37.4,30.4-67.9,67.9-67.9s29.6,4.9,41.6,14.3c4.3,3.4,9.6,5.1,14.8,5.1s8.6-1.2,12.5-3.5c13.7-8.3,29.4-12.7,45.5-12.7,46.7,0,85.4,36.5,88.1,83.2.4,7,3.8,13.5,9.4,17.7,26.5,20.5,41.9,52.6,41.2,85.9-.6,27.8-11.9,53.7-31.8,73.1-19.8,19.4-46,30-73.7,30h0Z"/>
</svg>