<?xml version="1.0" encoding="UTF-8"?>
<svg id="_レイヤー_1" data-name=" レイヤー 1" xmlns="http://www.w3.org/2000/svg" version="1.1" viewBox="0 0 336 591">
  <defs>
    <style>
      .cls-1 {
        fill: #37967b;
        stroke-width: 0px;
      }
    </style>
  </defs>
  <path class="cls-1" d="M199.9,354.1c-.3,0-.7,0-1,0-10.8-.2-21.2-4.3-29.3-11.5-2-1.7-4.5-2.6-7-2.6s-3.6.5-5.2,1.4c-6.3,3.6-13.4,5.5-20.7,5.5-23,0-41.8-18.8-41.8-41.8s3.9-20.4,10.9-28.2c2.7-2.9,3.5-7.1,2.1-10.8-1.2-3.3-1.9-6.8-1.9-10.4,0-16.3,13.3-29.6,29.6-29.6s12.9,2.2,18.1,6.2c1.9,1.5,4.2,2.2,6.5,2.2s3.8-.5,5.4-1.5c6-3.6,12.8-5.5,19.8-5.5,20.4,0,37.2,15.9,38.4,36.3.2,3.1,1.7,5.9,4.1,7.7,11.6,8.9,18.3,23,17.9,37.5-.3,12.1-5.2,23.5-13.8,31.9-8.6,8.5-20,13.1-32.1,13.1h0Z"/>
</svg>