<svg width="1348" height="786" viewBox="0 0 1348 786" fill="none" xmlns="http://www.w3.org/2000/svg">
<path d="M1133.01 595.234C1132.21 595.234 1131.42 595.234 1130.63 595.207C1105.88 594.649 1081.98 585.322 1063.36 568.924C1058.85 564.948 1053.14 562.894 1047.39 562.894C1043.27 562.894 1039.11 563.954 1035.36 566.109C1020.95 574.387 1004.51 578.762 987.812 578.762C934.978 578.762 892 535.785 892 482.95C892 459.036 900.9 436.126 917.066 418.419C923.188 411.711 925.037 402.142 921.841 393.641C918.989 386.041 917.539 378.052 917.539 369.876C917.539 332.454 947.984 302 985.415 302C1000.61 302 1015 306.943 1027 316.279C1031.34 319.661 1036.58 321.371 1041.84 321.371C1046.15 321.371 1050.48 320.219 1054.33 317.887C1068.04 309.6 1083.76 305.224 1099.83 305.224C1146.57 305.224 1185.27 341.754 1187.93 388.383C1188.33 395.378 1191.74 401.844 1197.28 406.127C1223.82 426.603 1239.21 458.73 1238.47 492.073C1237.85 519.833 1226.57 545.809 1206.7 565.208C1186.88 584.578 1160.7 595.244 1133 595.244L1133.01 595.234Z" fill="#37967B"/>
</svg>
