<?xml version="1.0" encoding="UTF-8"?>
<svg id="_レイヤー_1" data-name=" レイヤー 1" xmlns="http://www.w3.org/2000/svg" xmlns:xlink="http://www.w3.org/1999/xlink" version="1.1" viewBox="0 0 1349 787">
  <defs>
    <style>
      .cls-1 {
        clip-path: url(#clippath);
      }

      .cls-2, .cls-3 {
        fill: none;
      }

      .cls-2, .cls-4 {
        stroke-width: 0px;
      }

      .cls-3 {
        stroke: #000;
        stroke-linecap: round;
        stroke-linejoin: round;
        stroke-width: 2.8px;
      }

      .cls-4 {
        fill: #fff;
      }
    </style>
    <clipPath id="clippath">
      <rect class="cls-2" x="32.5" y="559.6" width="180" height="180"/>
    </clipPath>
  </defs>
  <g class="cls-1">
    <g>
      <path class="cls-4" d="M147.4,562.8c34.2,1.1,59.9,31.3,59,55.6-.8,20.4-23.9,55.7-54.7,57.5-1.1,0,11-7.2,14.1-12.4s.2-6.9-2.8-8.3c3.2-3.1,7.3-9.8,7.3-9.8,0,0,2.1-3.6-3.8-7,8.1-8.5,2.9-12.6.3-13.8,6.3-7.5,1-11.2-2.2-10.5-5.5,1.2-19,10-34.5,15.8-18.6,6.9-32.7,6.6-36.6,7.1-2.5-8.5-2.5-17.5-1.2-26.6,3.4-24.3,28.6-48.4,55.2-47.5h-.1Z"/>
      <path class="cls-3" d="M43,675.8l14.2-6.8c2.3-1.1,4.4-2.7,6-4.7,4.3-5,4-32.2,28.2-45"/>
      <path class="cls-3" d="M68.4,706.7c-.2,3.8-.7,9.3-2.4,12.7-.9,1.9-2.3,3.7-4.1,4.6-2.3,1.2-5.2.8-7.5-.5s-4.1-3.4-5.6-5.6c-6-9-7.9-20.4-7.6-31.3.2-5.3.9-10.6,2.4-15.6.8-2.6,1.9-5.3,3.7-7.3,1.8-2.1,4.3-3.5,7-3.4s4.6,1.5,6.2,4.1c0,0,.5,1.1.9,1.9"/>
      <path class="cls-3" d="M166.8,624.5s8.9,4.1-.3,13.8c-16.4,17.4-44.4,20.7-44.4,20.7"/>
      <path class="cls-3" d="M121.7,646s27.9-3.3,44.4-20.7c1.6-1.6,2.6-3.1,3.2-4.5,2.2-4.5-3-9.1-7.3-6.4-10.3,6.6-37.7,21.8-68.7,22.2"/>
      <path class="cls-3" d="M166.4,638.3s8.8,4.1-.3,13.8c-16.4,17.4-44.4,20.7-44.4,20.7"/>
      <path class="cls-3" d="M163,655.2s8.9,3.7-.3,12.6c-16.4,15.9-38.9,18.4-53.1,21.3-20.2,4.1-60.6,28.9-60.6,28.9"/>
    </g>
  </g>
</svg>