<?xml version="1.0" encoding="UTF-8"?>
<svg id="_レイヤー_1" data-name="レイヤー 1" xmlns="http://www.w3.org/2000/svg" xmlns:xlink="http://www.w3.org/1999/xlink" version="1.1" viewBox="0 0 336 591">
  <defs>
    <style>
      .cls-1 {
        clip-path: url(#clippath);
      }

      .cls-2, .cls-3 {
        fill: none;
      }

      .cls-2, .cls-4, .cls-5 {
        stroke-width: 0px;
      }

      .cls-6 {
        mask: url(#mask);
      }

      .cls-3 {
        stroke: #000;
        stroke-linecap: round;
        stroke-linejoin: round;
        stroke-width: 2px;
      }

      .cls-4 {
        fill: #000;
      }

      .cls-5 {
        fill: #fff;
      }
    </style>
    <clipPath id="clippath">
      <rect class="cls-2" x="271" y="297.1" width="62" height="93"/>
    </clipPath>
    <mask id="mask" x="272.8" y="329.9" width="10.9" height="11.1" maskUnits="userSpaceOnUse">
      <g id="mask0_8497_7260" data-name="mask0 8497 7260">
        <path class="cls-5" d="M275.2,338.5l8.6-5.3-3.3-3.3-5.3,8.6Z"/>
      </g>
    </mask>
  </defs>
  <g class="cls-1">
    <g>
      <path class="cls-3" d="M285.9,324.5l22-22.1,3.3,3.3-17.2,17.3"/>
      <path class="cls-3" d="M287.9,329.1l-4.1,4.2-3.3-3.3,1.8-1.8"/>
      <path class="cls-3" d="M304,306.3l3.3,3.3"/>
      <g class="cls-6">
        <path class="cls-4" d="M279.8,337.2l-3.1-3.1-3.9,3.9,3.1,3.1,3.9-3.9Z"/>
      </g>
      <path class="cls-3" d="M275.2,338.5l8.6-5.3-3.3-3.3-5.3,8.6Z"/>
      <path class="cls-3" d="M324,367.9c2.7.8,4.8,3.1,4.8,5.4,0,5.5-5.4,8.9-13.2,9.7-10,1-14.6-1.9-15.1-6.4-.4-3.2,2.2-6.2,5.5-7.8"/>
      <path class="cls-3" d="M297.4,319.5l2.9,2.2s-.6.5-5.3,1.1c-4.7.6-11.1.4-10.6,4.4.3,2.2,5.3,1.7,5.3,1.7l3-.2c3.2-.2,5.3.1,7.9,2.1l2.5,2.4c2.4,2.2,3.7,5.4,3.6,8.7l-1.1,40.4"/>
      <path class="cls-3" d="M305.3,311.6c2.6,1.5,5.2,3.5,7.6,5.5,4.5,3.8,7.1,7.1,7.8,12.9l4.5,49.9"/>
      <path class="cls-3" d="M284.4,327.2c-4.1,2.4-4.2-.6-4.2-.6,0,0,7.5-14.9,16.8-17.3,1.1-.3,2.3-.2,3.6.1"/>
    </g>
  </g>
</svg>