<?xml version="1.0" encoding="UTF-8"?>
<svg id="_レイヤー_1" data-name="レイヤー 1" xmlns="http://www.w3.org/2000/svg" xmlns:xlink="http://www.w3.org/1999/xlink" version="1.1" viewBox="0 0 336 591">
  <defs>
    <style>
      .cls-1 {
        clip-path: url(#clippath);
      }

      .cls-2, .cls-3 {
        fill: none;
      }

      .cls-2, .cls-4 {
        stroke-width: 0px;
      }

      .cls-3 {
        stroke: #000;
        stroke-linecap: round;
        stroke-linejoin: round;
        stroke-width: 2px;
      }

      .cls-4 {
        fill: #fff;
      }
    </style>
    <clipPath id="clippath">
      <rect class="cls-2" x="12" y="332.1" width="75" height="75"/>
    </clipPath>
  </defs>
  <g class="cls-1">
    <g>
      <path class="cls-4" d="M59.9,333.4c14.3.5,25,13,24.6,23.2-.3,8.5-9.9,23.2-22.8,24-.4,0,4.6-3,5.9-5.2,1.3-2.2,0-2.9-1.2-3.4,1.3-1.3,3.1-4.1,3.1-4.1,0,0,.9-1.5-1.6-2.9,3.4-3.5,1.2-5.2.1-5.7,2.6-3.1.4-4.7-.9-4.4-2.3.5-7.9,4.2-14.4,6.6-7.8,2.9-13.6,2.8-15.3,3-1-3.5-1-7.3-.5-11.1,1.4-10.1,11.9-20.2,23-19.8Z"/>
      <path class="cls-3" d="M16.4,380.5l5.9-2.8c1-.5,1.8-1.1,2.5-1.9,1.8-2.1,1.7-13.4,11.8-18.7"/>
      <path class="cls-3" d="M26.9,393.4c0,1.6-.3,3.9-1,5.3-.4.8-.9,1.5-1.7,1.9-1,.5-2.2.3-3.1-.2-.9-.5-1.7-1.4-2.3-2.3-2.5-3.7-3.3-8.5-3.2-13,0-2.2.4-4.4,1-6.5.3-1.1.8-2.2,1.5-3.1.7-.9,1.8-1.5,2.9-1.4,1.1,0,1.9.6,2.6,1.7,0,0,.2.5.4.8"/>
      <path class="cls-3" d="M67.9,359.2s3.7,1.7-.1,5.7c-6.8,7.3-18.5,8.6-18.5,8.6"/>
      <path class="cls-3" d="M49.2,368.1s11.6-1.4,18.5-8.6c.6-.7,1.1-1.3,1.3-1.9.9-1.9-1.3-3.8-3-2.7-4.3,2.7-15.7,9.1-28.6,9.2"/>
      <path class="cls-3" d="M67.8,364.9s3.7,1.7-.1,5.7c-6.8,7.3-18.5,8.6-18.5,8.6"/>
      <path class="cls-3" d="M66.4,371.9s3.7,1.5-.1,5.2c-6.8,6.6-16.2,7.7-22.1,8.9-8.4,1.7-25.3,12-25.3,12"/>
    </g>
  </g>
</svg>