<?xml version="1.0" encoding="UTF-8"?>
<svg id="_レイヤー_1" data-name=" レイヤー 1" xmlns="http://www.w3.org/2000/svg" version="1.1" viewBox="0 0 1349 787">
  <defs>
    <style>
      .cls-1 {
        fill: #000;
        stroke-width: 0px;
      }
    </style>
  </defs>
  <path class="cls-1" d="M1319.9,399c0-5.8-5-11.7-11.7-14.1l-8.2-90.6c-1.6-14.6-8-22.6-19.3-32.3-6-5.1-11.6-9.3-16.9-12.4l12.9-12.9c.6-.6.6-1.5,0-2.1l-7.9-7.9c-.3-.3-.7-.4-1.1-.4h0c-.4,0-.8.2-1.1.4l-9.4,9.5s0,0,0,0c0,0,0,0,0,0l-7.2,7.2c-3.4-.8-6.4-.9-9-.2-9.6,2.5-19.5,10.4-29.5,23.6-7.4,9.7-11.9,18.6-12.1,19-.1.2-.2.5-.2.7,0,1.1.6,3.3,2.6,4.4.2,0,.3.2.5.2l-2.1,2.1s0,0,0,0c0,0-.2.2-.2.3l-12.8,20.7c-.4.6-.3,1.4.2,1.8.3.3.7.4,1.1.4s.5,0,.8-.2l20.7-12.8s0,0,0,0c0,0,.1-.1.2-.2,0,0,0,0,0,0,0,0,0,0,0,0l9.7-9.7c1.8,0,3.3,0,3.7-.1l7.3-.4c7.4-.4,12.2.2,18,4.8l6,5.6c5.4,5.1,8.4,12.4,8.2,19.8l-1.7,64.1c-9.1,4.7-14.4,12.5-13.4,20.1,1,8.1,6.5,12.5,13.1,14.8.2.2.5.3.8.3,0,0,0,0,0,0,5,1.6,10.6,2.1,15.6,2.1s6.4-.2,8.8-.5c10.1-1.1,18.2-3.8,23.9-7.8,0,0,0,0,0,0,6.2-4.4,9.5-10.3,9.5-17.3ZM1316.9,399c0,5.1-2.1,9.6-6.2,13.2l-2.2-23.9c4.9,2.2,8.3,6.5,8.4,10.7ZM1267.8,229.7l5.8,5.8-7.3,7.4-5.8-5.8,7.3-7.4ZM1258.3,239.2l5.8,5.8-30.8,30.9c-1.1.1-2.1.2-3.2.3-3.4.3-6.9.7-10.1,1.3l38.3-38.4ZM1242.5,271l3.7,2.9c-1.5.4-4,.9-8.1,1.5l4.4-4.4ZM1241.8,246c1.7-.4,3.6-.5,5.7-.2l-33.9,34c-1,.6-1.9,1.3-2.6,2.2-1.1,1.4-1.6,3-1.6,4.8-3.7,2-5.3,1.7-6,1.4-.7-.4-.9-1.1-1-1.6,2.1-4,19.3-35.4,39.4-40.6ZM1201.7,296.6l5.3,5.2-13.7,8.5,8.4-13.7ZM1209.4,300l-5.8-5.8,3-3c1.1-.3,2.3-.7,3.6-1.4,1.2,1.9,3.6,2.8,6.1,3.2l-6.9,6.9ZM1251.2,406.9c-.9-6.6,4.3-12.6,10.3-16.2l-.8,28c-5.6-2.4-8.9-6.4-9.6-11.8ZM1286.2,421c-9.1,1-16.7.5-22.5-1.3l2.6-96.5c.2-8.3-3.1-16.4-9.2-22.1l-6-5.7s0,0,0,0c-6.5-5.2-12.1-6-20.1-5.5l-7.4.4c-3.4.3-10.8,0-11.2-2.8-.2-1.5.1-2.7.9-3.6,2.6-3.2,9.9-3.9,17.1-4.6,2.1-.2,4.3-.4,6.4-.7,10.6-1.5,13-2.7,13.5-3.1.3-.3.5-.7.5-1.2s-.2-.9-.6-1.2l-5.6-4.3,17-17.1c5.3,3.1,11.1,7.3,17.1,12.5,10.7,9.2,16.8,16.7,18.3,30.3l10.8,119.8c-5.2,3.4-12.6,5.8-21.7,6.7Z"/>
</svg>