<?xml version="1.0" encoding="UTF-8"?>
<svg id="_レイヤー_1" data-name=" レイヤー 1" xmlns="http://www.w3.org/2000/svg" xmlns:xlink="http://www.w3.org/1999/xlink" version="1.1" viewBox="0 0 1349 787">
  <defs>
    <style>
      .cls-1 {
        clip-path: url(#clippath);
      }

      .cls-2, .cls-3 {
        stroke-width: 0px;
      }

      .cls-2, .cls-4 {
        fill: none;
      }

      .cls-3 {
        fill: #000;
      }

      .cls-4 {
        stroke: #000;
        stroke-linecap: round;
        stroke-linejoin: round;
        stroke-width: 3px;
      }
    </style>
    <clipPath id="clippath">
      <rect class="cls-2" x="1178.7" y="214.8" width="150" height="225"/>
    </clipPath>
  </defs>
  <g class="cls-1">
    <g>
      <path class="cls-4" d="M1214.7,281l53.2-53.4,7.9,7.9-41.7,41.9"/>
      <path class="cls-4" d="M1219.5,292.1l-10,10-7.9-7.9,4.3-4.3"/>
      <path class="cls-4" d="M1258.4,237.1l7.9,7.9"/>
      <path class="cls-3" d="M1200,311.7l-7.5-7.4-9.4,9.4,7.5,7.4,9.4-9.4Z"/>
      <path class="cls-4" d="M1188.8,314.9l20.7-12.8-7.9-7.9-12.7,20.7h0Z"/>
      <path class="cls-4" d="M1307,386c6.6,2,11.5,7.6,11.6,13,0,13.4-13,21.6-32,23.6-24.2,2.5-35.3-4.7-36.6-15.4-1-7.8,5.3-15.1,13.3-18.9"/>
      <path class="cls-4" d="M1242.5,269l6.9,5.4s-1.5,1.2-12.8,2.8c-11.3,1.6-26.8,1-25.6,10.6.6,5.3,12.8,4.1,12.8,4.1l7.3-.4c7.8-.5,12.9.2,19.1,5.2l6,5.7c5.8,5.4,8.9,13.1,8.7,21l-2.7,97.7"/>
      <path class="cls-4" d="M1261.6,249.8c6.4,3.6,12.7,8.4,18.3,13.3,10.9,9.3,17.3,17.1,18.8,31.3l10.9,120.7"/>
      <path class="cls-4" d="M1211.1,287.7c-9.9,5.8-10.1-1.3-10.1-1.3,0,0,18.2-36,40.6-41.8,2.6-.7,5.6-.5,8.7.3"/>
    </g>
  </g>
</svg>