<?xml version="1.0" encoding="UTF-8"?>
<svg id="_レイヤー_1" data-name=" レイヤー 1" xmlns="http://www.w3.org/2000/svg" version="1.1" viewBox="0 0 1349 787">
  <defs>
    <style>
      .cls-1 {
        fill: #000;
        stroke-width: 0px;
      }
    </style>
  </defs>
  <path class="cls-1" d="M732.3,672.1c.4.5.5.6.5.8,0,.5-.3.7-1,.7h-.7c-2.5,0-6.8.6-9,1.2-2.8.8-6.1,2.8-8.2,5-1.7,1.8-2.7,4.4-2.7,7.3,0,5.2,3.8,7.6,12.1,7.6s2.7,0,5.3,0c-1,2.1-1.4,3.4-1.5,5.7h-2.1c-6,.2-9.1-.4-12.3-1.7-4.6-1.9-7.3-6-7.3-11.2s2.2-9.1,5.2-11.3c-9.1,2.1-14.1,3.5-19.3,5.3l-1.9-5.7c4.8-1.2,5.7-1.5,8.1-3.1,6.2-4.1,11.9-9,16.6-14.5-2.8.6-9.8,2.3-13.9,3.3l-1.8-6.2c4.8-.3,7.5-.6,13.4-1.4,4.9-.6,5.3-.7,6.8-1.5l3.7,3.2c.6.6.7.6.7,1s0,.6-1.4,1c-4.3,5.3-7.6,8.7-12.5,12.6-1.5,1.2-1.8,1.5-2.8,2.3v.2c12.6-2.4,17.2-3.4,22.6-4.9l3.2,4.3h.2Z"/>
  <path class="cls-1" d="M778,664.6c.5.2.7.5.7.7,0,.3-.3.7-.8,1-2,8.5-2.9,11.3-5.2,16.4-3.3,7.5-7,11-11.8,11s-5.4-1.4-7-4c-1.5-2.5-2.2-5.5-2.2-8.7,0-7.1,4-14.1,10.7-18.4,4.1-2.7,8.8-4.1,14.1-4.1s11.3,1.6,15.6,4.8c4.8,3.5,7.1,8.4,7.1,14.7s-3.5,13.2-10.7,17.1c-2.3,1.2-6.6,2.9-10.5,4-1.1-2.9-1.5-3.7-3-5.7,6-1.4,8.2-2.2,11.3-4.1,4.5-2.7,7-6.7,7-11.5s-3.5-10.7-9.5-13c-2.2-.8-4.6-1.4-6.5-1.4h-1.1l1.9,1.1h0ZM763.2,668.4c-3.6,3.6-5.7,8.3-5.7,12.8s1.3,6.5,3.4,6.5,3.4-1.8,5.4-6c3.3-6.9,5.3-13.1,5.7-18-4,.8-6.3,2-8.8,4.6h0Z"/>
  <path class="cls-1" d="M825.7,689.6c.3,0,.6.3.6.6s-.2.5-1,.7c-2.1,5.8-2.9,7.1-6.4,10.6-1.6-1.8-2.4-2.4-4.1-3.6,3.3-2.9,5.2-6,6-9.9l4.9,1.5h0ZM831,663.1c-.4-1.4-.9-2.7-1.5-4l3.5-1h-4.7c-2.9,0-6.7,0-9.1.2v-4.9c2.4,0,6.1.2,9.1.2h10v-.7c0-1.6,0-2.8,0-3.6l5.7.3c.7,0,1.1.3,1.1.6s-.3.6-1.1,1.1v2.2h10c2.6,0,6.6,0,9.1-.2v4.9c-2.4,0-6.5-.2-9.1-.2h-2.7l1.9.6c.3,0,.5.3.5.6s-.2.5-1,.7c-.7,1.4-1.2,2.4-1.5,3.1h4.8c3.6,0,8.4,0,11.3-.2v4.9c-3-.2-7.8-.2-11.3-.2h-29.8c-3.1,0-8.2,0-11.3.2v-4.9c2.9,0,8,.2,11.3.2h4.9ZM829,685.7v1.8h-5.7c0-1.4,0-3.2,0-6.1v-6.5c0-1.8,0-4,0-5,1.2,0,2.4,0,4.1,0h27.7c1.7,0,2.8,0,4.1,0,0,1,0,3.2,0,5v6.1c0,2.7,0,4.6,0,5.9h-6v-1.3h-24.2,0ZM834.4,688.6c.5,0,.9.3.9.7s-.3.7-1.2,1.1c0,.7,0,1.5,0,2.4v1.8c0,1.4.3,1.9,1,2.1.2,0,2,.3,5.5.3,7.1.2,8.6-.3,9.1-1.5.5-.9.6-2.5.6-4.6,1.9.6,3.1.9,5.5,1.4,0,.8,0,1.4-.2,1.8-.3,4.2-1.2,6-3.5,6.9-1.6.6-4.5.8-10.2.8-12,0-13.2-.4-13.2-4.4v-4c0-3.1,0-4.4-.3-5.2l6,.5h.1ZM853.2,674h-24.2v2.2h24.2v-2.2ZM853.2,679.7h-24.2v2.1h24.2v-2.1ZM834.9,658.1c.7,1.3,1.3,2.6,1.9,4l-3.3,1h12.4c.7-1.6,1.4-3.3,2-5h-13ZM840.3,686.1c3.3,2.4,4.9,3.9,7,6.4l-3.9,3.3c-1.8-2.7-4-5-6.3-6.9l3.2-2.8ZM859.5,688.1c3.3,3,4.7,4.8,7.8,9.9l-4.6,3.2c-1.8-3.7-3.8-6.8-6.9-10.3l3.7-2.7h0Z"/>
  <path class="cls-1" d="M890.5,686c.3,0,.5.3.5.6s-.2.5-1,.7c-1.5,5-2.9,7.8-6.2,11.6-1-1.4-2.1-2.4-4-3.9,3.3-3.7,4.4-5.7,5.9-10.9l4.7,1.9h0ZM894,680.5h-5.7c0-1.3.2-3.2.2-6v-16.7c0-1.8,0-4-.2-5,2,0,3.7,0,6.2,0h24.8c2.5,0,4.2,0,6.2,0,0,1-.2,3.2-.2,5v16.4c0,2.7,0,4.6.2,5.9h-5.7v-2.2h-25.9v2.6h.1ZM894,657.6v5.3h10.1v-5.3h-10.1ZM894,673h10.1v-5.3h-10.1v5.3ZM899.7,693.9c0,1.1.2,1.6.6,1.8.7.4,3,.6,6,.6,7.5,0,8.8-.2,9.3-1.6.3-.8.5-2.7.5-5.1,2,.8,3.2,1.2,5.4,1.6-.2,6-.8,8.1-2.9,9.1-1.5.8-4.2,1-11.7,1-11.2,0-12.5-.6-12.5-5.4v-9.1c0-2.2,0-4,0-5.2l5.7.3c.7,0,1,.2,1,.6s-.3.7-1.1,1.1v10.3h-.2ZM905.8,679.1c3.6,3.5,5.1,5.3,7.5,9l-4.3,3.2c-2.7-4.5-3.9-6.3-6.9-9.5l3.7-2.8h0ZM920,657.6h-10.3v5.3h10.3v-5.3ZM909.6,667.6v5.3h10.3v-5.3h-10.3ZM923.8,682.6c4.1,3.7,6.1,6.1,9.5,11.5l-4.8,3.4c-1.9-3.7-4.8-7.9-8.4-11.7l3.6-3.2h.1Z"/>
  <path class="cls-1" d="M980.3,662.7c-5.2,1.8-9.2,2.7-14.5,3.2-.7,1.5-1.1,2.5-1.8,3.6-.3.5-.3.6-.5.9,1.7-.9,3.3-1.3,5.1-1.3,4.1,0,6.9,2.6,7.3,6.8,8.5-4.6,10.1-5.6,14.1-8.2l3.6,4c.3.3.5.7.5,1s-.3.6-.8.6h-1c-3.4,1.9-4.6,2.5-10,5.3-2,1.1-5.4,2.8-6.2,3.3v10h-5.7v-6.8c-.2,0-.3.2-.9.5-3.2,1.8-4.9,3.8-4.9,6s1.7,3.2,8.6,3.2,10-.4,15.6-1.5c-.4,2.7-.5,3.4-.6,6.1-7.5.8-9.4,1-14.5,1-7.3,0-10-.5-12.3-2.2-1.9-1.4-2.9-3.5-2.9-6.2s1.6-6.4,5.2-9c1.8-1.3,2.4-1.6,5.4-3.2.7-.3,1.1-.6,1.3-.7v-.5c0-1.6-.2-2.6-.6-3.2-.5-.8-1.5-1.3-2.6-1.3-2.4,0-5.1,1.6-7.5,4.3-1.1,1.2-2.4,3.1-4.5,6.3l-4.8-3.5c.6-.8.8-1.2,3.9-5.4,1.4-1.9,3.8-6.2,5.3-9.5h-3.1c-2.2,0-3.5,0-6-.2v-5.4c2.7.2,4.2.3,6,.3s3.9,0,5.6,0c1.6-4,2.9-8.1,3.3-10l5.8,1.5c.3,0,.6.3.6.6s-.3.6-1.1.9c-.5,1.2-.7,1.9-1.4,3.5-.3.8-.5,1.3-.8,2.3-.2.4-.2.6-.3.8,3.5-.5,6.5-1.2,10.5-2.6l1.7,4.8h0Z"/>
  <path class="cls-1" d="M1012.6,685.2c4.8,4.5,7.3,7.4,11.1,12.8l-5.2,3.9c-3.2-5-6.7-9.4-10.4-12.8l4.4-3.9h.1Z"/>
  <path class="cls-1" d="M1077.2,687c1.6,1.6,3.5,3,5.9,4.3,4.1,2.2,8.6,3.5,16.7,4.9-1.2,1.6-1.8,2.3-2,2.9-.9,1.8-1.1,2.1-1.3,2.4-8.2-1.7-13.2-3.6-17.7-6.6-2.9-2-5-4-6.8-6.6-.6,1-1.1,1.9-1.8,2.8-4.3,5.4-11.9,9.3-21.7,11.2-.8-2.4-1.2-3.1-2.5-5,8.1-1.6,14.1-3.9,17.5-6.7,1.2-1,2.2-2.2,3.1-3.6h-9c-2.8,0-7.8,0-10.2.2v-5.7c2.3,0,7.3.2,10.2.2h11.2c.3-1,.5-2,.6-3.1h-8.2c-1.9,0-5.1,0-6.8,0v-5.3c1.7,0,4.6,0,6.8,0h8.8c0-.9,0-1.8,0-2.7h-9.2c-2.4,0-5.6,0-7.9,0v-5.3c2.2,0,5.4.2,7.9.2h9.2c0-2.6,0-4.3-.2-5.8l5.7.6c.7,0,1.2.4,1.2.8s-.3.6-1.2,1v3.5h9.1c2.3,0,6,0,7.9-.2v5.3c-2.1,0-5.7,0-7.9,0h-9.1v2.8h8.9c2.2,0,5.1,0,6.8,0v5.3c-1.8,0-4.9,0-6.8,0h-9.4c0,1-.3,2.1-.6,3.1h13.7c3.1,0,7.6,0,10.1-.2v5.7c-2.7,0-7.1-.2-10.1-.2h-10.9v-.2ZM1070,653.1v-3.6l5.7.4c.6,0,1,.2,1,.6s-.3.7-1.1,1.1v3.2h10.7c3.9,0,8.3,0,11.2-.3,0,2,0,3.1,0,4.4v1.5c0,1.2,0,2.7.2,4.4h-5.9c0-1.4.2-3.2.2-4.4v-.7h-38.4v.7c0,1.1,0,2.9.2,4.4h-5.9c0-1.6.2-3.1.2-4.4v-1.5c0-1.2,0-2.3,0-4.4,2.9.2,7.4.3,11.3.3h10.9v-1.6h0Z"/>
  <path class="cls-1" d="M1125,668.5h6.6v5.2h-6.6v10.8c3.1-.7,5.8-1.6,7.8-2.4l.8,5.1c-3.8,1.4-11.7,3.7-18.4,5.4-.6.9-.8,1.1-1.1,1.1s-.8-.3-.9-.6l-2-5.8c2.3-.3,5.3-.8,8.5-1.5v-12.1h-6.3v-5.2h6.3v-9.5h-7.3v-5.2h20.3v5.2h-7.6v9.5h-.1ZM1146.4,686.7c.7.2,1,.5,1,.9s-.2.6-1.3.9c-2.4,5.7-4.3,8.2-7.9,10.1-3.2,1.7-6.7,2.8-12.6,3.9-.7-2.4-1.1-3.3-2-5,6.7-1.2,10-2.2,12.5-3.9,2.8-1.9,4.5-4.6,5.6-8.6l4.9,1.6h-.2ZM1153.9,683.9v10.7c0,1.2.5,1.6,2.4,1.6,3.1,0,3.4-.4,3.4-3.8s0-1.1,0-2.5c2.1.7,2.8.8,5.2,1.3v1.2c0,5.2-.3,6.6-1.6,7.7-1.2,1-2.6,1.2-6.6,1.2s-4.8,0-5.6-.4c-2.1-.7-2.7-1.8-2.7-5.4v-11.6h-7.6v1.8h-5.6c0-2.3.2-5.6.2-9.9v-14.4c0-3.4,0-7.2-.2-9,1.5,0,2.8,0,4.8,0h16.2c1.9,0,3.3,0,4.8,0,0,1.8-.2,3.9-.2,9v14.2c0,4.5,0,7.8.2,10h-5.6v-1.6h-1.5ZM1155.4,657.3h-14.6v4h14.6v-4ZM1155.4,666.1h-14.6v4.1h14.6v-4.1ZM1155.4,675h-14.6v4.2h14.6v-4.2Z"/>
  <path class="cls-1" d="M1177.7,679.3c5.8-4.1,7.8-5.6,14.3-11.3,3.2-2.8,4.6-3.5,6.7-3.5s1.8.2,2.7.6c1.4.7,1.8.9,12.5,9.6,4.6,3.7,11.6,8,17.9,10.9-2,2.9-2.1,3.2-3.4,5.8-7.7-4.2-11.7-6.9-17.9-11.9-2-1.6-2.2-1.7-6.5-5.4-.6-.5-1.2-1.1-2.4-2-1.2-1-2.2-1.5-3.1-1.5s-1.8.6-2.9,1.5c-1,.8-2.6,2.3-3.9,3.5-5,4.7-5.4,5-8.6,7.7-.2.8-.5,1.3-.8,1.3s-.6-.2-.8-.5l-3.9-4.8h.1Z"/>
  <path class="cls-1" d="M1257.4,677.7c1,.7,2.2,1.3,3.9,1.9,4.2,1.4,7.2,1.7,17.1,1.7s13.7-.2,18.1-.5c-.8,2.8-.8,3.2-1.1,5.3-9.2.2-11.3.2-18.8.2s-12-.6-16.4-2.3c-2.4-.9-4-1.9-5.5-3.5-.7.8-1.4,1.4-2,2-1.4,1.4-2.8,2.6-4.2,3.8-.2,1-.5,1.2-.8,1.2s-.5-.2-.8-.5l-3.2-4.1c3.4-2.2,5.7-4,8.5-6.5v-5.1h-2.2c-1.5,0-4,0-5.4.2v-5.2c1.3,0,3.7,0,5.4,0h2.3c3.1,0,4,0,5.2,0,0,1,0,2.3,0,5v6.5h0ZM1296.2,694.1c-2.7,0-6.7-.2-10-.2v3.2c0,3.9-2.3,5.2-9.7,5.2h-1.1c0-2-.3-3.3-.8-5.3,1.5.2,2.6.2,4.3.2s2-.4,2-2.4v-.8h-17.4c1.9.9,3.5,2,5.4,3.6l-3.9,4.1c-2.2-2.2-3.8-3.4-6.2-4.9l2.6-2.8h-6.4c-3.1,0-8.2,0-11.3.2v-5.2c2.9,0,8,.2,11.3.2h25.9c0-1,0-2-.2-2.6l5.7.5c.5,0,.8.2.8.6s-.3.6-1,1.1v.5c3.3,0,7.4,0,10-.2v5.2h0v-.2ZM1249,651.1c4,2,6.1,3.3,8.6,5.4l-3.2,4.4c-2.8-2.4-3.6-3-8-5.7l2.7-4.1h0ZM1278.4,658.5c-.3.7-.7,1.3-1,1.9h6.8c2.5,0,4.2,0,6.2,0,0,1-.2,3.2-.2,5v8.7c0,2.7,0,4.5.2,5.9h-5.3v-.8h-16.7v.7h-5.4c0-1.4.2-3.2.2-6v-8.5c0-1.8,0-4-.2-5,2,0,3.7,0,6.3,0h3.1c.3-.6.5-1.3.7-1.9h-6.6c-2.4,0-5.6,0-7.9.2v-4.9c2.2,0,5.4.2,7.9.2h2c-.7-1.1-1.5-2.2-2.3-3.1l4.2-2.2c1.9,1.8,2.8,2.9,4.3,5.2h4.5c.8-1.5,1.6-3.1,2.5-5.2l5.3,2c.3,0,.5.4.5.6,0,.4-.5.6-1.5.7-.5.7-.6.8-1.2,1.8h2.4c2.3,0,6,0,7.9-.2v4.9c-2.1,0-5.8-.2-7.9-.2h-8.8v.2ZM1285.1,665.7v-1.5h-16.7v1.5h16.7ZM1268.4,670.5h16.7v-1.4h-16.7v1.4ZM1285.1,673.9h-16.7v1.5h16.7v-1.5Z"/>
  <path class="cls-1" d="M1340.2,655.5c.4.2.6.6.6.9,0,.5-.4.7-1.5.8-2.6,3-10.7,11.6-14.9,15.5-1.8,1.7-2.2,2.1-2.2,2.5s.3.8,1,1.5c7.1,7.4,12,13.3,17.8,21l-5.8,4.1c-1.4-2.4-3.5-5.6-5.3-8.1-2.3-3.2-9.1-11.4-12.2-14.6-1.8-1.9-2.3-2.7-2.3-3.7s1.1-2.7,4-5.6c3.9-3.7,9.8-10.3,12.4-13.7,1.2-1.6,1.8-2.6,2.8-4.3l5.7,3.6h0Z"/>
</svg>