<?xml version="1.0" encoding="UTF-8"?>
<svg id="_レイヤー_1" data-name=" レイヤー 1" xmlns="http://www.w3.org/2000/svg" version="1.1" viewBox="0 0 1349 787">
  <defs>
    <style>
      .cls-1 {
        fill: #e0512e;
        stroke-width: 0px;
      }
    </style>
  </defs>
  <path class="cls-1" d="M437.8,162.7c-8.1-15.3-18.5-30.1-30.9-43.7-46.3-51-143.4-50.7-187.5-14.7-4.1,3.3-8,6.9-11.5,10.7-14.2,14.8-24.2,32.9-29.7,53.7-1.1,4.1-3.1,7.6-5.9,10.5-4.9,5.2-12.1,8.1-19.6,7.5-13.8-1.1-29.5.6-46.9,5.2-18.1,4.8-34.6,14.6-47.8,28.5-26.6,27.9-36,67.2-23.9,100l403.8-157.5h0v-.2Z"/>
</svg>