<?xml version="1.0" encoding="UTF-8"?>
<svg id="_レイヤー_1" data-name=" レイヤー 1" xmlns="http://www.w3.org/2000/svg" version="1.1" viewBox="0 0 1349 787">
  <defs>
    <style>
      .cls-1 {
        fill: #000;
        stroke-width: 0px;
      }
    </style>
  </defs>
  <path class="cls-1" d="M801.3,741.4c0,0-.2.2-.3.4,0,0-.2.2-.2.3-.3.5-.7,1.1-1.1,1.7-.4.6-.9,1.2-1.5,1.8-.5.6-1.1,1.2-1.7,1.8-.6.6-1.2,1.1-1.8,1.5l-1.6-1.5c.5-.4,1-.8,1.5-1.2s.9-.9,1.3-1.4c.4-.5.8-.9,1.1-1.3.3-.4.6-.8.8-1.2h-10.4v-2.2h10.7c.6,0,1.1,0,1.5-.2l1.6,1.3v.2ZM792.9,749.1l-.8-.8-.9-.9c-.3-.3-.6-.6-.9-.8-.3-.3-.6-.5-.8-.6l1.7-1.4c.2.2.5.4.8.6.3.2.6.5.9.8.3.3.7.6,1,.9.3.3.7.6,1,.9.4.3.7.7,1.1,1.1s.7.8,1.1,1.2c.4.4.7.7.9,1l-1.9,1.5c-.2-.3-.5-.6-.9-1-.3-.4-.7-.8-1.1-1.2-.4-.4-.8-.8-1.1-1.2h0ZM808.3,744.1h13v2.5h-13.1v-2.5h0ZM834.8,739c0,.2-.2.4-.3.7,0,.2-.2.5-.2.6,0,.3-.2.6-.4.9,0,.3-.3.7-.4,1,0,.3-.3.6-.4.9-.2.4-.5.8-.8,1.3s-.6.9-1,1.3c-.3.4-.7.8-1.1,1.1l-2-1.2c.3-.2.6-.4.8-.7.3-.3.5-.6.8-.9.2-.3.5-.6.7-.9.2-.3.4-.6.5-.8.2-.4.4-.7.5-1.1.2-.4.3-.7.4-1,0-.3.2-.5.2-.8s0-.6,0-.8l2.5.5h.1ZM832.3,741.4h10.1v2.2h-10.2l.2-2v-.2ZM838.5,742.6c0,1.2,0,2.3-.4,3.3-.2,1-.5,1.9-1,2.7-.4.8-.9,1.5-1.5,2.2-.6.6-1.3,1.2-2,1.7l-2.2-1.5c.3,0,.6-.3.8-.4.3-.2.5-.3.7-.5.5-.4.9-.8,1.3-1.2.4-.5.7-1,1-1.6s.5-1.3.7-2.1.3-1.6.3-2.6h2.3ZM851.4,739.2h9.9v2.1h-9.9v-2.1ZM849.5,743.3h13.6v2.1h-13.6v-2.1ZM857.7,744.4c0,1,0,2-.3,2.8-.2.8-.4,1.6-.8,2.2-.2.4-.4.7-.8,1.1l-1.1,1.1c-.4.4-.9.6-1.3.9l-1.9-1.4c.6-.2,1.1-.5,1.6-1,.5-.4.9-.9,1.3-1.3.4-.6.7-1.3.8-2s.2-1.5.2-2.4h2.3ZM869.7,746.9c.7,0,1.4-.4,2.1-.6.7-.3,1.4-.5,2-.8s1.2-.6,1.6-.8c.5-.3,1-.7,1.5-1.1.5-.4,1-.8,1.4-1.2s.8-.8,1-1.1l1.6,1.6c-.3.4-.7.7-1.2,1.2-.5.4-1,.8-1.6,1.3-.6.4-1.2.8-1.8,1.1s-.8.5-1.2.7c-.5.2-1,.4-1.5.7-.5.2-1,.4-1.6.6-.5.2-1,.4-1.4.5l-.9-1.9v-.2ZM875.2,745.9l2.2-.4v7.4h-2.4v-7h.2ZM892.6,739.3c.3.2.6.4,1,.7s.8.6,1.2.9c.4.3.8.6,1.1.9.4.3.6.6.9.8l-1.6,1.7-.8-.8c-.3-.3-.7-.6-1.1-1-.4-.3-.8-.6-1.1-.9-.4-.3-.7-.5-1-.8l1.5-1.6h-.1ZM890.6,750c.8,0,1.6-.3,2.4-.5s1.4-.5,2-.7c.6-.3,1.2-.6,1.7-.9.9-.5,1.7-1.2,2.5-1.9s1.4-1.4,2-2.2,1-1.5,1.3-2.2l1.2,2.3c-.4.7-.9,1.4-1.5,2.1-.6.7-1.3,1.4-2,2s-1.6,1.2-2.4,1.7c-.5.3-1.1.6-1.8.9-.6.3-1.3.5-2,.8-.7.2-1.4.4-2.2.5l-1.3-2.1v.2ZM922,738.4c0,.2.3.4.4.7.2.3.3.5.5.8,0,.3.3.5.4.7l-1.3.5c-.2-.3-.4-.7-.6-1.1-.2-.4-.4-.8-.7-1.1l1.3-.5h0ZM923.9,737.7c0,.2.3.4.4.7.2.3.3.5.5.8s.3.5.4.7l-1.3.5c-.2-.3-.4-.7-.6-1.1-.2-.4-.5-.8-.7-1.1l1.3-.5h0ZM923.5,741.9c0,0-.2.3-.3.5,0,.2-.2.4-.2.6,0,.5-.3,1-.6,1.6s-.6,1.2-.9,1.9c-.4.6-.8,1.3-1.3,1.9-.8.9-1.6,1.7-2.7,2.5-1,.7-2.3,1.4-3.8,2l-1.9-1.7c1.1-.3,2-.7,2.8-1.1.8-.4,1.5-.9,2.1-1.3.6-.5,1.1-1,1.6-1.5s.7-.9,1-1.4.6-1,.8-1.6c.2-.5.4-1,.5-1.4h-5.4l.7-1.8h5.4c.3,0,.5,0,.6,0l1.6,1h0ZM918.3,739.4c-.2.3-.4.6-.6.9-.2.3-.3.6-.4.7-.4.6-.8,1.3-1.3,2s-1.1,1.3-1.8,2c-.7.6-1.4,1.2-2.1,1.8l-1.8-1.3c.7-.4,1.3-.9,1.9-1.3.5-.5,1-.9,1.4-1.4s.7-.9,1-1.3c.3-.4.5-.8.7-1.2,0-.2.3-.4.4-.8,0-.3.3-.6.3-.9l2.4.8h-.1ZM934.9,747.7h1.9v2.6c0,.2,0,.4.2.4h3.1c.2,0,.4,0,.5,0,0,0,.2-.3.3-.5,0-.3,0-.7,0-1.2,0,0,.3.2.5.3.2,0,.4.2.7.3.2,0,.4,0,.6.2,0,.8-.2,1.3-.4,1.8-.2.4-.4.7-.8.9-.3.2-.8.2-1.3.2h-2.7c-.7,0-1.2,0-1.6-.2-.4,0-.6-.4-.8-.7,0-.3-.2-.8-.2-1.3v-2.6h0ZM936.5,747.3l1.3-1.2c.4.2.8.4,1.2.6.4.2.8.5,1.2.8s.7.5.9.8l-1.4,1.3-.8-.8c-.4-.3-.7-.6-1.1-.8-.4-.3-.8-.5-1.2-.7h-.1ZM942,747.9l1.7-.7c.3.4.6.8.9,1.3.3.5.5.9.8,1.4.2.4.4.8.5,1.2l-1.9.8c0-.4-.2-.8-.4-1.2-.2-.5-.4-.9-.7-1.4s-.5-.9-.8-1.3h0ZM932.6,747.3l1.7.6c0,.4-.3.9-.4,1.4-.2.5-.3,1-.6,1.4-.2.4-.4.9-.7,1.2l-1.7-1c.2-.3.5-.7.7-1.1.2-.4.4-.8.6-1.3.2-.4.3-.9.4-1.3h0ZM934.4,743.1v1.4h7.8v-1.4h-7.8ZM934.4,740.2v1.4h7.8v-1.4h-7.8ZM932.6,738.6h11.5v7.6h-11.5v-7.6ZM937.4,739.3h1.9v6.2h-1.9v-6.2ZM952.1,742.4h14v1.6h-14v-1.6ZM953.4,739.6h9v1.6h-9v-1.6ZM957.1,737.9h1.9v5.3h-1.9v-5.3ZM963.3,744.7l1.2,1.3c-.7.2-1.5.3-2.4.5-.9,0-1.8.3-2.7.4-.9,0-1.8.2-2.7.2,0-.2,0-.4-.2-.7,0-.3-.2-.5-.2-.6.6,0,1.2,0,1.9-.2.6,0,1.3-.2,1.9-.2s1.2-.2,1.8-.3,1-.2,1.5-.3h0ZM963.9,738.5l1.6.8c-1.1,1.4-2.3,2.6-3.7,3.7-1.4,1.1-2.9,2.2-4.4,3.1-1.6.9-3.2,1.7-4.8,2.3,0,0-.2-.3-.3-.5s-.3-.4-.4-.6c0-.2-.3-.3-.4-.4,1.7-.6,3.3-1.3,4.8-2.1,1.5-.9,3-1.8,4.3-2.9,1.3-1.1,2.5-2.2,3.4-3.5h0ZM955.8,744.8l1.9.2c0,.6-.3,1.1-.4,1.8,0,.6-.3,1.2-.4,1.8,0,.6-.3,1.1-.4,1.5l-1.9-.3c0-.4.3-.9.4-1.5.2-.6.3-1.2.4-1.8,0-.6.3-1.2.4-1.7ZM962.5,747.8h2v.7c0,.7-.2,1.3-.4,1.8,0,.5-.3.9-.4,1.2-.2.3-.3.6-.5.7-.2.2-.4.3-.7.4-.2,0-.5,0-.9,0h-2.4c0-.3,0-.6-.2-.9,0-.3-.2-.6-.4-.9.5,0,.9,0,1.4,0h1.4c0,0,.2,0,.3,0,.2,0,.4-.5.5-.9.2-.5.3-1.2.4-2.1v-.2h0ZM956.1,747.8h6.9v1.6h-7.3l.5-1.6h-.1ZM985.3,742.2c-.2,0-.5.3-.8.4-.3,0-.5.3-.8.4-.2,0-.6.3-.9.4-.4.2-.7.4-1.2.6-.4.2-.8.4-1.2.7-.4.2-.8.5-1.2.7-.7.4-1.2.9-1.6,1.4-.4.5-.6,1-.6,1.6s.3,1,.8,1.3c.6.3,1.4.4,2.5.4h1.8c.6,0,1.2,0,1.9-.2.6,0,1.1-.2,1.6-.3v2.3c-.5,0-1,0-1.5.2-.5,0-1.1,0-1.7,0h-2c-.7,0-1.5,0-2.2-.2-.7,0-1.3-.3-1.8-.6s-.9-.7-1.2-1.1c-.3-.5-.4-1-.4-1.7s0-1.3.4-1.9c.3-.6.7-1.1,1.2-1.5.5-.5,1.1-.9,1.7-1.3.4-.3.8-.5,1.2-.7s.8-.5,1.2-.7.8-.4,1.2-.6c.4-.2.7-.4.9-.5.3-.2.6-.3.8-.5.2,0,.5-.3.7-.5l1.1,1.9h0ZM977.3,738.7c.3.7.5,1.4.8,2,.3.7.6,1.3.9,1.8.3.6.6,1.1.8,1.5l-1.8,1.1c-.3-.5-.6-1-.9-1.6-.3-.6-.6-1.2-.9-1.9-.3-.7-.6-1.4-.9-2.1l2-.8h0ZM1008.1,740.7c0,0-.2.2-.3.4s-.2.3-.3.4c-.2.4-.6.9-1,1.4s-.9,1.1-1.3,1.6c-.5.5-1,1-1.5,1.3l-1.7-1.3c.3-.2.6-.4.9-.7.3-.3.6-.5.8-.8.3-.3.5-.6.7-.8.2-.3.4-.5.5-.7h-10.2v-2.2c.3,0,.6,0,1,0h11.2l1.3,1.2h0ZM1001.5,742.8v2.3c0,.7,0,1.4-.3,2.1,0,.7-.4,1.3-.7,1.9-.3.6-.7,1.2-1.3,1.7s-1.3,1-2.1,1.5l-1.9-1.5c.3,0,.5-.2.8-.3s.6-.3.9-.5c.5-.4.9-.7,1.2-1.1.3-.4.6-.8.7-1.3.2-.5.3-1,.4-1.5v-3.2h2.3,0ZM1013.8,745.3c1.4-.4,2.7-.8,3.9-1.3s2.2-1,3.1-1.6c.6-.3,1.1-.7,1.7-1.2.6-.4,1.1-.9,1.6-1.4s.9-.9,1.3-1.3l1.7,1.6c-.5.5-1,1-1.6,1.5s-1.2,1-1.8,1.4-1.3.9-1.9,1.2c-.6.4-1.3.7-2,1.1-.7.4-1.5.7-2.4,1.1-.8.3-1.7.6-2.5.9l-1-2h0ZM1020.4,743.4l2.3-.5v9.4h-2.5v-8.9h.2ZM1036.6,739.4h8.7v2.1h-8.7v-2.1ZM1034.7,743.5h13.6v2.1h-13.6v-2.1ZM1042.9,744.6c0,1,0,2-.3,2.8-.2.8-.4,1.6-.8,2.2-.2.4-.4.7-.8,1.1-.3.4-.7.7-1.1,1.1s-.9.6-1.3.9l-1.9-1.4c.6-.2,1.1-.5,1.6-.9s.9-.9,1.3-1.3c.4-.6.7-1.3.8-2,0-.7.2-1.6.2-2.4h2.3ZM1046.2,738.3c0,.2.3.4.4.7.2.3.3.5.4.8s.3.5.4.7l-1.3.6c-.2-.3-.4-.7-.6-1.1-.2-.4-.4-.8-.7-1.1l1.3-.5h0ZM1048.1,737.6c0,.2.3.4.4.7.2.3.3.5.5.8s.3.5.4.7l-1.3.6c-.2-.3-.4-.7-.6-1.1-.2-.4-.5-.8-.7-1.1l1.3-.5h0ZM1069.7,740.7c0,0-.2.2-.3.4,0,.2-.2.3-.3.4-.2.4-.6.9-1,1.4s-.9,1.1-1.3,1.6c-.5.5-1,1-1.5,1.3l-1.7-1.3c.3-.2.6-.4.9-.7s.6-.5.8-.8c.3-.3.5-.6.7-.8.2-.3.4-.5.5-.7h-10.2v-2.2c.3,0,.6,0,1,0h11.2l1.3,1.2h0ZM1063.1,742.8v2.3c0,.7,0,1.4-.3,2.1,0,.7-.4,1.3-.7,1.9-.3.6-.7,1.2-1.3,1.7-.6.5-1.3,1-2.1,1.5l-1.9-1.5c.3,0,.5-.2.8-.3s.6-.3.9-.5c.5-.4.9-.7,1.2-1.1.3-.4.6-.8.7-1.3.2-.5.3-1,.4-1.5v-3.2h2.3ZM1076.3,740.5h2.8c.5,0,1,0,1.6-.2.6,0,1.3,0,1.9-.2.7,0,1.4,0,2.1-.2.6,0,1.1,0,1.6,0h2.9v2h-2.1c-.4,0-.7,0-1,0-.5,0-.9.3-1.3.7-.4.3-.8.7-1.1,1.1-.3.4-.5.8-.7,1.3s-.3.9-.3,1.4,0,1,.3,1.4c.2.4.4.7.8,1,.3.3.7.5,1.2.7.4.2.9.3,1.4.4.5,0,1,.2,1.6.2l-.8,2.2c-.7,0-1.3,0-2-.3-.6-.2-1.2-.4-1.8-.7-.6-.3-1-.7-1.5-1.1-.4-.4-.7-.9-1-1.5-.2-.6-.4-1.2-.4-1.9s0-1.5.4-2.1c.2-.7.5-1.2.9-1.7s.7-.9,1.1-1.1c-.3,0-.7,0-1.1,0-.4,0-.9,0-1.4.2-.5,0-1,0-1.5.2-.5,0-1,0-1.5.2-.5,0-.9,0-1.2.2l-.2-2.2h.3ZM1087,743.2c0,.2.3.4.4.7.2.3.3.5.5.8,0,.3.3.5.4.7l-1.2.5c-.2-.4-.4-.8-.6-1.2-.2-.3-.4-.7-.7-1l1.2-.5h0ZM1088.8,742.4c0,.2.3.4.4.7.2.2.3.5.5.8s.3.5.4.7l-1.2.6c-.2-.4-.4-.8-.6-1.1s-.4-.7-.7-1l1.2-.5v-.2ZM1099.4,752.6c-.3-.4-.7-.8-1.1-1.2s-.8-.8-1.2-1.2c-.4-.4-.8-.8-1.2-1.1l1.7-1.4c.4.3.8.7,1.2,1.1.4.4.9.8,1.2,1.3.4.4.7.8,1,1.1l-1.7,1.5h0ZM1122.8,738.3h2.2c0,.4,0,1,0,1.7,0,.7-.2,1.5-.3,2.4,0,.9-.4,1.7-.6,2.7-.3.9-.7,1.9-1.2,2.8-.5.9-1.1,1.8-1.9,2.7-.8.8-1.7,1.6-2.8,2.3-.2-.2-.4-.5-.7-.8-.3-.3-.6-.5-.9-.8,1.1-.6,2-1.3,2.7-2s1.3-1.6,1.8-2.4c.5-.9.8-1.7,1.1-2.6.2-.9.4-1.7.5-2.4s.2-1.5.2-2.1v-1.4h0ZM1124.9,738.7v1c0,.4,0,1,.2,1.6,0,.6.2,1.3.4,2,.2.7.5,1.4.8,2.2.3.7.7,1.5,1.2,2.2s1.1,1.4,1.8,2c.7.6,1.5,1.1,2.5,1.6-.3.2-.6.5-.9.8s-.5.6-.6.8c-1-.5-1.8-1.1-2.6-1.7-.7-.7-1.3-1.4-1.9-2.2-.5-.8-.9-1.6-1.3-2.4-.3-.8-.6-1.6-.8-2.4-.2-.8-.4-1.5-.5-2.2s-.2-1.3-.2-1.8v-1.1l1.9-.2v-.2ZM1150.3,742.2c-.2,0-.5.3-.8.4-.3,0-.5.3-.8.4-.2,0-.5.3-.9.4-.4.2-.7.4-1.2.6-.4.2-.8.4-1.2.7-.4.2-.8.5-1.2.7-.7.4-1.2.9-1.6,1.4s-.6,1-.6,1.6.3,1,.8,1.3c.6.3,1.4.4,2.5.4h1.8c.6,0,1.2,0,1.9-.2.6,0,1.1-.2,1.6-.3v2.3c-.5,0-1,0-1.5.2-.5,0-1.1,0-1.7,0h-2c-.7,0-1.5,0-2.2-.2-.7,0-1.3-.3-1.8-.6s-.9-.7-1.2-1.1c-.3-.5-.4-1-.4-1.7s0-1.3.4-1.9c.3-.6.7-1.1,1.2-1.5.5-.5,1.1-.9,1.7-1.3.4-.3.8-.5,1.2-.7.4-.2.8-.5,1.2-.7l1.2-.6c.4-.2.7-.4.9-.5.3-.2.6-.3.8-.5.2,0,.5-.3.7-.5l1.1,1.9h0ZM1142.2,738.7c.3.7.5,1.4.8,2,.3.7.6,1.3.9,1.8.3.6.6,1.1.8,1.5l-1.8,1.1c-.3-.5-.6-1-.9-1.6s-.6-1.2-.9-1.9-.6-1.4-.9-2.1l2-.8ZM1164.3,750.6h9.1v1.9h-9.1v-1.9ZM1165,742.9h8.1v1.9h-8.1v-1.9ZM1168,738.1h2v13.4h-2v-13.4ZM1158.6,740.9h5.2v1.7h-5.2v-1.7ZM1160.9,746.3l1.9-2.3v8.9h-1.9v-6.6h0ZM1160.9,737.9h1.9v3.8h-1.9v-3.8ZM1162.5,744.6c0,0,.4.3.6.5.3.2.5.5.8.7.3.3.6.5.8.7.2.2.4.4.5.5l-1.2,1.6c-.2-.2-.4-.4-.6-.7s-.5-.6-.7-.8c-.3-.3-.5-.6-.8-.8-.2-.3-.5-.5-.6-.6l1-.9.2-.2ZM1163.1,740.9h.7l1.1.6c-.4,1-.9,2-1.6,3-.6.9-1.3,1.8-2.1,2.5-.8.8-1.6,1.4-2.4,1.9,0-.2,0-.4-.3-.6,0-.2-.2-.5-.3-.7,0-.2-.2-.4-.3-.5.7-.4,1.4-.9,2.1-1.5s1.3-1.3,1.8-2.1.9-1.5,1.2-2.3v-.3h.1ZM1180,750.6h3.3c1.3,0,2.6,0,4,0,1.4,0,2.8,0,4.1-.2v1.8c-1.4,0-2.7,0-4,.2-1.3,0-2.6,0-3.8.2-1.2,0-2.3,0-3.3.2l-.2-1.9v-.2ZM1180,745.8h13.3v1.8h-13.3v-1.8ZM1182.8,742.7h7.5v1.8h-7.5v-1.8ZM1183.9,747l2.2.6c-.2.5-.5,1-.8,1.5s-.5,1-.8,1.5-.5.9-.7,1.2l-1.7-.6c.2-.4.4-.8.7-1.3.2-.5.4-1,.6-1.5s.4-1,.5-1.4h0ZM1187.8,748.6l1.7-.9c.5.4,1,.9,1.4,1.3.5.5.9,1,1.3,1.5s.7.9,1,1.3l-1.8,1.1c-.2-.4-.5-.9-.9-1.4s-.8-1-1.3-1.5-.9-1-1.4-1.4h0ZM1186.5,739.8c-.4.6-1,1.2-1.6,1.9-.7.6-1.4,1.2-2.2,1.8-.8.6-1.7,1.1-2.6,1.5,0-.2-.2-.3-.3-.5,0-.2-.3-.4-.4-.6,0-.2-.3-.4-.4-.5.9-.4,1.8-.9,2.6-1.5.8-.6,1.6-1.2,2.3-1.9.7-.7,1.2-1.3,1.6-2h2c.4.6.9,1.1,1.4,1.7.5.5,1.1,1,1.7,1.4s1.2.8,1.8,1.2c.6.3,1.3.6,1.9.8-.2.2-.5.5-.7.8s-.4.6-.6.9c-.8-.4-1.6-.8-2.4-1.4-.8-.5-1.6-1.1-2.3-1.8-.7-.6-1.3-1.3-1.7-1.9h-.1ZM1206.5,740.3c.5,0,1,0,1.6,0h3.7c.6,0,1.1,0,1.5,0v2.1c-.5,0-1,0-1.6,0h-3.6c-.6,0-1.1,0-1.6,0v-2h0ZM1207.8,747.1c0,.3,0,.5,0,.7v.6c0,.2,0,.3,0,.5,0,0,.2.3.4.4.2,0,.4.2.7.2h3c.6,0,1.3-.2,2-.3v2.2c-.5,0-1.1.2-1.7.2h-2.4c-1.4,0-2.4-.2-3.1-.7s-1-1.1-1-1.9v-1c0-.3,0-.7.2-1.1l1.8.2h0ZM1204.1,739.2c0,0,0,.3,0,.4,0,.2,0,.4-.2.6v.4c0,.2,0,.5-.2.9,0,.4,0,.8-.2,1.2,0,.4,0,.9-.2,1.3s0,.9-.2,1.3v2.1c0-.2.2-.4.2-.5,0-.2.2-.4.3-.5,0-.2.2-.4.2-.5l1,.8c0,.4-.3.9-.5,1.4,0,.5-.3,1-.4,1.4s-.2.8-.3,1.1v1.5h-1.9c-.2-.4-.3-1.2-.4-2.1,0-.9-.2-1.9-.2-3v-1.8c0-.6,0-1.2.2-1.8,0-.6,0-1.1.2-1.6,0-.5,0-.9.2-1.2v-1.6l2.2.2h.3ZM1229.7,743.2h6v1.8h-6v-1.8ZM1221,739.5h7.2v1.6h-7.2v-1.6ZM1220.9,745.9h7.3v1.6h-7.3v-1.6ZM1220.8,743.1h7.5v1.6h-7.5v-1.6ZM1232.3,744h1.9v8.9h-1.9v-8.9ZM1223.7,738h1.9v2.1h-1.9v-2.1ZM1223.7,744.5h1.9v8.4h-1.9v-8.4ZM1228.8,739.2l2.2.6c0,0,0,.2-.4.3v6.7c0,.7-.2,1.4-.3,2.2-.2.7-.4,1.5-.8,2.1-.3.7-.8,1.3-1.3,1.9,0,0-.2-.3-.4-.5-.2-.2-.3-.3-.5-.5-.2,0-.3-.3-.5-.3.5-.5.8-1,1.1-1.6.3-.6.5-1.2.6-1.8s.2-1.2.3-1.8v-7.3h0ZM1234,738.1l1.5,1.4c-.5.2-1.1.5-1.8.7-.6.2-1.3.4-2,.5s-1.3.3-1.9.4c0-.2,0-.4-.3-.7,0-.3-.2-.5-.4-.7.6,0,1.2-.3,1.7-.4.6-.2,1.1-.4,1.6-.5.5-.2,1-.4,1.3-.6h.3ZM1225.4,747.5c0,0,.3.2.5.4s.5.4.7.6c.3.2.5.4.7.5.2.2.4.3.5.4l-1.1,1.4c0,0-.3-.3-.5-.5s-.4-.4-.6-.7c-.2-.2-.4-.4-.7-.6-.2-.2-.4-.4-.5-.5l1-.8v-.2ZM1221.8,741.3l1.5-.4c0,.3.3.6.4,1s.2.7.2.9l-1.6.4c0-.3,0-.6-.2-.9,0-.4-.2-.7-.3-1ZM1225.8,740.9l1.7.3c0,.4-.3.7-.4,1.1,0,.3-.3.6-.4.8l-1.5-.3c0-.2.2-.4.2-.6s.2-.4.2-.7,0-.4.2-.6h0ZM1223.7,746.8l1.3.5c-.3.6-.6,1.2-.9,1.7-.4.6-.8,1.1-1.2,1.6s-.9.9-1.3,1.3c0-.2-.3-.4-.6-.7-.2-.3-.5-.5-.7-.7.4-.3.8-.6,1.2-1,.4-.4.8-.9,1.2-1.3.4-.5.7-1,.9-1.4h0ZM1246.9,738.8c0,.3,0,.7,0,1.1v8.4c0,.5,0,1,.3,1.3.2.3.5.5.8.7.3,0,.7.2,1.1.2.7,0,1.3,0,1.8-.3.5-.2,1-.4,1.5-.7.4-.3.8-.6,1.2-1,.4-.4.7-.8,1-1.2l1.5,1.8c-.3.4-.6.8-1,1.2s-.9.8-1.5,1.2-1.2.7-2,.9c-.7.2-1.6.4-2.5.4s-1.6,0-2.3-.4c-.6-.3-1.1-.7-1.5-1.2-.4-.6-.5-1.3-.5-2.2v-8.9c0-.4,0-.7-.2-1h2.6l-.2-.3ZM1265.9,740.1c0,.2,0,.4,0,.7v4.8c0,.8.2,1.4.3,2,0,.6.3,1,.5,1.4.2.3.5.5.8.5s.4,0,.5-.3c.2-.2.3-.5.5-.8,0-.3.3-.7.4-1,0-.4.2-.7.3-1l1.6,2c-.4.9-.7,1.7-1.1,2.2-.3.5-.7.9-1.1,1.2-.4.2-.8.4-1.2.4s-1.1-.2-1.6-.6c-.5-.4-.9-1-1.3-1.9s-.6-2-.8-3.4c0-.5,0-1,0-1.6v-4.4h2.5v-.2ZM1273.9,740.4c.3.4.6.8.9,1.3s.5,1.1.8,1.7c.2.6.4,1.2.6,1.8s.3,1.2.4,1.8.2,1.1.2,1.6l-2.1.8c0-.7,0-1.4-.3-2.1,0-.8-.3-1.5-.6-2.3-.2-.8-.5-1.5-.8-2.2s-.7-1.3-1.1-1.8l2-.7h0ZM1283.5,739.3h14.2v1.8h-14.2v-1.8ZM1289.6,737.9h2v2.1h-2v-2.1ZM1291.7,740h1.9v3.9c0,.4,0,.7,0,1,0,.2-.3.4-.6.6-.3,0-.6.2-1,.2h-1.3c0-.3,0-.5-.2-.8,0-.3-.2-.6-.3-.8h1.6v-4.1ZM1288.5,739.7h1.8v2.6c0,.5-.2.9-.4,1.4-.2.5-.4.9-.8,1.4-.4.4-.8.9-1.4,1.2,0,0-.2-.3-.4-.4-.2-.2-.3-.3-.5-.5s-.3-.3-.5-.4c.5-.3.9-.6,1.2-1,.3-.4.5-.7.7-1.1,0-.4.2-.7.3-1.1v-2.2h0ZM1294,742.4l1.5-.8c.3.3.6.6.9,1s.6.7.9,1.1c.3.4.5.7.7,1l-1.6,1c0-.3-.4-.6-.6-1-.3-.4-.6-.7-.9-1.1-.3-.4-.6-.7-.9-1v-.2ZM1285.5,741.6l1.8.5c-.3.6-.7,1.2-1.2,1.8s-1,1.1-1.6,1.5c-.2-.2-.4-.4-.7-.6-.3-.2-.5-.4-.7-.5.3-.2.7-.5,1-.8s.6-.6.8-.9c.2-.3.4-.7.6-1h0ZM1288.2,747.4c.5.8,1.3,1.5,2.2,2,.9.5,2.1.9,3.4,1.2s2.8.5,4.4.5c0,0-.3.3-.4.5s-.3.4-.4.7c0,.2-.2.4-.3.6-1.7,0-3.2-.4-4.6-.8-1.3-.4-2.5-.9-3.5-1.6s-1.8-1.6-2.5-2.6l1.7-.5h0ZM1288.6,745.2l2,.4c-.7.9-1.5,1.7-2.4,2.5-.9.7-2.1,1.4-3.5,2,0-.2-.2-.3-.3-.5,0-.2-.3-.4-.4-.5,0-.2-.3-.3-.4-.4,1.3-.4,2.4-1,3.2-1.6.8-.6,1.5-1.2,1.9-1.9h0ZM1288.5,746.4h5.7v1.5h-7l1.4-1.5h0ZM1293.7,746.4h.7l1.2.8c-.5.9-1.2,1.7-2,2.4s-1.7,1.2-2.8,1.7c-1,.4-2.1.8-3.3,1.1-1.2.3-2.4.5-3.7.6,0-.2,0-.4-.2-.6,0-.2-.2-.4-.3-.6,0-.2-.2-.4-.4-.5,1.2,0,2.4-.3,3.5-.5s2.1-.5,3.1-.8c.9-.4,1.8-.8,2.4-1.3.7-.5,1.2-1.2,1.6-1.9v-.3h.2ZM1311,738.3h1.9v12.2c0,.2,0,.3.3.3h2.9c.3,0,.5,0,.6-.2s.2-.4.3-.8c0-.4,0-1,.2-1.7.2.2.5.3.9.5.3,0,.6.3.9.3,0,.9-.2,1.7-.4,2.2-.2.6-.4,1-.8,1.2-.4.3-.8.4-1.5.4h-2.8c-.7,0-1.2,0-1.6-.3s-.6-.5-.8-.9c0-.4-.2-1-.2-1.8v-11.5h0ZM1317,741l1.4,1.7c-.6.4-1.2.8-1.9,1.2-.7.4-1.4.8-2.1,1.2s-1.4.7-2.1,1c0-.2-.2-.5-.3-.8-.2-.3-.3-.5-.4-.8.7-.3,1.3-.7,2-1.1.7-.4,1.3-.8,1.9-1.3.6-.4,1.1-.9,1.6-1.2h0ZM1307.9,738.1l1.9.6c-.4.9-.9,1.9-1.4,2.8-.6.9-1.2,1.8-1.8,2.7-.6.8-1.3,1.5-2,2.2,0-.2-.2-.4-.3-.6,0-.3-.3-.5-.4-.8s-.3-.5-.4-.6c.6-.5,1.2-1.1,1.7-1.7.5-.7,1.1-1.4,1.5-2.2.5-.8.9-1.6,1.2-2.4h0ZM1306.2,742.6l1.9-1.9h0v12.2h-1.9v-10.3ZM1331.9,738.7c0,.3,0,.7-.3,1.1,0,.5-.3,1-.5,1.6-.2.4-.4.8-.6,1.2s-.4.8-.7,1.1c0,0,.3,0,.5-.2.2,0,.4,0,.7,0h.6c.7,0,1.2.2,1.7.6.4.4.7,1,.7,1.7v3.7h-1.9v-2.9c0-.5,0-.9-.4-1.1-.3-.2-.6-.3-.9-.3s-.9,0-1.4.3c-.4.2-.8.5-1.1.8-.2.2-.5.5-.7.8s-.5.6-.8,1l-1.7-1.3c.7-.6,1.3-1.3,1.8-1.9.5-.6.9-1.2,1.3-1.8s.6-1.2.9-1.8c.2-.4.3-.9.4-1.3,0-.5.2-.9.2-1.3l2.1.2h.1ZM1325.9,740.1c.4,0,.9,0,1.4,0h3.7c.8,0,1.7,0,2.6-.2.9,0,1.7-.2,2.5-.3v1.9c-.6,0-1.2,0-1.9.2-.7,0-1.3,0-2,0h-6.2v-1.9h0ZM1338.6,744.7c-.2,0-.4,0-.6.2-.2,0-.5.2-.7.2s-.4,0-.6.2c-.5.2-1.1.4-1.8.7-.7.3-1.4.6-2.2,1-.5.3-.9.5-1.2.8-.3.2-.6.5-.8.8-.2.2-.3.5-.3.8s0,.4,0,.6c0,0,.2.3.4.3s.4,0,.7.2h1c.7,0,1.4,0,2.3,0,.8,0,1.6-.2,2.3-.3v2.1c-.4,0-.8,0-1.4,0-.5,0-1.1,0-1.6,0h-1.6c-.8,0-1.6,0-2.2-.2s-1.2-.4-1.6-.8c-.4-.4-.6-.9-.6-1.6s0-1.1.4-1.5.6-.9,1-1.2c.4-.4.9-.7,1.4-1s1-.6,1.5-.8c.5-.3.9-.5,1.3-.7s.8-.3,1.1-.5c.4,0,.7-.3,1-.4.3,0,.6-.3.9-.4.3,0,.6-.3.9-.4l.8,1.9h0Z"/>
</svg>