<?xml version="1.0" encoding="UTF-8"?>
<svg id="_レイヤー_1" data-name="レイヤー 1" xmlns="http://www.w3.org/2000/svg" version="1.1" viewBox="0 0 336 591">
  <defs>
    <style>
      .cls-1 {
        fill: #000;
        stroke-width: 0px;
      }
    </style>
  </defs>
  <path class="cls-1" d="M201.5,570.6c0,.3-.1.6-.2,1-.1.4-.3.9-.4,1.4-.2.3-.3.7-.5,1.1-.2.4-.4.7-.6,1,.1,0,.3-.1.5-.1.2,0,.4,0,.6,0,.2,0,.4,0,.5,0,.6,0,1.1.2,1.5.5.4.3.6.8.6,1.5v.7c0,.3,0,.6,0,.9,0,.3,0,.6,0,.9,0,.3,0,.5,0,.8h-1.7c0-.2,0-.3,0-.6,0-.2,0-.5,0-.7,0-.2,0-.5,0-.7,0-.2,0-.4,0-.6,0-.4-.1-.8-.4-.9-.2-.2-.5-.3-.8-.3s-.8,0-1.2.3c-.4.2-.7.4-1,.7-.2.2-.4.4-.6.7-.2.3-.4.5-.7.9l-1.5-1.1c.6-.6,1.1-1.1,1.6-1.6.4-.5.8-1,1.1-1.6.3-.5.6-1,.8-1.5.1-.4.3-.8.3-1.2,0-.4.1-.8.2-1.1l1.8.2ZM196.3,571.9c.4,0,.8,0,1.2.1.5,0,.9,0,1.2,0,.6,0,1.3,0,2,0,.7,0,1.5,0,2.2-.1.8,0,1.5-.2,2.2-.3v1.6c-.5,0-1,.1-1.6.2-.6,0-1.2,0-1.8.1-.6,0-1.2,0-1.7,0-.5,0-1,0-1.4,0h-.7c-.3,0-.6,0-.8,0-.3,0-.6,0-.8,0v-1.6ZM207.4,575.9c-.2,0-.3.1-.5.2-.2,0-.4.1-.6.2-.2,0-.4.1-.5.2-.4.2-1,.4-1.6.6-.6.3-1.2.5-1.9.9-.4.2-.8.4-1.1.7-.3.2-.5.4-.7.7-.2.2-.2.5-.2.7s0,.4.1.5c0,.1.2.2.4.3.2,0,.4.1.6.2s.6,0,.9,0c.6,0,1.3,0,2,0,.7,0,1.4-.2,2-.3v1.8c-.4,0-.7,0-1.2.1-.5,0-.9,0-1.4,0-.5,0-1,0-1.4,0-.7,0-1.4,0-2-.2-.6-.1-1-.4-1.4-.7-.3-.3-.5-.8-.5-1.4s.1-.9.3-1.3c.2-.4.5-.7.9-1.1.4-.3.8-.6,1.2-.9.4-.3.9-.5,1.3-.7.4-.2.8-.4,1.2-.6.3-.2.7-.3,1-.4.3-.1.6-.3.9-.4.3-.1.5-.2.8-.3.3-.1.5-.2.8-.4l.7,1.6Z"/>
  <path class="cls-1" d="M183.1,570.3h1.7v10.1c0,.3,0,.5,0,.6,0,.1.1.2.2.3.1,0,.3,0,.5,0h2c.2,0,.4,0,.5-.2.1-.1.2-.4.3-.7,0-.4.1-.9.1-1.5.2.1.5.3.8.4.3.1.6.2.8.3,0,.8-.2,1.4-.3,1.9-.1.5-.4.8-.7,1-.3.2-.7.3-1.3.3h-2.4c-.6,0-1,0-1.4-.2-.3-.1-.6-.4-.7-.8-.1-.4-.2-.9-.2-1.5v-10.1ZM188.3,572.7l1.2,1.5c-.5.4-1.1.7-1.7,1.1-.6.3-1.2.7-1.9,1-.6.3-1.2.6-1.8.9,0-.2-.2-.4-.3-.7-.1-.3-.3-.5-.4-.7.6-.3,1.2-.6,1.7-1,.6-.4,1.1-.7,1.7-1.1.5-.4,1-.7,1.4-1.1ZM180.4,570.1l1.7.5c-.4.8-.8,1.7-1.3,2.5-.5.8-1,1.6-1.6,2.3-.6.7-1.1,1.3-1.7,1.9,0-.1-.1-.3-.3-.5-.1-.2-.2-.4-.4-.7-.1-.2-.2-.4-.3-.6.5-.4,1-.9,1.5-1.5.5-.6.9-1.2,1.3-1.9.4-.7.8-1.4,1-2.1ZM178.9,574.1l1.7-1.7h0v10.7h-1.7v-9Z"/>
  <path class="cls-1" d="M158.8,571.2h12.4v1.5h-12.4v-1.5ZM164.2,569.9h1.7v1.9h-1.7v-1.9ZM166.1,571.8h1.6v3.4c0,.4,0,.6-.1.9,0,.2-.2.4-.5.5-.2.1-.5.2-.8.2-.3,0-.7,0-1.1,0,0-.2,0-.5-.2-.7,0-.3-.2-.5-.3-.7.2,0,.5,0,.7,0h.5c0,0,.1,0,.2,0,0,0,0,0,0-.1v-3.4ZM163.2,571.6h1.6v1.1c0,.4,0,.8,0,1.2,0,.4-.1.8-.3,1.2-.1.4-.4.8-.7,1.2-.3.4-.7.7-1.2,1.1,0-.1-.2-.2-.4-.4-.1-.1-.3-.3-.4-.4-.2-.1-.3-.3-.4-.3.4-.3.8-.5,1.1-.8.3-.3.5-.6.6-.9.1-.3.2-.6.3-.9,0-.3,0-.6,0-.9v-1.1ZM168.1,573.9l1.3-.7c.3.3.5.5.8.9.3.3.6.6.8.9.3.3.5.6.6.8l-1.4.9c-.1-.3-.3-.6-.6-.9-.2-.3-.5-.6-.8-1-.3-.3-.5-.6-.8-.9ZM160.6,573.2l1.6.4c-.3.6-.7,1.1-1.1,1.6-.4.5-.9,1-1.4,1.3-.1-.2-.3-.3-.6-.5-.2-.2-.4-.3-.6-.4.3-.2.6-.4.9-.7.3-.3.5-.5.7-.8.2-.3.4-.6.5-.9ZM163,578.2c.5.7,1.1,1.3,1.9,1.7.8.5,1.8.8,3,1.1,1.1.3,2.4.4,3.8.5-.1.1-.2.3-.4.5-.1.2-.2.4-.3.6-.1.2-.2.4-.3.5-1.5-.1-2.8-.3-4-.7-1.2-.3-2.2-.8-3.1-1.4-.9-.6-1.6-1.4-2.2-2.3l1.5-.5ZM163.3,576.3l1.8.4c-.6.8-1.3,1.5-2.1,2.2-.8.6-1.8,1.2-3.1,1.7,0-.1-.2-.3-.3-.4-.1-.2-.3-.3-.4-.4-.1-.1-.3-.3-.4-.3,1.1-.4,2.1-.8,2.8-1.4.7-.5,1.3-1.1,1.7-1.6ZM163.3,577.4h5v1.3h-6.1l1.2-1.3ZM167.8,577.4h.6c0,0,1.1.7,1.1.7-.5.8-1,1.5-1.8,2.1-.7.6-1.5,1.1-2.4,1.5-.9.4-1.9.7-2.9,1-1,.3-2.1.4-3.2.6,0-.1-.1-.3-.2-.5,0-.2-.2-.4-.3-.6-.1-.2-.2-.3-.3-.4,1.1,0,2.1-.2,3.1-.4,1-.2,1.9-.4,2.7-.7.8-.3,1.5-.7,2.1-1.2.6-.5,1.1-1,1.4-1.7v-.3Z"/>
  <path class="cls-1" d="M143.4,571.8c0,.2,0,.4,0,.6,0,.2,0,.4,0,.6,0,.2,0,.4,0,.5,0,.3,0,.6,0,1,0,.3,0,.7,0,1,0,.3,0,.7,0,1,0,.7.2,1.3.3,1.8.1.5.3.9.5,1.2.2.3.4.4.7.4s.3,0,.5-.3c.2-.2.3-.4.4-.7.1-.3.2-.6.3-.9.1-.3.2-.6.3-.9l1.4,1.7c-.3.8-.6,1.5-.9,1.9-.3.5-.6.8-.9,1-.3.2-.7.3-1.1.3s-1-.2-1.4-.5c-.4-.3-.8-.9-1.1-1.6-.3-.8-.5-1.8-.7-3,0-.4,0-.9-.1-1.4,0-.5,0-.9,0-1.4v-1.1c0-.2,0-.4,0-.7,0-.3,0-.5,0-.7h2.2ZM150.4,572.2c.3.3.5.7.8,1.2.2.5.5.9.7,1.5.2.5.4,1.1.5,1.6.2.5.3,1.1.4,1.6.1.5.2,1,.2,1.4l-1.8.7c0-.6-.1-1.2-.3-1.9-.1-.7-.3-1.3-.5-2-.2-.7-.5-1.3-.7-1.9-.3-.6-.6-1.1-1-1.6l1.8-.6Z"/>
  <path class="cls-1" d="M126.6,570.7c0,.3,0,.6-.1.9,0,.3,0,.6,0,.9,0,.4,0,.8,0,1.4,0,.5,0,1.1,0,1.7,0,.6,0,1.2,0,1.8,0,.6,0,1.1,0,1.5s0,.8.3,1.1c.2.3.4.5.7.6.3.1.6.2,1,.2.6,0,1.1,0,1.6-.2.5-.2.9-.4,1.3-.6.4-.3.7-.6,1.1-.9.3-.3.6-.7.9-1.1l1.3,1.5c-.2.3-.5.7-.9,1.1-.4.4-.8.7-1.3,1-.5.3-1.1.6-1.7.8-.7.2-1.4.3-2.2.3s-1.4-.1-2-.4c-.6-.2-1-.6-1.3-1.1-.3-.5-.5-1.2-.5-1.9s0-.8,0-1.3c0-.5,0-1,0-1.5,0-.5,0-1.1,0-1.6,0-.5,0-1,0-1.4,0-.4,0-.7,0-1s0-.7,0-1c0-.3,0-.6-.1-.9h2.3Z"/>
  <path class="cls-1" d="M111.4,574.6h5.2v1.6h-5.2v-1.6ZM103.8,571.3h6.3v1.4h-6.3v-1.4ZM103.6,576.9h6.4v1.4h-6.4v-1.4ZM103.6,574.5h6.6v1.4h-6.6v-1.4ZM113.6,575.3h1.6v7.8h-1.6v-7.8ZM106.1,570.1h1.6v1.9h-1.6v-1.9ZM106.1,575.8h1.6v7.3h-1.6v-7.3ZM110.6,571l2,.6c0,.1-.1.2-.3.2v4.1c0,.5,0,1.1,0,1.7,0,.6-.1,1.3-.3,1.9-.1.6-.4,1.3-.7,1.9-.3.6-.7,1.2-1.1,1.7,0-.1-.2-.3-.3-.4-.1-.1-.3-.3-.4-.4-.1-.1-.3-.2-.4-.3.4-.4.7-.9,1-1.4.2-.5.4-1,.5-1.6.1-.5.2-1.1.2-1.6,0-.5,0-1,0-1.5v-4.9ZM115.2,570.1l1.3,1.2c-.5.2-1,.4-1.6.6-.6.2-1.1.3-1.7.5-.6.1-1.1.2-1.7.3,0-.2-.1-.4-.2-.6-.1-.3-.2-.5-.3-.6.5-.1,1-.2,1.5-.4.5-.1,1-.3,1.4-.5.5-.2.8-.3,1.2-.5ZM107.6,578.4c.1,0,.3.2.4.3.2.1.4.3.6.5.2.2.4.3.6.5.2.1.3.2.4.3l-1,1.2c-.1-.1-.3-.3-.4-.5-.2-.2-.4-.4-.6-.6-.2-.2-.4-.4-.6-.6-.2-.2-.3-.3-.5-.4l.9-.7ZM104.5,572.9l1.3-.3c.1.3.2.5.3.9,0,.3.2.6.2.8l-1.4.4c0-.2,0-.5-.2-.8,0-.3-.2-.6-.3-.9ZM108,572.6l1.5.3c-.1.3-.3.6-.4.9-.1.3-.2.5-.3.7l-1.3-.3c0-.2.1-.3.2-.5,0-.2.1-.4.2-.6,0-.2.1-.4.1-.6ZM106.1,577.7l1.2.4c-.2.5-.5,1-.8,1.5-.3.5-.7,1-1,1.4-.4.4-.7.8-1.1,1.1-.1-.2-.3-.4-.5-.6-.2-.2-.4-.4-.6-.6.4-.2.7-.5,1.1-.9.4-.4.7-.8,1-1.2.3-.4.6-.8.8-1.3Z"/>
  <path class="cls-1" d="M91,572.1c.4,0,.9,0,1.4.1.5,0,1.1,0,1.6,0,.6,0,1.1,0,1.6,0,.5,0,1,0,1.3-.1v1.8c-.4,0-.9,0-1.4,0-.5,0-1,0-1.6,0s-1.1,0-1.6,0c-.5,0-1,0-1.4,0v-1.8ZM92.1,578c0,.2,0,.4-.1.6,0,.2,0,.4,0,.5s0,.3.1.4c0,.1.2.2.3.3.2,0,.4.1.6.2.3,0,.6,0,.9,0,.6,0,1.2,0,1.8,0,.6,0,1.1-.2,1.8-.3v1.9c-.4,0-.9.1-1.5.2-.6,0-1.3,0-2.1,0-1.2,0-2.1-.2-2.7-.6-.6-.4-.9-1-.9-1.7s0-.6,0-.8c0-.3.1-.6.2-1l1.6.2ZM88.8,571.1c0,0,0,.2-.1.4,0,.2,0,.3-.1.5,0,.2,0,.3,0,.4,0,.2,0,.5-.1.8,0,.3-.1.7-.2,1,0,.4-.1.8-.2,1.2,0,.4-.1.8-.1,1.2,0,.4,0,.7,0,1v.4c0,.2,0,.3,0,.5,0-.2.1-.3.2-.5,0-.2.1-.3.2-.5,0-.2.1-.3.2-.5l.9.7c-.1.4-.3.8-.4,1.2-.1.4-.3.9-.4,1.2-.1.4-.2.7-.2,1,0,.1,0,.2,0,.4,0,.1,0,.2,0,.3v.3c0,.1,0,.2,0,.3h-1.6c-.1-.4-.3-1-.4-1.8-.1-.8-.2-1.7-.2-2.6s0-1.1,0-1.6c0-.5.1-1.1.2-1.6,0-.5.1-1,.2-1.4,0-.4.1-.8.2-1,0-.2,0-.4,0-.7,0-.3,0-.5,0-.7l2,.2Z"/>
  <path class="cls-1" d="M67.7,581c.8,0,1.8,0,2.9,0,1.1,0,2.3,0,3.5-.1,1.2,0,2.4,0,3.6-.1v1.5c-1.2,0-2.4.1-3.5.2-1.2,0-2.3.1-3.3.2-1.1,0-2,.1-2.9.1l-.2-1.7ZM67.6,576.9h11.6v1.6h-11.6v-1.6ZM70.1,574.2h6.6v1.5h-6.6v-1.5ZM71,577.9l1.9.5c-.2.4-.4.9-.7,1.3-.2.4-.5.9-.7,1.3-.2.4-.4.8-.6,1.1l-1.5-.5c.2-.3.4-.7.6-1.2.2-.4.4-.9.6-1.3.2-.5.3-.9.4-1.3ZM74.5,579.3l1.5-.8c.4.4.8.8,1.2,1.2.4.4.8.8,1.1,1.3.3.4.6.8.8,1.2l-1.6,1c-.2-.4-.5-.8-.8-1.2-.3-.4-.7-.9-1.1-1.3-.4-.5-.8-.9-1.2-1.2ZM73.3,571.6c-.4.5-.9,1.1-1.4,1.6-.6.6-1.2,1.1-2,1.6-.7.5-1.5.9-2.2,1.3,0-.1-.1-.3-.3-.5-.1-.2-.2-.3-.4-.5-.1-.2-.2-.3-.4-.4.8-.4,1.6-.8,2.3-1.3.7-.5,1.4-1.1,2-1.7.6-.6,1.1-1.2,1.4-1.7h1.8c.4.5.8,1,1.2,1.5.5.5.9.9,1.5,1.3.5.4,1,.7,1.6,1,.6.3,1.1.5,1.7.7-.2.2-.4.4-.6.7-.2.3-.4.5-.5.8-.7-.3-1.4-.7-2.1-1.2-.7-.5-1.4-1-2-1.5-.6-.6-1.1-1.1-1.5-1.6Z"/>
  <path class="cls-1" d="M53.8,581h8v1.7h-8v-1.7ZM54.3,574.3h7.1v1.6h-7.1v-1.6ZM57,570.1h1.7v11.8h-1.7v-11.8ZM48.7,572.5h4.6v1.5h-4.6v-1.5ZM50.7,577.3l1.7-2v7.8h-1.7v-5.8ZM50.7,570h1.7v3.3h-1.7v-3.3ZM52.2,575.8c.1,0,.3.2.5.4.2.2.5.4.7.6.3.2.5.4.7.6.2.2.4.3.5.4l-1,1.4c-.1-.2-.3-.4-.5-.6-.2-.2-.4-.5-.6-.7-.2-.3-.4-.5-.7-.7-.2-.2-.4-.4-.5-.6l.9-.8ZM52.7,572.5h.6c0,0,.9.5.9.5-.3.9-.8,1.8-1.4,2.6-.6.8-1.2,1.6-1.8,2.2-.7.7-1.4,1.2-2.1,1.7,0-.1-.1-.3-.2-.5,0-.2-.2-.4-.3-.6,0-.2-.2-.3-.3-.5.6-.3,1.3-.8,1.8-1.3.6-.6,1.1-1.2,1.6-1.8.5-.7.8-1.3,1.1-2v-.3Z"/>
  <path class="cls-1" d="M41.3,573.7c-.2.1-.4.3-.7.4-.2.1-.5.2-.7.4-.2.1-.5.2-.8.4-.3.1-.6.3-1,.5-.4.2-.7.4-1.1.6-.4.2-.7.4-1,.6-.6.4-1,.8-1.4,1.2-.4.4-.5.9-.5,1.4s.2.9.7,1.1c.5.3,1.2.4,2.2.4s1,0,1.5,0c.6,0,1.1-.1,1.6-.2.5,0,1-.2,1.4-.3v2c-.4,0-.8.1-1.3.2-.5,0-1,0-1.5.1-.5,0-1.1,0-1.7,0s-1.3,0-1.9-.2c-.6-.1-1.1-.3-1.6-.5-.4-.2-.8-.6-1-1-.2-.4-.4-.9-.4-1.5s.1-1.1.4-1.6c.3-.5.6-.9,1.1-1.3.5-.4,1-.8,1.5-1.2.3-.2.7-.4,1.1-.6.4-.2.7-.4,1.1-.6.4-.2.7-.4,1-.5.3-.2.6-.3.8-.4.3-.2.5-.3.7-.4.2-.1.4-.3.6-.4l1,1.6ZM34.3,570.7c.2.6.5,1.2.7,1.8.3.6.5,1.1.8,1.6.3.5.5.9.7,1.3l-1.6.9c-.3-.4-.5-.9-.8-1.4-.3-.5-.5-1.1-.8-1.7-.3-.6-.5-1.2-.8-1.8l1.8-.7Z"/>
  <path class="cls-1" d="M17.2,570.3h1.9c0,.4,0,.9,0,1.5,0,.6-.1,1.3-.3,2.1-.1.7-.3,1.5-.6,2.4-.3.8-.6,1.6-1,2.5-.4.8-1,1.6-1.7,2.3-.7.7-1.5,1.4-2.4,2-.1-.2-.4-.4-.6-.7-.3-.2-.5-.5-.8-.7.9-.5,1.7-1.1,2.4-1.8.6-.7,1.2-1.4,1.6-2.1.4-.7.7-1.5.9-2.2.2-.8.4-1.5.5-2.1,0-.7.1-1.3.2-1.8,0-.5,0-1,0-1.3ZM19,570.7c0,.2,0,.5,0,.8,0,.4,0,.8.2,1.4,0,.5.2,1.1.4,1.7.2.6.4,1.3.7,1.9.3.7.6,1.3,1.1,1.9.4.6.9,1.2,1.6,1.7.6.5,1.3,1,2.2,1.4-.3.2-.5.4-.8.7-.2.3-.4.5-.5.7-.9-.4-1.6-.9-2.3-1.5-.6-.6-1.2-1.2-1.6-1.9-.4-.7-.8-1.4-1.1-2.1-.3-.7-.5-1.4-.7-2.1-.2-.7-.3-1.3-.4-1.9,0-.6-.2-1.1-.2-1.6,0-.4,0-.8,0-1l1.6-.2Z"/>
  <path class="cls-1" d="M287.6,554.8c-.3-.4-.6-.7-.9-1.1-.3-.4-.7-.7-1.1-1.1-.4-.4-.7-.7-1-1l1.5-1.3c.3.3.7.6,1.1,1,.4.4.7.7,1.1,1.1.4.4.6.7.9,1l-1.5,1.3Z"/>
  <path class="cls-1" d="M267.3,544.2c.3,0,.5,0,.8,0,.3,0,.4,0,.6,0,.3,0,.6,0,1.1,0,.4,0,.9,0,1.4-.1.5,0,1.1,0,1.7-.1.6,0,1.2,0,1.9-.2.5,0,1,0,1.4-.1.5,0,.9,0,1.4,0,.4,0,.8,0,1.1,0v1.8c-.2,0-.5,0-.9,0-.3,0-.7,0-1,0-.3,0-.6,0-.9.1-.4.1-.8.3-1.2.6-.4.3-.7.6-1,.9-.3.4-.5.7-.6,1.2-.1.4-.2.8-.2,1.2s0,.9.2,1.2c.2.3.4.6.7.9.3.2.6.4,1,.6.4.2.8.3,1.2.4.4,0,.9.1,1.4.2l-.7,1.9c-.6,0-1.2-.1-1.7-.3-.6-.1-1.1-.4-1.6-.6-.5-.3-.9-.6-1.3-1-.4-.4-.6-.8-.9-1.3-.2-.5-.3-1-.3-1.7s.1-1.3.3-1.8c.2-.6.5-1.1.8-1.5.3-.4.6-.8,1-1-.3,0-.6,0-1,.1-.4,0-.8,0-1.2.1-.4,0-.8,0-1.3.2-.4,0-.9.1-1.3.2-.4,0-.8.1-1.1.2l-.2-1.9ZM276.6,546.6c.1.2.2.4.4.6.1.2.3.5.4.7.1.2.2.4.3.6l-1.1.5c-.2-.4-.4-.7-.5-1-.2-.3-.4-.6-.6-.9l1-.4ZM278.2,545.9c.1.2.3.4.4.6.1.2.3.4.4.7.1.2.3.4.4.6l-1,.5c-.2-.4-.4-.7-.5-1-.2-.3-.4-.6-.6-.9l1-.5Z"/>
  <path class="cls-1" d="M261.3,544.4c0,0-.2.2-.3.4-.1.1-.2.3-.3.4-.2.4-.5.8-.9,1.3-.4.5-.7.9-1.2,1.4-.4.5-.9.8-1.3,1.2l-1.5-1.2c.3-.2.6-.4.8-.6.3-.2.5-.5.7-.7.2-.3.4-.5.6-.7.2-.2.3-.4.4-.6h-7.3c-.3,0-.6,0-.8,0-.3,0-.6,0-.9,0v-1.9c.3,0,.6,0,.8,0,.3,0,.6,0,.9,0h7.5c.1,0,.3,0,.5,0,.2,0,.4,0,.5,0,.2,0,.3,0,.4,0l1.1,1ZM255.6,546.3c0,.7,0,1.4,0,2s-.1,1.3-.2,1.9c-.1.6-.3,1.1-.6,1.7-.3.5-.6,1-1.1,1.5-.5.5-1.1.9-1.9,1.3l-1.6-1.3c.2,0,.5-.2.7-.3.3-.1.5-.3.8-.5.4-.3.8-.6,1.1-1,.3-.3.5-.7.6-1.1.1-.4.3-.9.3-1.3,0-.5,0-1,0-1.6s0-.4,0-.6c0-.2,0-.4,0-.6h2Z"/>
  <path class="cls-1" d="M232.2,543.3c.2,0,.5,0,.7,0,.3,0,.5,0,.8,0h4.6c.2,0,.5,0,.8,0,.3,0,.5,0,.8,0v1.8c-.2,0-.5,0-.8,0-.3,0-.5,0-.8,0h-4.6c-.2,0-.5,0-.8,0-.3,0-.5,0-.7,0v-1.8ZM230.6,546.9c.2,0,.4,0,.7,0,.2,0,.5,0,.7,0h9.2c.2,0,.4,0,.6,0,.3,0,.5,0,.7,0v1.8c-.2,0-.4,0-.6,0-.2,0-.5,0-.7,0h-9.2c-.2,0-.4,0-.7,0-.2,0-.5,0-.7,0v-1.8ZM237.8,547.8c0,.9,0,1.7-.2,2.5-.2.7-.4,1.4-.7,1.9-.2.3-.4.6-.7,1-.3.3-.6.7-1,1-.4.3-.8.6-1.2.8l-1.6-1.2c.5-.2,1-.5,1.4-.8.5-.4.8-.8,1.1-1.2.4-.5.6-1.1.7-1.8.1-.7.2-1.4.2-2.1h1.9ZM240.7,542.3c.1.2.2.4.4.6.1.2.3.5.4.7.1.2.2.4.3.6l-1.1.5c-.1-.3-.3-.6-.5-1-.2-.4-.4-.7-.6-1l1.1-.5ZM242.3,541.7c.1.2.3.4.4.6.1.2.3.5.4.7.1.2.3.4.3.6l-1.1.5c-.1-.3-.3-.6-.5-1-.2-.4-.4-.7-.6-.9l1.1-.5Z"/>
  <path class="cls-1" d="M212.1,548.4c1.3-.3,2.4-.7,3.4-1.1,1-.4,1.9-.9,2.7-1.4.5-.3,1-.6,1.5-1,.5-.4,1-.8,1.4-1.2.4-.4.8-.8,1.1-1.2l1.5,1.4c-.4.4-.9.8-1.4,1.3-.5.4-1,.8-1.6,1.2-.6.4-1.1.8-1.6,1.1-.5.3-1.1.6-1.8,1-.7.3-1.3.6-2.1.9-.7.3-1.5.5-2.2.8l-.9-1.8ZM218,546.8l2-.5v6.3c0,.2,0,.4,0,.7,0,.2,0,.5,0,.7,0,.2,0,.4,0,.5h-2.2c0-.1,0-.3,0-.5,0-.2,0-.4,0-.7,0-.2,0-.5,0-.7v-5.8Z"/>
  <path class="cls-1" d="M207,544.4c0,0-.2.2-.3.4-.1.1-.2.3-.3.4-.2.4-.5.8-.9,1.3-.4.5-.7.9-1.2,1.4-.4.5-.9.8-1.3,1.2l-1.5-1.2c.3-.2.6-.4.8-.6s.5-.5.7-.7c.2-.3.4-.5.6-.7.2-.2.3-.4.4-.6h-7.3c-.3,0-.6,0-.8,0-.3,0-.6,0-.9,0v-1.9c.3,0,.6,0,.8,0,.3,0,.6,0,.9,0h7.5c.1,0,.3,0,.5,0,.2,0,.4,0,.5,0,.2,0,.3,0,.4,0l1.1,1ZM201.3,546.3c0,.7,0,1.4,0,2s-.1,1.3-.2,1.9c-.1.6-.3,1.1-.6,1.7-.3.5-.6,1-1.1,1.5s-1.1.9-1.9,1.3l-1.6-1.3c.2,0,.5-.2.7-.3.3-.1.5-.3.8-.5.4-.3.8-.6,1.1-1,.3-.3.5-.7.6-1.1.1-.4.3-.9.3-1.3,0-.5,0-1,0-1.6s0-.4,0-.6c0-.2,0-.4,0-.6h2Z"/>
  <path class="cls-1" d="M186.9,545.7c-.2.1-.4.3-.7.4-.2.1-.5.2-.7.4-.2.1-.5.2-.8.4-.3.1-.6.3-1,.5-.4.2-.7.4-1.1.6-.4.2-.7.4-1,.6-.6.4-1.1.8-1.4,1.2-.4.4-.5.9-.5,1.4s.2.9.7,1.1c.5.3,1.2.4,2.2.4s1,0,1.5,0c.6,0,1.1-.1,1.6-.2.5,0,1-.2,1.4-.3v2c-.4,0-.8.1-1.3.2-.5,0-1,0-1.5.1-.5,0-1.1,0-1.7,0s-1.3,0-1.9-.2c-.6-.1-1.1-.3-1.6-.5-.4-.2-.8-.6-1-1-.2-.4-.4-.9-.4-1.5s.1-1.1.4-1.6c.3-.5.6-.9,1.1-1.3.5-.4,1-.8,1.5-1.2.3-.2.7-.4,1.1-.6.4-.2.7-.4,1.1-.6.4-.2.7-.4,1-.5.3-.2.6-.3.8-.4.3-.2.5-.3.7-.4.2-.1.4-.3.6-.4l1,1.6ZM179.9,542.7c.2.6.5,1.2.7,1.8.3.6.5,1.1.8,1.6.3.5.5.9.7,1.3l-1.6.9c-.3-.4-.5-.9-.8-1.4-.3-.5-.5-1.1-.8-1.7-.3-.6-.5-1.2-.8-1.8l1.8-.7Z"/>
  <path class="cls-1" d="M157.8,545.9h12.2v1.4h-12.2v-1.4ZM158.8,543.4h7.9v1.4h-7.9v-1.4ZM162.1,541.9h1.7v4.6h-1.7v-4.6ZM167.5,547.9l1,1.1c-.6.2-1.3.3-2.1.4-.8.1-1.5.2-2.4.3-.8,0-1.6.1-2.3.2,0-.2,0-.3-.2-.6,0-.2-.1-.4-.2-.6.5,0,1.1,0,1.6-.1.6,0,1.1-.1,1.7-.2.5,0,1.1-.2,1.5-.2.5,0,.9-.2,1.3-.3ZM168.1,542.5l1.4.7c-.9,1.2-2,2.3-3.2,3.3-1.2,1-2.5,1.9-3.9,2.7-1.4.8-2.8,1.5-4.2,2,0-.1-.2-.3-.3-.4-.1-.2-.3-.3-.4-.5-.1-.2-.2-.3-.3-.4,1.4-.5,2.8-1.1,4.2-1.8,1.4-.7,2.6-1.6,3.8-2.5,1.2-.9,2.2-2,3-3.1ZM161,548l1.7.2c-.1.5-.2,1-.4,1.5-.1.5-.3,1.1-.4,1.6-.1.5-.2.9-.4,1.3l-1.7-.2c.1-.4.2-.8.4-1.3.1-.5.3-1,.4-1.6.1-.5.2-1,.3-1.5ZM166.9,550.6h1.7s0,0,0,.1c0,0,0,.2,0,.3,0,.1,0,.2,0,.3-.1.6-.2,1.2-.3,1.6-.1.4-.2.8-.4,1.1-.1.3-.3.5-.4.6-.2.2-.4.3-.6.4-.2,0-.5.1-.8.1-.2,0-.5,0-.9,0s-.8,0-1.2,0c0-.2,0-.5-.2-.8,0-.3-.2-.5-.4-.8.4,0,.8,0,1.2,0,.4,0,.7,0,.9,0s.3,0,.4,0c0,0,.2,0,.3-.1.2-.1.3-.4.5-.8.1-.4.3-1.1.4-1.9v-.2ZM161.3,550.6h6v1.4h-6.4l.4-1.4Z"/>
  <path class="cls-1" d="M142.6,550.6h1.7v2.3c0,.2,0,.3.1.4.1,0,.3,0,.7,0h2c.2,0,.3,0,.4,0,.1,0,.2-.2.2-.5,0-.2,0-.6.1-1.1.1,0,.3.2.4.3.2,0,.4.2.6.2.2,0,.4.1.5.2,0,.7-.2,1.2-.3,1.5-.1.4-.4.6-.7.8-.3.1-.7.2-1.2.2h-2.3c-.6,0-1.1,0-1.4-.2-.3-.1-.6-.3-.7-.6-.1-.3-.2-.7-.2-1.2v-2.3ZM143.9,550.1l1.1-1c.3.2.7.3,1,.6.4.2.7.4,1,.7.3.2.6.5.8.7l-1.2,1.1c-.2-.2-.4-.4-.7-.7-.3-.3-.6-.5-1-.7-.3-.2-.7-.4-1-.6ZM148.8,550.7l1.5-.6c.3.3.5.7.8,1.1.3.4.5.8.7,1.2.2.4.3.7.4,1.1l-1.6.7c0-.3-.2-.7-.4-1.1-.2-.4-.4-.8-.6-1.2-.2-.4-.5-.8-.7-1.2ZM140.6,550.2l1.5.5c-.1.4-.2.8-.4,1.2-.1.4-.3.8-.5,1.2-.2.4-.4.7-.6,1.1l-1.5-.8c.2-.3.4-.6.6-1,.2-.4.4-.7.5-1.1.2-.4.3-.8.4-1.2ZM142.1,546.5v1.2h6.8v-1.2h-6.8ZM142.1,544v1.2h6.8v-1.2h-6.8ZM140.5,542.5h10.1v6.7h-10.1v-6.7ZM144.7,543.2h1.6v5.4h-1.6v-5.4Z"/>
  <path class="cls-1" d="M131.2,542.4c.1.2.2.4.4.6.1.2.3.5.4.7.1.2.2.4.3.6l-1.1.5c-.1-.3-.3-.6-.5-1-.2-.4-.4-.7-.6-1l1.1-.4ZM132.8,541.7c.1.2.3.4.4.6.1.2.3.5.4.7.1.2.2.4.3.6l-1.1.5c-.1-.3-.3-.6-.5-1-.2-.4-.4-.7-.6-.9l1.1-.4ZM132.4,545.5c0,.1-.2.3-.3.5,0,.2-.2.4-.2.5-.1.4-.3.9-.5,1.4-.2.5-.5,1.1-.8,1.6-.3.6-.7,1.1-1.1,1.6-.7.8-1.4,1.5-2.3,2.2-.9.7-2,1.2-3.3,1.8l-1.7-1.5c1-.3,1.8-.6,2.5-1,.7-.4,1.3-.8,1.8-1.2.5-.4,1-.9,1.4-1.3.3-.4.6-.8.9-1.2.3-.5.5-.9.7-1.4.2-.5.3-.9.4-1.2h-4.7l.6-1.6h4c.2,0,.4,0,.7,0,.2,0,.4,0,.6-.1l1.4.9ZM127.9,543.2c-.2.2-.3.5-.5.8-.2.3-.3.5-.4.6-.3.6-.7,1.1-1.2,1.8-.5.6-1,1.2-1.6,1.8-.6.6-1.2,1.1-1.9,1.5l-1.6-1.2c.6-.4,1.2-.8,1.6-1.2.5-.4.9-.8,1.2-1.2.3-.4.6-.8.9-1.1.3-.4.5-.7.6-1,.1-.2.2-.4.3-.7.1-.3.2-.6.3-.8l2.1.7Z"/>
  <path class="cls-1" d="M105.3,543.2c.2.2.5.4.9.6.3.2.7.5,1,.8.4.3.7.6,1,.8.3.3.6.5.8.7l-1.4,1.5c-.2-.2-.4-.4-.7-.7-.3-.3-.6-.6-.9-.8-.3-.3-.7-.6-1-.8-.3-.3-.6-.5-.9-.7l1.3-1.4ZM103.5,552.5c.7-.1,1.4-.2,2.1-.4.6-.2,1.2-.4,1.8-.6.6-.2,1.1-.5,1.5-.8.8-.5,1.5-1,2.2-1.6.7-.6,1.2-1.2,1.7-1.9.5-.7.9-1.3,1.2-1.9l1.1,2c-.4.6-.8,1.3-1.3,1.9-.5.6-1.1,1.2-1.8,1.8-.7.6-1.4,1.1-2.1,1.5-.5.3-1,.6-1.5.8-.6.3-1.1.5-1.8.7-.6.2-1.2.4-1.9.5l-1.2-1.8Z"/>
  <path class="cls-1" d="M85.1,549.9c.6-.1,1.2-.3,1.8-.5.6-.2,1.2-.5,1.8-.7.6-.3,1-.5,1.4-.7.5-.3.9-.6,1.3-.9.4-.4.9-.7,1.2-1.1.4-.4.7-.7.9-1l1.4,1.4c-.3.3-.6.6-1.1,1-.4.4-.9.7-1.4,1.1-.5.4-1,.7-1.5,1-.3.2-.7.4-1.1.6-.4.2-.8.4-1.3.6-.4.2-.9.4-1.4.5-.4.2-.9.3-1.3.4l-.8-1.7ZM89.9,548.9l1.9-.4v5.5c0,.2,0,.4,0,.6,0,.2,0,.3,0,.4h-2.1c0,0,0-.2,0-.4,0-.2,0-.4,0-.6,0-.2,0-.4,0-.5v-4.6Z"/>
  <path class="cls-1" d="M68.9,543.1c.2,0,.5,0,.8,0,.3,0,.5,0,.7,0h5.6c.2,0,.5,0,.8,0,.3,0,.5,0,.8,0v1.8c-.2,0-.5,0-.8,0-.3,0-.5,0-.8,0h-5.6c-.2,0-.5,0-.8,0-.3,0-.5,0-.7,0v-1.8ZM67.3,546.7c.2,0,.4,0,.7,0,.2,0,.5,0,.7,0h9.2c.1,0,.3,0,.6,0,.3,0,.5,0,.7,0v1.8c-.2,0-.4,0-.6,0-.2,0-.5,0-.7,0h-9.2c-.2,0-.4,0-.7,0-.2,0-.5,0-.7,0v-1.8ZM74.4,547.7c0,.9,0,1.7-.2,2.5-.2.7-.4,1.4-.7,1.9-.2.3-.4.6-.7,1-.3.3-.6.7-1,1-.4.3-.8.6-1.2.8l-1.6-1.2c.5-.2,1-.5,1.4-.8.5-.4.8-.8,1.1-1.2.4-.5.6-1.1.7-1.8s.2-1.4.2-2.1h1.9Z"/>
  <path class="cls-1" d="M54.3,542.9c0,.2-.2.4-.3.6,0,.2-.2.4-.2.5,0,.2-.2.5-.3.8-.1.3-.2.6-.4.9-.1.3-.2.6-.4.8-.2.4-.4.7-.7,1.1-.3.4-.5.8-.8,1.2-.3.4-.6.7-.9,1l-1.8-1.1c.3-.2.5-.4.7-.6.2-.2.5-.5.7-.8.2-.3.4-.5.6-.8.2-.3.3-.5.5-.7.2-.3.3-.6.5-1,.1-.3.3-.6.3-.9,0-.2.1-.5.2-.7,0-.3,0-.5,0-.7l2.2.4ZM52.1,545h7.4c.2,0,.4,0,.7,0,.3,0,.5,0,.8,0v1.9c-.3,0-.5,0-.8,0-.3,0-.5,0-.6,0h-7.5l.2-1.8ZM57.5,546c0,1-.1,2-.3,2.9-.2.9-.5,1.6-.8,2.3-.4.7-.8,1.3-1.3,1.9-.5.6-1.1,1-1.8,1.5l-1.9-1.3c.3-.1.5-.2.7-.3.2-.1.4-.3.6-.4.4-.3.8-.7,1.1-1.1.3-.4.6-.9.9-1.4.3-.5.5-1.1.6-1.8.2-.7.2-1.4.3-2.3h1.9Z"/>
  <path class="cls-1" d="M31,547.4c.2,0,.4,0,.6,0,.3,0,.5,0,.8,0,.3,0,.6,0,.8,0h7.5c.3,0,.6,0,.9,0,.3,0,.5,0,.7,0v2.2c-.2,0-.4,0-.7,0-.3,0-.6,0-.9,0h-7.5c-.4,0-.8,0-1.2,0-.4,0-.8,0-1,0v-2.2Z"/>
  <path class="cls-1" d="M24.7,545c-.1.1-.2.2-.3.3,0,0-.1.2-.2.3-.3.4-.6.9-1,1.5-.4.5-.8,1.1-1.3,1.6-.5.5-1,1-1.5,1.5-.5.5-1,.9-1.6,1.3l-1.4-1.3c.5-.3.9-.7,1.3-1.1.4-.4.8-.8,1.2-1.2.4-.4.7-.8,1-1.2.3-.4.5-.7.7-1.1h-7.4c-.2,0-.4,0-.6,0-.2,0-.4,0-.6,0-.2,0-.3,0-.4,0v-2c.1,0,.3,0,.5,0,.2,0,.4,0,.6,0,.2,0,.4,0,.5,0h7.8c.6,0,1,0,1.3-.2l1.4,1.1ZM17.3,551.7c-.2-.2-.4-.4-.7-.7-.3-.3-.5-.5-.8-.8-.3-.3-.6-.5-.8-.7-.3-.2-.5-.4-.7-.6l1.5-1.2c.2.1.4.3.7.5.3.2.5.4.8.7.3.2.6.5.9.8.3.3.6.5.9.8.3.3.6.6,1,1,.3.3.7.7,1,1,.3.3.6.6.8.9l-1.6,1.3c-.2-.3-.4-.6-.8-.9-.3-.4-.6-.7-1-1.1-.3-.4-.7-.7-1-1Z"/>
</svg>