<svg width="8" height="10" viewBox="0 0 8 10" fill="none" xmlns="http://www.w3.org/2000/svg">
<path fill-rule="evenodd" clip-rule="evenodd" d="M7.37765 4.22206C7.80759 4.56872 7.87509 5.19827 7.52843 5.62821L4.78131 9.03524C4.59159 9.27054 4.30562 9.4074 4.00336 9.40755C3.7011 9.40771 3.41499 9.27114 3.22502 9.03603L0.472141 5.629C0.12504 5.19942 0.191903 4.5698 0.621484 4.2227C1.05106 3.8756 1.68069 3.94246 2.02779 4.37204L4.00203 6.81541L5.9715 4.37284C6.31816 3.9429 6.94772 3.87539 7.37765 4.22206Z" fill="white"/>
<path fill-rule="evenodd" clip-rule="evenodd" d="M4 0.333496C4.55228 0.333496 5 0.781211 5 1.3335L5 7.75016C5 8.30245 4.55228 8.75016 4 8.75016C3.44771 8.75016 3 8.30245 3 7.75016L3 1.3335C3 0.781211 3.44772 0.333496 4 0.333496Z" fill="white"/>
</svg>
