<?xml version="1.0" encoding="UTF-8"?>
<svg id="_レイヤー_1" data-name=" レイヤー 1" xmlns="http://www.w3.org/2000/svg" version="1.1" viewBox="0 0 16 13.9">
  <defs>
    <style>
      .cls-1 {
        fill: #fff;
        stroke-width: 0px;
      }
    </style>
  </defs>
  <path class="cls-1" d="M14,13.9H1.9c-1.1,0-1.9-.9-1.9-1.9V1.9C0,.9.9,0,1.9,0h5.6V2H1.9v10h12.1v-4.5h1.9v4.6c0,1.1-.9,1.9-1.9,1.9h0Z"/>
  <path class="cls-1" d="M15.7,1.1v-.4h0q0-.1-.2-.2s-.1,0-.2,0h-3.9c-.4,0-.8.2-.9.6-.2.4,0,.8.2,1.1l.8.8-4.7,3.9c-.4.4-.5,1,0,1.4.2.2.5.4.8.4s.5,0,.6-.2l4.8-4,1.3,1.3c.2.2.4.3.7.3h.4c.4-.2.6-.5.6-.9V1.3h0c0-.1-.2-.2-.2-.2Z"/>
</svg>