<?xml version="1.0" encoding="UTF-8"?>
<svg id="_レイヤー_1" data-name="レイヤー 1" xmlns="http://www.w3.org/2000/svg" version="1.1" viewBox="0 0 16 13.9">
  <defs>
    <style>
      .cls-1 {
        fill: #000;
        stroke-width: 0px;
      }
    </style>
  </defs>
  <path class="cls-1" d="M14,13.9H1.9c-1.1,0-1.9-.9-1.9-1.9V1.9C0,.9.9,0,1.9,0h5.6v2H1.9v10c0,0,12.1,0,12.1,0v-4.5c0,0,1.9,0,1.9,0v4.6c0,1.1-.9,1.9-1.9,1.9Z"/>
  <path class="cls-1" d="M15.7,1.1c0,0,0-.2,0-.2,0,0,0-.1,0-.2,0,0,0,0,0-.1,0,0,0,0,0,0,0,0,0,0-.2-.1,0,0-.1,0-.2-.1,0,0-.1,0-.2,0,0,0-.1,0-.2,0,0,0,0,0,0,0h-3.5c-.4,0-.8.2-.9.6-.2.4,0,.8.2,1.1l.8.8-4.7,3.9c-.4.4-.5,1-.1,1.4.2.2.5.4.8.4s.5,0,.6-.2l4.8-4,1.3,1.3c.2.2.4.3.7.3s.3,0,.4,0c.4-.2.6-.5.6-.9V1.3s0,0,0-.1Z"/>
</svg>