<?xml version="1.0" encoding="UTF-8"?>
<svg id="_レイヤー_1" data-name="レイヤー 1" xmlns="http://www.w3.org/2000/svg" version="1.1" viewBox="0 0 16 10">
  <defs>
    <style>
      .cls-1 {
        fill: #000;
        stroke-width: 0px;
      }
    </style>
  </defs>
  <path class="cls-1" d="M15.9,5.3s0,0,0,0c0-.1,0-.2,0-.4s0-.2,0-.4c0,0,0,0,0,0,0-.1-.1-.2-.2-.3,0,0,0,0,0,0,0,0,0,0,0,0L10,.2c-.5-.3-1.1-.2-1.4.2-.3.5-.2,1.1.2,1.4l3,2.1H1c-.6,0-1,.4-1,1s.4,1,1,1h10.9l-3,2.1c-.5.3-.6.9-.2,1.4.2.3.5.4.8.4s.4,0,.6-.2l5.6-3.9s0,0,0,0c0,0,0,0,0,0,0,0,.1-.2.2-.3Z"/>
</svg>