<?xml version="1.0" encoding="UTF-8"?>
<svg id="_レイヤー_1" data-name="レイヤー 1" xmlns="http://www.w3.org/2000/svg" version="1.1" viewBox="0 0 10 16">
  <defs>
    <style>
      .cls-1 {
        fill: #fff;
        stroke-width: 0px;
      }
    </style>
  </defs>
  <path class="cls-1" d="M9.7,6L5.7.4s0,0,0,0c0,0,0,0,0,0,0,0-.2-.1-.3-.2,0,0,0,0,0,0C5.2,0,5.1,0,4.9,0h0c-.1,0-.2,0-.4,0,0,0,0,0,0,0-.1,0-.2.1-.3.2,0,0,0,0,0,0,0,0,0,0,0,.1L.2,6c-.3.5-.2,1.1.2,1.4.2.1.4.2.6.2.3,0,.6-.1.8-.4l2.1-3v10.8c0,.6.4,1,1,1s1-.4,1-1V4.2l2.1,3c.3.5.9.6,1.4.2.5-.3.6-.9.2-1.4Z"/>
</svg>