<svg width="270" height="37" viewBox="0 0 270 37" fill="none" xmlns="http://www.w3.org/2000/svg">
<g clip-path="url(#clip0_1_959)">
<path d="M207.221 13.8052H202.617V36.4222H207.221V13.8052Z" fill="black"/>
<path d="M179.016 37.0001C172.468 37.0001 167.129 31.5784 167.129 24.9055C167.129 18.2327 172.458 12.811 179.016 12.811C185.575 12.811 190.903 18.2327 190.903 24.9055C190.903 31.5784 185.575 37.0001 179.016 37.0001ZM179.016 17.5055C175.001 17.5055 171.732 20.8313 171.732 24.9162C171.732 29.0012 175.001 32.3269 179.016 32.3269C183.031 32.3269 186.3 29.0012 186.3 24.9162C186.3 20.8313 183.031 17.5055 179.016 17.5055Z" fill="black"/>
<path d="M204.92 6.11676C206.58 6.11676 207.926 4.74748 207.926 3.05838C207.926 1.36928 206.58 0 204.92 0C203.26 0 201.914 1.36928 201.914 3.05838C201.914 4.74748 203.26 6.11676 204.92 6.11676Z" fill="black"/>
<path d="M5.33335 13.8052H0.65625V36.4222H5.33335V13.8052Z" fill="black"/>
<path d="M32.4253 13.3137C30.1656 13.3137 28.1056 13.9981 26.4029 15.2707V13.8163H21.957V36.4334H26.6341V24.1464C26.7287 22.5958 27.2437 21.0987 28.1266 19.9972C29.1881 18.6712 30.6281 18.0082 32.4253 18.0082C35.4628 18.0082 37.2811 19.8796 37.2811 23.0236V36.4441H41.8846V23.0236C41.8846 17.3131 37.9958 13.3244 32.4253 13.3244V13.3137Z" fill="black"/>
<path d="M3.00596 6.11676C4.6661 6.11676 6.01191 4.74748 6.01191 3.05838C6.01191 1.36928 4.6661 0 3.00596 0C1.34581 0 0 1.36928 0 3.05838C0 4.74748 1.34581 6.11676 3.00596 6.11676Z" fill="black"/>
<path d="M134.602 13.7734L144.313 36.444H148.864L159.374 13.7734H154.287L146.667 30.2203L139.615 13.7734H134.602Z" fill="black"/>
<path d="M237.094 30.0064C235.77 31.4287 233.91 32.3162 231.829 32.3162C227.814 32.3162 224.545 28.9905 224.545 24.9055C224.545 20.8206 227.814 17.4949 231.829 17.4949C233.899 17.4949 235.759 18.3931 237.094 19.8047V14.0729C235.507 13.2709 233.72 12.811 231.829 12.811C225.281 12.811 219.941 18.2327 219.941 24.9055C219.941 31.5784 225.27 37.0001 231.829 37.0001C233.72 37.0001 235.497 36.5402 237.094 35.7382V30.0064Z" fill="black"/>
<path d="M67.7149 13.463H62.1549V4.29858H57.5619V13.463H54.125V18.1362H57.5619V36.4223H62.1549V18.1362H67.7149V13.463Z" fill="black"/>
<path d="M124.452 19.4516L124.536 19.3767L126.333 14.9923C124.788 13.9443 122.528 13.1423 119.848 13.9016C118.472 14.2972 117.252 14.9923 116.18 15.8906V13.7946H111.734V36.4117H116.338V25.2261C116.811 21.6224 118.545 19.1308 121.099 18.4036C123.022 17.8475 124.315 19.2805 124.452 19.4409V19.4516Z" fill="black"/>
<path d="M93.9593 29.7068C92.9924 30.9152 91.1951 32.316 88.0105 32.316C83.2283 32.316 81.6412 28.8513 81.389 26.5629H99.3301V24.2316C99.3406 24.0285 99.3301 19.1629 96.0719 15.8264C94.117 13.8374 91.5104 12.8215 88.2943 12.8215C80.3695 12.8215 76.7539 19.612 76.7539 25.9106C76.7539 31.2895 80.6953 36.9999 88.0105 36.9999C94.159 36.9999 97.186 33.4496 98.4683 31.2574L93.9593 29.7068ZM88.3048 17.5053C92.3092 17.5053 93.8332 19.9114 94.4113 21.8897H82.0616C82.8709 19.7082 84.6051 17.5053 88.3048 17.5053Z" fill="black"/>
<path d="M264.619 29.707C263.653 30.9154 261.855 32.3163 258.671 32.3163C253.888 32.3163 252.301 28.8515 252.049 26.5631H269.99V24.2319C270.001 24.0287 269.99 19.1631 266.732 15.8267C264.777 13.8377 262.171 12.8218 258.954 12.8218C251.03 12.8218 247.414 19.6122 247.414 25.9108C247.414 31.2897 251.355 37.0001 258.671 37.0001C264.819 37.0001 267.846 33.4498 269.128 31.2576L264.619 29.707ZM258.954 17.5056C262.959 17.5056 264.483 19.9117 265.061 21.89H252.711C253.521 19.7085 255.255 17.5056 258.954 17.5056Z" fill="black"/>
</g>
<defs>
<clipPath id="clip0_1_959">
<rect width="270" height="37" fill="white"/>
</clipPath>
</defs>
</svg>
