<?xml version="1.0" encoding="UTF-8"?>
<svg id="_レイヤー_1" data-name="レイヤー 1" xmlns="http://www.w3.org/2000/svg" version="1.1" viewBox="0 0 147.8 154.2">
  <defs>
    <style>
      .cls-1 {
        fill: #000;
      }

      .cls-1, .cls-2 {
        stroke-width: 0px;
      }

      .cls-2 {
        fill: #fff;
      }
    </style>
  </defs>
  <path class="cls-2" d="M127,85.4c10.5,0,19-8.5,19-19s-8.5-19-19-19-19,8.5-19,19,8.5,19,19,19Z"/>
  <path class="cls-2" d="M9.7,114c4.5,0,8.1-3.6,8.1-8.1s-3.6-8.1-8.1-8.1-8.1,3.6-8.1,8.1,3.6,8.1,8.1,8.1Z"/>
  <path class="cls-1" d="M136.7,48.2c-4.8-2.6-10.7-3.1-16.1-1.4-5.4,1.7-9.8,5.5-12.1,10.4-4.7,8.7-11.6,16.3-18.3,20.5-5.8,3.7-12.1,4.7-18.2,3.1h0c-1.6-.4-3.2-.8-4.7-1.4,0,0,0,0,.1-.1,2.6-3.2,4.9-6.4,6.8-9.6,4.3-7.4,7.3-14.4,9.2-21.3,3.5-12.9,2.8-30.5-9.8-41.2C64.3-.9,50.1-2.3,39.1,3.7c-6.5,3.5-11.5,8.5-16,16.4-10,16.9-11.6,38.1-4.3,56.7,1.3,3.5,3,7,5,10.3-5.3,3.4-11.1,6.6-17.4,9.5-1.9.8-3.4,2-4.5,3.6C.7,101.8,0,103.8,0,105.9c0,5.4,4.4,9.7,9.7,9.7s.7,0,1.1,0c.8,0,1.7-.3,2.5-.5l1.4-.5s.2,0,.5-.2h0l.8-.3c8-3.2,15.2-6.7,21.8-10.5,8.8,7.5,19.2,12.7,30.2,15,3.8.8,7.8,1.2,11.8,1.2,10.2,0,20.8-2.7,30.1-7.9,13.9-7.7,26.5-20.4,35.6-35.8,5.3-10.1,1.5-22.6-8.6-27.9h0ZM127,49.1c9.6,0,17.4,7.8,17.4,17.4s-7.8,17.4-17.4,17.4-17.4-7.8-17.4-17.4,7.8-17.4,17.4-17.4ZM49.5,62.9c-4.6-9.8-4.2-21.4,1.2-30.9,1.2-2.1,2.9-3.6,4.3-3.6h0c1.2,0,2,1.3,2.5,2.3,1.2,2.6,1.4,7,.5,11.7-.9,4.6-2.8,9.8-5.6,15.3-.9,1.8-1.9,3.5-2.9,5.1h0ZM50.6,66.9l.3-.4c1.6-2.3,3.1-4.8,4.3-7.3,2.9-5.8,4.9-11.2,5.9-16.1.5-2.5,1.5-9-.7-13.6-1.6-3.5-4-4.1-5.2-4.2-2.6,0-5.5,2-7.3,5.2-6.2,10.9-6.3,24.3-.4,35.3-5.4,7.1-12.4,13.6-21.1,19.5-1.9-3.1-3.4-6.3-4.7-9.7-6.9-17.7-5.4-37.9,4.1-54,4.2-7.3,8.8-12,14.8-15.2,9.9-5.4,22.6-4.2,30.9,3,7.6,6.4,13.8,19.8,8.8,38-1.8,6.7-4.7,13.4-8.9,20.5-1.8,3.1-4,6.2-6.5,9.2-10.9,12.9-25.8,23.3-45.4,31.8-.3.1-.7-.2-.6-.5.2-.9.4-1.7.4-2.7,0-3.9-2.3-7.2-5.6-8.8-.3-.2-.3-.6,0-.7,16.1-8.3,28.4-18.2,36.8-29.5h0ZM7.1,111.8c-1.6-.8-2.8-2.1-3.5-3.8-.7-2-.4-4.2.7-6,1.2-1.6,3.1-2.7,5.3-2.7,3.6,0,6.6,2.9,6.6,6.6s-2.5,6-5.6,6.5c-1.2.1-2.4,0-3.5-.6h0ZM108.2,109.1c-12.3,6.8-26.7,9.1-39.7,6.3-10.1-2.1-19.7-6.8-28-13.6,9.6-5.9,17.7-12.4,24.4-19.9,2,.8,4,1.5,6.2,2,7,1.9,14.2.7,20.7-3.5,4.8-3,9.7-7.7,13.8-13.2.2-.3.7-.2.8.2,0,.8.1,1.7.3,2.4,1.7,9.7,10.1,17.1,20.3,17.1s4.8-.4,7-1.2c.4-.1.7.3.5.7-7.6,9.5-16.6,17.4-26.2,22.7h0Z"/>
  <path class="cls-1" d="M113.4,141.7h-2.5v12.2h2.5v-12.2Z"/>
  <path class="cls-1" d="M98,154.2c-3.6,0-6.5-2.9-6.5-6.5s2.9-6.5,6.5-6.5,6.5,2.9,6.5,6.5-2.9,6.5-6.5,6.5ZM98,143.7c-2.2,0-4,1.8-4,4s1.8,4,4,4,4-1.8,4-4-1.8-4-4-4Z"/>
  <path class="cls-1" d="M112.1,137.6c.9,0,1.6-.7,1.6-1.6s-.7-1.6-1.6-1.6-1.6.7-1.6,1.6.7,1.6,1.6,1.6Z"/>
  <path class="cls-1" d="M2.9,141.7H.4v12.2h2.6v-12.2Z"/>
  <path class="cls-1" d="M17.7,141.4c-1.2,0-2.4.4-3.3,1.1v-.8h-2.4v12.2h2.6v-6.6c0-.8.3-1.6.8-2.2.6-.7,1.4-1.1,2.4-1.1,1.7,0,2.7,1,2.7,2.7v7.2h2.5v-7.2c0-3.1-2.1-5.2-5.2-5.2h0Z"/>
  <path class="cls-1" d="M1.6,137.6c.9,0,1.6-.7,1.6-1.6s-.7-1.6-1.6-1.6-1.6.7-1.6,1.6.7,1.6,1.6,1.6Z"/>
  <path class="cls-1" d="M73.7,141.7l5.3,12.2h2.5l5.8-12.2h-2.8l-4.2,8.8-3.8-8.8h-2.7Z"/>
  <path class="cls-1" d="M129.7,150.4c-.7.8-1.7,1.2-2.9,1.2-2.2,0-4-1.8-4-4s1.8-4,4-4,2.2.5,2.9,1.2v-3.1c-.9-.4-1.8-.7-2.9-.7-3.6,0-6.5,2.9-6.5,6.5s2.9,6.5,6.5,6.5,2-.2,2.9-.7v-3.1Z"/>
  <path class="cls-1" d="M37.1,141.5h-3v-4.9h-2.5v4.9h-1.9v2.5h1.9v9.8h2.5v-9.8h3v-2.5Z"/>
  <path class="cls-1" d="M68.1,144.7h0s1-2.4,1-2.4c-.8-.6-2.1-1-3.5-.6-.8.2-1.4.6-2,1.1v-1.1h-2.4v12.2h2.5v-6c.3-1.9,1.2-3.3,2.6-3.7,1.1-.3,1.8.5,1.8.6h0Z"/>
  <path class="cls-1" d="M51.4,150.2c-.5.6-1.5,1.4-3.3,1.4-2.6,0-3.5-1.9-3.6-3.1h9.8v-1.3c0-.1,0-2.7-1.8-4.5-1.1-1.1-2.5-1.6-4.3-1.6-4.3,0-6.3,3.6-6.3,7s2.2,6,6.2,6,5-1.9,5.7-3.1l-2.5-.8h0ZM48.3,143.7c2.2,0,3,1.3,3.3,2.4h-6.8c.4-1.2,1.4-2.4,3.4-2.4h0Z"/>
  <path class="cls-1" d="M144.8,150.2c-.5.6-1.5,1.4-3.2,1.4-2.6,0-3.5-1.9-3.6-3.1h9.8v-1.3c0-.1,0-2.7-1.8-4.5-1.1-1.1-2.5-1.6-4.3-1.6-4.3,0-6.3,3.6-6.3,7s2.2,6,6.2,6,5-1.9,5.7-3.1l-2.5-.8h0ZM141.7,143.7c2.2,0,3,1.3,3.3,2.4h-6.8c.4-1.2,1.4-2.4,3.4-2.4h0Z"/>
</svg>