<svg width="131" height="77" viewBox="0 0 131 77" fill="none" xmlns="http://www.w3.org/2000/svg">
<path d="M130.997 26.7534C128.387 21.8617 125.063 17.1568 121.108 12.8192C106.282 -3.44377 75.1781 -3.34896 61.0604 8.132C59.748 9.19862 58.5041 10.3452 57.3643 11.5333C52.8231 16.2679 49.6181 22.0277 47.8385 28.6555C47.4903 29.9473 46.8296 31.085 45.9518 32.0005C44.3715 33.6479 42.089 34.5752 39.6786 34.3767C35.2712 34.0153 30.2152 34.5752 24.6532 36.0389C18.8651 37.5647 13.568 40.7024 9.33627 45.117C0.801386 54.0173 -2.20725 66.5323 1.66737 77L131 26.7563L130.997 26.7534Z" fill="#E0512E"/>
</svg>
