<svg width="87" height="92" viewBox="0 0 87 92" fill="none" xmlns="http://www.w3.org/2000/svg">
<path d="M2 81.2489C2.05701 81.3059 2.05699 81.4166 2.114 81.4736C2.17101 81.5306 2.29175 81.5206 2.34876 81.5776C2.40576 81.6346 2.42589 81.7251 2.4829 81.7821C2.5399 81.8391 2.6338 81.8559 2.6908 81.9129C2.74781 81.9699 2.81485 82.0135 2.87185 82.0705C2.92886 82.1275 2.91882 82.2516 2.97918 82.3052C3.03954 82.3589 3.07306 82.4394 3.13006 82.4964C3.18707 82.5534 3.3212 82.5232 3.38156 82.5802C3.44192 82.6372 3.50229 82.6875 3.5593 82.7412C3.6163 82.7948 3.65653 82.872 3.71689 82.9222C3.77725 82.9725 3.84769 83.0161 3.9047 83.0698C3.96171 83.1234 4.00529 83.1939 4.06565 83.2475C4.12601 83.3012 4.20648 83.328 4.26684 83.3817C4.3272 83.4353 4.33727 83.5426 4.40098 83.5963C4.4647 83.6499 4.53846 83.6801 4.60217 83.7304C4.66589 83.7807 4.75979 83.7908 4.8235 83.8411C4.88722 83.8914 4.93749 83.9551 5.0012 84.0054C5.06491 84.0557 5.10515 84.1294 5.16886 84.1797C5.23258 84.23 5.24936 84.334 5.31307 84.3843C5.37679 84.4346 5.48407 84.4279 5.54443 84.4782C5.60479 84.5285 5.66853 84.5788 5.73224 84.6291C5.79595 84.6794 5.8429 84.7465 5.90662 84.7968C5.97033 84.8471 6.05752 84.8638 6.12123 84.9108C6.18495 84.9577 6.23522 85.0248 6.29893 85.0751C6.36264 85.1254 6.42974 85.1656 6.4968 85.2126C6.56387 85.2595 6.63428 85.293 6.70135 85.34C6.76842 85.3869 6.78516 85.4976 6.84888 85.5445C6.91259 85.5915 7.00314 85.6049 7.07021 85.6518C7.13727 85.6988 7.22447 85.7122 7.29154 85.7558C7.3586 85.7994 7.41559 85.8564 7.48266 85.9C7.54972 85.9436 7.58997 86.0274 7.65704 86.071C7.7241 86.1146 7.84483 86.0777 7.91189 86.1213C7.97896 86.1649 8.0628 86.1817 8.12987 86.2253C8.19693 86.2688 8.24053 86.3493 8.3076 86.3929C8.37467 86.4365 8.45511 86.46 8.52218 86.5002C8.58924 86.5405 8.60939 86.6612 8.67981 86.7048C8.75023 86.7484 8.80387 86.8121 8.87093 86.8523C8.938 86.8926 9.00506 86.9395 9.07548 86.9797C9.1459 87.02 9.20961 87.0669 9.28003 87.1072C9.35045 87.1474 9.49132 87.0669 9.56174 87.1072C9.63216 87.1474 9.6422 87.2883 9.71262 87.3285C9.78304 87.3687 9.83 87.4492 9.90042 87.4861C9.97084 87.523 10.1117 87.4358 10.1821 87.476C10.2525 87.5163 10.2827 87.6269 10.3531 87.6672C10.4235 87.7074 10.5375 87.6638 10.608 87.7007C10.6784 87.7376 10.7287 87.8147 10.7991 87.8516C10.8695 87.8885 10.9399 87.9321 11.0103 87.969C11.0808 88.0059 11.1344 88.0796 11.2048 88.1165C11.2752 88.1534 11.3289 88.2272 11.3993 88.2641C11.4698 88.301 11.5972 88.2238 11.6709 88.2574C11.7447 88.2909 11.7581 88.4452 11.8319 88.482C11.9057 88.5189 12.0163 88.4686 12.0901 88.5022C12.1639 88.5357 12.2444 88.5491 12.3181 88.5826C12.3919 88.6162 12.4724 88.6296 12.5462 88.6631C12.6199 88.6967 12.6937 88.7235 12.7675 88.7537C12.8413 88.7838 12.8915 88.871 12.9653 88.9012C13.0391 88.9314 13.1397 88.9012 13.2135 88.928C13.2873 88.9549 13.3241 89.0789 13.3979 89.1091C13.4717 89.1393 13.5522 89.1561 13.6259 89.1862C13.6997 89.2164 13.7668 89.2634 13.8439 89.2935C13.921 89.3237 14.0116 89.307 14.0854 89.3338C14.1591 89.3606 14.2463 89.3606 14.3201 89.3874C14.3938 89.4143 14.4676 89.4545 14.5414 89.4813C14.6152 89.5082 14.7023 89.5082 14.7761 89.535C14.8499 89.5618 14.8901 89.7026 14.9673 89.7261C15.0444 89.7496 15.1282 89.7496 15.2053 89.7731C15.2825 89.7965 15.3428 89.8703 15.42 89.8938C15.4971 89.9173 15.5977 89.8636 15.6748 89.8871C15.7519 89.9106 15.8123 89.9877 15.8894 90.0112C15.9666 90.0346 16.0772 89.934 16.1543 89.9575C16.2314 89.981 16.2851 90.095 16.3622 90.1151C16.4393 90.1352 16.5366 90.0883 16.6137 90.105C16.6908 90.1218 16.7747 90.1151 16.8552 90.1352C16.9357 90.1553 16.9893 90.2626 17.0698 90.2794C17.1503 90.2962 17.224 90.3264 17.3045 90.3431C17.385 90.3599 17.4688 90.3431 17.546 90.3599C17.6231 90.3767 17.6935 90.4404 17.774 90.4538C17.8545 90.4672 17.945 90.4203 18.0221 90.4337C18.0993 90.4471 18.163 90.5577 18.2435 90.5712C18.3239 90.5846 18.4078 90.5712 18.4849 90.5879C18.562 90.6047 18.6559 90.5309 18.7364 90.5443C18.8169 90.5577 18.8873 90.6282 18.9678 90.6382C19.0482 90.6483 19.1321 90.6315 19.2092 90.6416C19.2863 90.6516 19.3769 90.5913 19.4574 90.598C19.5378 90.6047 19.615 90.6215 19.6954 90.6282C19.7759 90.6349 19.8564 90.6315 19.9369 90.6382C20.0173 90.6449 20.0911 90.7153 20.1716 90.7221C20.2521 90.7288 20.3326 90.7388 20.4131 90.7422C20.4935 90.7455 20.574 90.7489 20.6545 90.7522C20.735 90.7556 20.8154 90.7254 20.8959 90.7288C20.9764 90.7321 21.0569 90.7992 21.1373 90.7992C21.2178 90.7992 21.2983 90.7556 21.3788 90.7556C21.4593 90.7556 21.5398 90.8193 21.6202 90.8159C21.7007 90.8126 21.7812 90.8092 21.8617 90.8059C21.9421 90.8025 22.0193 90.7153 22.0998 90.712C22.1803 90.7086 22.2574 90.6416 22.3345 90.6349C22.4116 90.6282 22.5022 90.7086 22.5826 90.7019C22.6631 90.6952 22.7335 90.5913 22.814 90.5812C22.8945 90.5712 22.9884 90.6952 23.0655 90.6852C23.1426 90.6751 23.2198 90.6248 23.3002 90.6147C23.3807 90.6047 23.4612 90.6047 23.5417 90.5946C23.6222 90.5846 23.6892 90.494 23.7664 90.4806C23.8435 90.4672 23.9206 90.4404 24.0011 90.427C24.0816 90.4135 24.1822 90.5309 24.2626 90.5141C24.3431 90.4974 24.4001 90.3901 24.4806 90.3733C24.5611 90.3565 24.655 90.4102 24.7321 90.3934C24.8092 90.3767 24.8864 90.3398 24.9635 90.323C25.0406 90.3062 25.101 90.2124 25.1781 90.1922C25.2552 90.1721 25.339 90.1755 25.4162 90.1553C25.4933 90.1352 25.5872 90.1721 25.6643 90.152C25.7414 90.1319 25.8219 90.1151 25.8991 90.0883C25.9762 90.0615 26.0298 89.9676 26.107 89.9441C26.1841 89.9206 26.2411 89.8435 26.3182 89.8167C26.3954 89.7898 26.4758 89.7831 26.5529 89.7563C26.6301 89.7295 26.6904 89.6691 26.7642 89.6389C26.838 89.6088 26.9654 89.7127 27.0426 89.6792C27.1197 89.6456 27.1733 89.5719 27.2471 89.5417C27.3209 89.5115 27.3846 89.4579 27.4584 89.421C27.5321 89.3841 27.6159 89.374 27.6864 89.3371C27.7568 89.3002 27.8473 89.2969 27.9178 89.2567C27.9882 89.2164 28.0452 89.1527 28.1156 89.1125C28.186 89.0722 28.1961 88.9381 28.2631 88.8945C28.3302 88.8509 28.4107 88.8308 28.4777 88.7872C28.5448 88.7436 28.5985 88.6832 28.6655 88.6363C28.7326 88.5893 28.8131 88.5659 28.8768 88.5156C28.9405 88.4653 28.9774 88.3848 29.0411 88.3345C29.1048 88.2842 29.1853 88.2607 29.2457 88.2071C29.306 88.1534 29.4402 88.1869 29.5005 88.1333C29.5609 88.0796 29.5743 87.9723 29.6347 87.9187C29.695 87.865 29.7386 87.798 29.799 87.741C29.8593 87.684 29.9767 87.694 30.0337 87.637C30.0907 87.58 30.1376 87.5129 30.1946 87.4559C30.2516 87.3989 30.3053 87.3386 30.3589 87.2782C30.4126 87.2178 30.426 87.1206 30.4797 87.0602C30.5334 86.9999 30.6071 86.9596 30.6608 86.8993C30.7144 86.8389 30.7144 86.735 30.7681 86.6746C30.8217 86.6142 30.9626 86.6277 31.0129 86.5673C31.0632 86.5069 31.1101 86.4399 31.1604 86.3762C31.2107 86.3124 31.2509 86.242 31.2979 86.1783C31.3448 86.1146 31.375 86.0375 31.4253 85.9738C31.4756 85.91 31.5192 85.843 31.5662 85.7793C31.6131 85.7156 31.6701 85.6586 31.7171 85.5915C31.764 85.5244 31.8277 85.4741 31.8713 85.407C31.9149 85.34 31.9652 85.2763 32.0121 85.2092C32.0591 85.1421 32.0692 85.0549 32.1128 84.9879C32.1564 84.9208 32.1564 84.8269 32.2 84.7599C32.2435 84.6928 32.2804 84.6224 32.3207 84.552C32.3609 84.4815 32.3676 84.3943 32.4112 84.3273C32.4548 84.2602 32.5051 84.1965 32.5453 84.1294C32.5856 84.0624 32.599 83.9785 32.6392 83.9081C32.6795 83.8377 32.7868 83.8075 32.827 83.7371C32.8673 83.6667 32.8337 83.5594 32.8706 83.489C32.9075 83.4185 33.0785 83.4185 33.1154 83.3481C33.1523 83.2777 33.1288 83.1737 33.1657 83.1033C33.2026 83.0329 33.1724 82.9256 33.2093 82.8552C33.2461 82.7848 33.3602 82.7512 33.3971 82.6808C33.434 82.6104 33.4038 82.5064 33.4407 82.4327C33.4775 82.3589 33.4977 82.2818 33.5312 82.2113C33.5647 82.1409 33.729 82.1275 33.7659 82.0537C33.8028 81.98 33.7425 81.866 33.776 81.7955C33.8095 81.7251 33.9101 81.6782 33.9403 81.6077C33.9705 81.5373 33.9705 81.4468 34.004 81.373C34.0376 81.2992 34.061 81.2221 34.0945 81.1483C34.1281 81.0746 34.2119 81.0243 34.2421 80.9505C34.2723 80.8767 34.289 80.7962 34.3192 80.7225C34.3494 80.6487 34.3997 80.5816 34.4299 80.5079C34.4601 80.4341 34.4299 80.3368 34.4601 80.2597C34.4903 80.1826 34.5841 80.1356 34.611 80.0619C34.6378 79.9881 34.668 79.911 34.6948 79.8372C34.7216 79.7634 34.7283 79.6796 34.7552 79.6025C34.782 79.5253 34.7384 79.4247 34.7652 79.351C34.792 79.2772 34.8927 79.2269 34.9195 79.1498C34.9463 79.0726 34.953 78.9922 34.9798 78.915C35.0066 78.8379 35.0067 78.7541 35.0301 78.677C35.0536 78.5998 35.0201 78.5059 35.0469 78.4288C35.0737 78.3517 35.1945 78.3081 35.2179 78.231C35.2414 78.1538 35.2414 78.07 35.2648 77.9929C35.2883 77.9158 35.3018 77.8353 35.3286 77.7615C35.3554 77.6877 35.342 77.5972 35.3655 77.5201C35.3889 77.4429 35.4862 77.3893 35.5097 77.3122C35.5331 77.235 35.4795 77.1344 35.503 77.0573C35.5264 76.9802 35.6404 76.9299 35.6639 76.8528C35.6874 76.7756 35.6539 76.6817 35.6773 76.6046C35.7008 76.5275 35.7377 76.4537 35.7578 76.3766C35.7779 76.2995 35.798 76.2223 35.8215 76.1452C35.845 76.0681 35.7712 75.9641 35.7913 75.887C35.8115 75.8099 35.8383 75.7327 35.8584 75.6556C35.8785 75.5785 35.9288 75.5081 35.9489 75.4309C35.9691 75.3538 36.0294 75.2868 36.0495 75.2096C36.0697 75.1325 36.0764 75.052 36.0965 74.9749C36.1166 74.8978 36.1971 74.8341 36.2172 74.7569C36.2373 74.6798 36.2608 74.6027 36.2809 74.5256C36.301 74.4484 36.2809 74.3612 36.2943 74.2808C36.3077 74.2003 36.3648 74.1332 36.3815 74.0527C36.3983 73.9723 36.348 73.8817 36.3647 73.8012C36.3815 73.7208 36.405 73.647 36.4218 73.5665C36.4385 73.486 36.4117 73.3988 36.4285 73.3217C36.4452 73.2446 36.462 73.1641 36.4787 73.087C36.4955 73.0099 36.6196 72.9528 36.6364 72.8757C36.6531 72.7986 36.5425 72.6946 36.5593 72.6142C36.576 72.5337 36.7001 72.48 36.7169 72.3995C36.7336 72.3191 36.6364 72.2218 36.6531 72.1413C36.6699 72.0609 36.7303 71.9938 36.747 71.9133C36.7638 71.8328 36.7303 71.749 36.747 71.6685C36.7638 71.588 36.7806 71.5109 36.794 71.4338C36.8074 71.3567 36.8811 71.2863 36.8979 71.2091C36.9147 71.132 36.9985 71.0649 37.0119 70.9844C37.0254 70.904 36.9113 70.8034 36.9248 70.7262C36.9382 70.6491 36.9684 70.572 36.9784 70.4915C36.9885 70.411 37.0455 70.3406 37.0589 70.2601C37.0723 70.1797 37.0589 70.0992 37.0689 70.0187C37.079 69.9382 37.0488 69.8544 37.0623 69.7739C37.0757 69.6934 37.1696 69.6264 37.1796 69.5492C37.1897 69.4721 37.1226 69.3782 37.136 69.3011C37.1494 69.224 37.1897 69.1468 37.1997 69.0664C37.2098 68.9859 37.193 68.9054 37.2064 68.8249C37.2198 68.7444 37.2534 68.6707 37.2634 68.5902C37.2735 68.5097 37.3707 68.4426 37.3808 68.3622C37.3909 68.2817 37.2701 68.1878 37.2802 68.1073C37.2902 68.0268 37.3104 67.9497 37.3171 67.8692C37.3238 67.7887 37.3305 67.7083 37.3406 67.6278C37.3506 67.5473 37.4982 67.4836 37.5082 67.4031C37.5183 67.3226 37.4881 67.2388 37.4982 67.1583C37.5082 67.0778 37.5619 67.0041 37.5719 66.9236C37.582 66.8431 37.4747 66.7526 37.4814 66.6721C37.4881 66.5916 37.4881 66.5111 37.4948 66.4307C37.5015 66.3502 37.5082 66.2697 37.5149 66.1892C37.5217 66.1087 37.6155 66.0383 37.6222 65.9578C37.6289 65.8774 37.5552 65.7902 37.5619 65.7097C37.5686 65.6292 37.5786 65.5487 37.5854 65.4683C37.5921 65.3878 37.5686 65.3073 37.5753 65.2268C37.582 65.1463 37.7128 65.0759 37.7195 64.9954C37.7262 64.915 37.6222 64.8278 37.6289 64.7473C37.6357 64.6668 37.6994 64.5897 37.7061 64.5126C37.7128 64.4354 37.6926 64.3516 37.696 64.2711C37.6993 64.1906 37.8134 64.1169 37.8201 64.0364C37.8268 63.9559 37.7899 63.8721 37.7966 63.7916C37.8033 63.7111 37.8167 63.6306 37.8201 63.5502C37.8234 63.4697 37.7732 63.3858 37.7765 63.3054C37.7799 63.2249 37.8603 63.1478 37.8637 63.0673C37.867 62.9868 37.857 62.9063 37.8637 62.8258C37.8704 62.7454 37.8301 62.6649 37.8335 62.5844C37.8368 62.5039 37.81 62.4234 37.8134 62.343C37.8167 62.2625 37.8167 62.182 37.8201 62.1015C37.8234 62.021 37.7664 61.9372 37.7664 61.8567C37.7664 61.7763 37.8872 61.6991 37.8905 61.6187C37.8939 61.5382 37.8369 61.4577 37.8369 61.3772C37.8369 61.2967 37.8737 61.2163 37.8771 61.1358C37.8804 61.0553 37.8 60.9748 37.8 60.8943C37.8 60.8139 37.8201 60.7334 37.8201 60.6529C37.8201 60.5724 37.7966 60.4919 37.7966 60.4115C37.7966 60.331 37.9542 60.2505 37.9542 60.17C37.9542 60.0895 37.8872 60.0091 37.8872 59.9286C37.8872 59.8481 37.9442 59.7676 37.9442 59.6871C37.9442 59.6067 37.7966 59.5262 37.7966 59.4457C37.7966 59.3652 37.8838 59.2847 37.8838 59.2043C37.8838 59.1238 37.8838 59.0433 37.8838 58.9628C37.8838 58.8823 37.9475 58.8019 37.9475 58.7214C37.9475 58.6409 37.9442 58.5604 37.9408 58.4799C37.9375 58.3995 37.9408 58.319 37.9408 58.2385C37.9408 58.158 37.8436 58.0809 37.8402 58.0004C37.8369 57.9199 37.924 57.8361 37.9207 57.7556C37.9173 57.6752 37.8737 57.5947 37.8737 57.5142C37.8737 57.4337 37.9106 57.3532 37.9073 57.2728C37.9039 57.1923 37.8503 57.1118 37.8503 57.0313C37.8503 56.9508 37.753 56.8737 37.7497 56.7932C37.7463 56.7128 37.7429 56.6323 37.7396 56.5518C37.7362 56.4713 37.8704 56.3841 37.867 56.3036C37.8637 56.2232 37.7832 56.146 37.7798 56.0656C37.7765 55.9851 37.7597 55.9046 37.7564 55.8241C37.753 55.7436 37.8234 55.6598 37.8201 55.5793C37.8167 55.4989 37.7228 55.4251 37.7161 55.3446C37.7094 55.2641 37.6658 55.187 37.6625 55.1065C37.6591 55.026 37.6759 54.9456 37.6725 54.8651C37.6692 54.7846 37.753 54.6974 37.7463 54.6169C37.7396 54.5365 37.7698 54.4526 37.7664 54.3721C37.7631 54.2917 37.6994 54.2145 37.6927 54.1341C37.686 54.0536 37.639 53.9765 37.6323 53.896C37.6256 53.8155 37.5753 53.7384 37.5719 53.6579C37.5686 53.5774 37.6088 53.4936 37.6021 53.4131C37.5954 53.3326 37.639 53.2488 37.6323 53.1683C37.6256 53.0878 37.6189 53.0073 37.6122 52.9269C37.6055 52.8464 37.5552 52.7693 37.5485 52.6888C37.5418 52.6083 37.572 52.5245 37.5619 52.444C37.5518 52.3635 37.5753 52.2797 37.5653 52.1992C37.5552 52.1187 37.5015 52.0449 37.4914 51.9645C37.4814 51.884 37.421 51.8102 37.4143 51.7297C37.4076 51.6492 37.3607 51.5721 37.3506 51.495C37.3406 51.4179 37.4814 51.3173 37.4714 51.2368C37.4613 51.1563 37.3741 51.0859 37.364 51.0054C37.354 50.9249 37.4177 50.8378 37.4076 50.7573C37.3976 50.6768 37.2836 50.6097 37.2735 50.5292C37.2635 50.4488 37.2198 50.375 37.2098 50.2945C37.1997 50.214 37.2668 50.1235 37.2534 50.0464C37.24 49.9692 37.2702 49.8821 37.2601 49.8016C37.25 49.7211 37.1729 49.6507 37.1628 49.5702C37.1528 49.4897 37.2299 49.3992 37.2165 49.3187C37.2031 49.2382 37.1595 49.1644 37.1494 49.084C37.1393 49.0035 37.069 48.9331 37.0555 48.8526C37.0421 48.7721 37.1159 48.6816 37.1025 48.6011C37.0891 48.5206 37.069 48.4435 37.0555 48.363C37.0421 48.2825 36.9583 48.2155 36.9449 48.135C36.9314 48.0545 36.9382 47.974 36.9248 47.8935C36.9113 47.8131 36.9147 47.7326 36.9013 47.6521C36.8878 47.5716 36.9113 47.4878 36.8979 47.4073C36.8845 47.3268 36.8242 47.2564 36.8108 47.1759C36.7973 47.0955 36.7772 47.0183 36.7604 46.9378C36.7437 46.8574 36.7437 46.7769 36.7302 46.6964C36.7168 46.6159 36.6129 46.5556 36.5961 46.4751C36.5794 46.3946 36.5626 46.3175 36.5458 46.237C36.5291 46.1565 36.566 46.0693 36.5525 45.9889C36.5391 45.9084 36.4955 45.8346 36.4787 45.7575C36.462 45.6804 36.4352 45.6032 36.4184 45.5227C36.4016 45.4423 36.5089 45.3383 36.4922 45.2612C36.4754 45.1841 36.4452 45.1069 36.4285 45.0265C36.4117 44.946 36.3983 44.8689 36.3782 44.7884C36.358 44.7079 36.3145 44.6375 36.2977 44.557C36.2809 44.4765 36.2507 44.4027 36.234 44.3223C36.2172 44.2418 36.1702 44.1714 36.1535 44.0942C36.1367 44.0171 36.063 43.95 36.0462 43.8696C36.0294 43.7891 36.0294 43.7086 36.0093 43.6315C35.9892 43.5544 35.9791 43.4739 35.959 43.3934C35.9389 43.3129 35.9758 43.2224 35.959 43.1453C35.9422 43.0681 35.9288 42.9876 35.9087 42.9072C35.8886 42.8267 35.8718 42.7496 35.8517 42.6724C35.8316 42.5953 35.7209 42.5383 35.7008 42.4612C35.6807 42.384 35.684 42.3002 35.6639 42.2197C35.6438 42.1393 35.6907 42.0454 35.6706 41.9682C35.6505 41.8911 35.5968 41.8207 35.5767 41.7436C35.5566 41.6664 35.5667 41.5793 35.5432 41.5021C35.5197 41.425 35.4795 41.3512 35.456 41.2741C35.4325 41.197 35.5029 41.093 35.4795 41.0159C35.456 40.9388 35.3822 40.8751 35.3621 40.7979C35.342 40.7208 35.3554 40.6303 35.3319 40.5531C35.3085 40.476 35.1441 40.4425 35.1207 40.3654C35.0972 40.2882 35.2045 40.1709 35.181 40.0937C35.1575 40.0166 35.1374 39.9395 35.114 39.8624C35.0905 39.7852 34.9798 39.7349 34.9564 39.6578C34.9329 39.5807 34.9329 39.4969 34.9094 39.4197C34.8859 39.3426 34.8356 39.2722 34.8122 39.1951C34.7887 39.1179 34.7619 39.0408 34.7384 38.9637C34.7149 38.8865 34.7317 38.796 34.7082 38.7189C34.6848 38.6418 34.7116 38.5479 34.6881 38.4707C34.6646 38.3936 34.507 38.3601 34.4835 38.283C34.4601 38.2058 34.5707 38.0851 34.5439 38.008C34.5171 37.9309 34.3997 37.8839 34.3729 37.8068C34.3461 37.7297 34.3964 37.6291 34.3729 37.5519C34.3494 37.4748 34.3159 37.401 34.2924 37.3239C34.2689 37.2468 34.2153 37.1797 34.1918 37.1026C34.1683 37.0255 34.0644 36.9752 34.0409 36.898C34.0174 36.8209 33.9973 36.7438 33.9705 36.6667C33.9436 36.5895 33.9906 36.4889 33.9638 36.4118C33.9369 36.3347 33.9034 36.2609 33.8766 36.1838C33.8498 36.1066 33.8464 36.0228 33.8196 35.9457C33.7928 35.8686 33.7424 35.8015 33.7156 35.7244C33.6888 35.6472 33.6821 35.5634 33.6553 35.4896C33.6285 35.4159 33.5446 35.3589 33.5178 35.2817C33.491 35.2046 33.5681 35.0939 33.5413 35.0168C33.5145 34.9397 33.4138 34.8927 33.387 34.8156C33.3602 34.7385 33.2998 34.6748 33.273 34.601C33.2462 34.5272 33.3065 34.4166 33.2797 34.3428C33.2529 34.269 33.2328 34.1886 33.2026 34.1114C33.1724 34.0343 33.112 33.9706 33.0852 33.8968C33.0584 33.823 32.9477 33.7761 32.9175 33.699C32.8873 33.6218 32.9511 33.5145 32.9242 33.4408C32.8974 33.367 32.8404 33.2999 32.8102 33.2262C32.7801 33.1524 32.7465 33.0786 32.7197 33.0015C32.6929 32.9244 32.6057 32.8707 32.5789 32.7969C32.5521 32.7232 32.5219 32.646 32.4917 32.5723C32.4615 32.4985 32.5755 32.3677 32.5487 32.2906C32.5218 32.2135 32.381 32.1833 32.3508 32.1095C32.3207 32.0357 32.3509 31.9351 32.324 31.8614C32.2972 31.7876 32.1664 31.7507 32.1362 31.6736C32.106 31.5964 32.0993 31.516 32.0692 31.4422C32.039 31.3684 31.9887 31.3014 31.9585 31.2242C31.9283 31.1471 31.9451 31.0566 31.9149 30.9828C31.8847 30.909 31.811 30.852 31.7808 30.7749C31.7506 30.6978 31.8311 30.5804 31.8009 30.5066C31.7707 30.4328 31.6735 30.3825 31.6433 30.3088C31.6131 30.235 31.6399 30.1378 31.6064 30.0606C31.5729 29.9835 31.479 29.9399 31.4488 29.8628C31.4186 29.7857 31.4924 29.6683 31.4622 29.5945C31.432 29.5207 31.3918 29.4503 31.3616 29.3732C31.3314 29.2961 31.2979 29.2257 31.2677 29.1519C31.2375 29.0781 31.1738 29.0144 31.1437 28.9406C31.1135 28.8668 31.0397 28.8098 31.0095 28.7361C30.9793 28.6623 30.976 28.5751 30.9458 28.5013C30.9156 28.4276 30.7748 28.4007 30.7412 28.327C30.7077 28.2532 30.7278 28.1559 30.6943 28.0822C30.6607 28.0084 30.6239 27.938 30.5903 27.8642C30.5568 27.7904 30.6037 27.6798 30.5702 27.6094C30.5367 27.5389 30.4328 27.4953 30.3992 27.4216C30.3657 27.3478 30.3288 27.2774 30.2953 27.2036C30.2617 27.1298 30.2885 27.0292 30.255 26.9555C30.2215 26.8817 30.141 26.8314 30.1074 26.7576C30.0739 26.6838 30.0941 26.5866 30.0605 26.5128C30.027 26.439 29.9264 26.3988 29.8895 26.325C29.8526 26.2513 29.7889 26.1943 29.752 26.1238C29.7151 26.0534 29.7386 25.9528 29.7017 25.879C29.6648 25.8053 29.6749 25.7114 29.638 25.641C29.6011 25.5705 29.5844 25.4867 29.5508 25.4163C29.5173 25.3459 29.3731 25.3258 29.3396 25.252C29.306 25.1782 29.3765 25.0541 29.3396 24.9837C29.3027 24.9133 29.1585 24.8965 29.1216 24.8228C29.0847 24.749 29.0243 24.692 28.9875 24.6216C28.9506 24.5511 29.0277 24.4204 28.9875 24.3499C28.9472 24.2795 28.7863 24.2728 28.7494 24.2024C28.7125 24.132 28.7896 23.9978 28.7527 23.9274C28.7159 23.857 28.5717 23.8402 28.5348 23.7698C28.4979 23.6994 28.4644 23.6256 28.4275 23.5552C28.3906 23.4848 28.4476 23.3607 28.4107 23.2903C28.3738 23.2199 28.357 23.136 28.3201 23.0656C28.2833 22.9952 28.1827 22.9583 28.1458 22.8879C28.1089 22.8175 28.1055 22.7269 28.0653 22.6565C28.0251 22.5861 27.8842 22.5727 27.844 22.5023C27.8037 22.4318 27.8842 22.2944 27.844 22.2239C27.8037 22.1535 27.6528 22.1468 27.6126 22.0797C27.5724 22.0127 27.5858 21.9087 27.5456 21.8417C27.5053 21.7746 27.4382 21.7176 27.398 21.6505C27.3577 21.5835 27.3041 21.5197 27.2638 21.4493C27.2236 21.3789 27.1666 21.3185 27.1264 21.2515C27.0861 21.1844 27.1633 21.0402 27.1264 20.9731C27.0895 20.9061 26.9587 20.886 26.9151 20.8189C26.8715 20.7518 26.8413 20.6747 26.7977 20.6076C26.7541 20.5406 26.7709 20.4333 26.7273 20.3662C26.6837 20.2991 26.6334 20.2354 26.5898 20.1684C26.5462 20.1013 26.5093 20.0275 26.4658 19.9604C26.4222 19.8934 26.3719 19.8297 26.3283 19.7626C26.2847 19.6955 26.2042 19.6519 26.1606 19.5849C26.117 19.5178 26.1103 19.4239 26.0667 19.3569C26.0231 19.2898 25.993 19.2127 25.9494 19.1456C25.9058 19.0785 25.7314 19.0986 25.6844 19.0349C25.6375 18.9712 25.6643 18.8539 25.6174 18.7901C25.5705 18.7264 25.5838 18.6158 25.5402 18.5521C25.4966 18.4883 25.4296 18.4313 25.3826 18.3676C25.3357 18.3039 25.2351 18.2737 25.1882 18.21C25.1412 18.1463 25.0607 18.1027 25.0138 18.039C24.9668 17.9753 24.9065 17.9183 24.8562 17.8546C24.8059 17.7909 24.826 17.6735 24.7791 17.6098C24.7321 17.5461 24.6617 17.4958 24.6148 17.432C24.5678 17.3683 24.5745 17.261 24.5242 17.1973C24.4739 17.1336 24.3398 17.137 24.2895 17.0732C24.2392 17.0095 24.209 16.9324 24.1587 16.8687C24.1084 16.805 24.0447 16.7547 23.9944 16.691C23.9441 16.6273 23.9575 16.5132 23.9072 16.4495C23.8569 16.3858 23.7563 16.3657 23.7026 16.3053C23.649 16.245 23.592 16.188 23.5383 16.1276C23.4847 16.0673 23.4411 16.0002 23.3874 15.9398C23.3338 15.8795 23.2634 15.8325 23.2131 15.7722C23.1628 15.7118 23.1225 15.638 23.0688 15.5777C23.0152 15.5173 22.9817 15.4402 22.9247 15.3798C22.8677 15.3195 22.804 15.2692 22.7503 15.2122C22.6966 15.1552 22.6732 15.0646 22.6162 15.0043C22.5592 14.9439 22.4284 14.964 22.3714 14.907C22.3144 14.85 22.3278 14.7226 22.2708 14.6656C22.2138 14.6086 22.0897 14.622 22.0293 14.565C21.969 14.508 21.9455 14.4208 21.8852 14.3671C21.8248 14.3135 21.7611 14.2665 21.7007 14.2095C21.6404 14.1525 21.6202 14.0586 21.5599 14.005C21.4995 13.9513 21.3989 13.9446 21.3386 13.891C21.2782 13.8373 21.2514 13.7468 21.191 13.6931C21.1306 13.6395 21.0737 13.5824 21.01 13.5321C20.9462 13.4818 20.9026 13.4114 20.8389 13.3611C20.7752 13.3108 20.7048 13.2706 20.6411 13.2203C20.5773 13.17 20.4466 13.2102 20.3828 13.1633C20.3191 13.1163 20.3292 12.9621 20.2655 12.9185C20.2018 12.8749 20.071 12.9185 20.004 12.8749C19.9369 12.8313 19.8866 12.7609 19.8229 12.7173C19.7592 12.6737 19.739 12.5463 19.6719 12.506C19.6049 12.4658 19.5311 12.4256 19.464 12.3853C19.397 12.3451 19.2729 12.3954 19.2059 12.3551C19.1388 12.3149 19.0952 12.221 19.0248 12.1841C18.9544 12.1472 18.8906 12.0902 18.8202 12.0533C18.7498 12.0165 18.6224 12.0936 18.5519 12.06C18.4815 12.0265 18.4513 11.8924 18.3776 11.8622C18.3038 11.832 18.2133 11.8387 18.1395 11.8085C18.0657 11.7784 17.9919 11.7381 17.9182 11.7147C17.8444 11.6912 17.7572 11.6845 17.6834 11.661C17.6097 11.6375 17.5258 11.6308 17.4487 11.6107C17.3716 11.5906 17.3112 11.4967 17.2341 11.4799C17.157 11.4632 17.0597 11.5269 16.9826 11.5101C16.9055 11.4933 16.8216 11.5101 16.7445 11.5C16.6674 11.49 16.5869 11.4967 16.5064 11.4866C16.426 11.4766 16.3589 11.319 16.2817 11.3156C16.2046 11.3123 16.1174 11.3927 16.037 11.3894C15.9565 11.386 15.876 11.3458 15.7955 11.3491C15.7151 11.3525 15.6413 11.4263 15.5608 11.433C15.4803 11.4397 15.3965 11.4061 15.3193 11.4162C15.2422 11.4263 15.1584 11.4196 15.0779 11.4363C14.9974 11.4531 14.9069 11.4129 14.8298 11.433C14.7527 11.4531 14.7057 11.5906 14.6286 11.6141C14.5515 11.6375 14.4576 11.6006 14.3838 11.6275C14.31 11.6543 14.2563 11.7415 14.1826 11.7717C14.1088 11.8018 14.0082 11.765 13.9344 11.7951C13.8607 11.8253 13.8238 11.9326 13.7534 11.9695C13.683 12.0064 13.5756 11.9762 13.5086 12.0165C13.4415 12.0567 13.3677 12.1036 13.304 12.1539C13.2403 12.2042 13.2504 12.3283 13.1934 12.3887C13.1364 12.449 12.9888 12.4188 12.9385 12.4826C12.8882 12.5463 12.9284 12.6703 12.8848 12.7408C12.8412 12.8112 12.8077 12.8749 12.7708 12.9487C12.734 13.0224 12.7004 13.0862 12.6702 13.1633C12.64 13.2404 12.5495 13.284 12.5227 13.3611C12.4959 13.4383 12.4992 13.5187 12.4757 13.5992C12.4523 13.6797 12.345 13.73 12.3249 13.8105C12.3047 13.891 12.2846 13.9681 12.2712 14.0486C12.2578 14.129 12.2511 14.2095 12.2377 14.29C12.2243 14.3705 12.2913 14.461 12.2813 14.5415C12.2712 14.622 12.2276 14.6957 12.2175 14.7762C12.2075 14.8567 12.2578 14.9405 12.2511 15.021C12.2444 15.1015 12.1974 15.1786 12.1941 15.2591C12.1907 15.3396 12.1237 15.4167 12.1203 15.4972C12.117 15.5777 12.2779 15.6615 12.2746 15.742C12.2712 15.8225 12.1404 15.8996 12.1404 15.9801C12.1404 16.0605 12.1807 16.141 12.1807 16.2215C12.1807 16.302 12.1706 16.3825 12.1739 16.4629C12.1773 16.5434 12.2243 16.6206 12.2276 16.701C12.231 16.7815 12.2645 16.8586 12.2678 16.9391C12.2712 17.0196 12.2712 17.0967 12.2779 17.1806C12.2846 17.2644 12.3182 17.3382 12.3249 17.4186C12.3316 17.4991 12.231 17.5863 12.241 17.6668C12.2511 17.7473 12.3148 17.821 12.3249 17.9015C12.3349 17.982 12.2444 18.0725 12.2511 18.153C12.2578 18.2335 12.3047 18.3073 12.3148 18.3877C12.3249 18.4682 12.3215 18.5487 12.3316 18.6292C12.3416 18.7097 12.4389 18.7767 12.4523 18.8539C12.4657 18.931 12.402 19.0215 12.4154 19.102C12.4288 19.1825 12.4724 19.2563 12.4858 19.3334C12.4992 19.4105 12.5227 19.4876 12.5361 19.5681C12.5495 19.6486 12.5663 19.7257 12.5797 19.8062C12.5931 19.8867 12.5998 19.9638 12.6132 20.0443C12.6267 20.1248 12.6032 20.2086 12.62 20.2891C12.6367 20.3696 12.7071 20.4366 12.7239 20.5137C12.7407 20.5909 12.8144 20.6579 12.8279 20.7351C12.8413 20.8122 12.8212 20.8994 12.8346 20.9765C12.848 21.0536 12.8178 21.1408 12.8346 21.2213C12.8513 21.3018 12.8849 21.3722 12.9016 21.4527C12.9184 21.5332 12.8614 21.6237 12.8815 21.7042C12.9016 21.7847 12.9485 21.8517 12.9653 21.9288C12.9821 22.006 13.0592 22.0697 13.076 22.1468C13.0928 22.2239 13.1263 22.2977 13.1464 22.3748C13.1665 22.452 13.1263 22.5425 13.1464 22.6196C13.1665 22.6968 13.1431 22.7839 13.1598 22.8644C13.1766 22.9449 13.2235 23.012 13.2437 23.0891C13.2638 23.1662 13.361 23.2232 13.3812 23.3003C13.4013 23.3775 13.408 23.458 13.4281 23.5351C13.4482 23.6122 13.522 23.6759 13.5421 23.753C13.5622 23.8302 13.5421 23.9174 13.5622 23.9945C13.5823 24.0716 13.5589 24.1622 13.579 24.2393C13.5991 24.3164 13.6058 24.3969 13.6293 24.474C13.6528 24.5511 13.7165 24.6148 13.7366 24.692C13.7567 24.7691 13.7634 24.8496 13.7869 24.9267C13.8104 25.0038 13.8841 25.0642 13.9076 25.1413C13.9311 25.2184 13.9412 25.2989 13.9646 25.3727C13.9881 25.4465 13.968 25.537 13.9914 25.6141C14.0149 25.6913 14.0183 25.7717 14.0418 25.8489C14.0652 25.926 14.0417 26.0165 14.0619 26.0937C14.082 26.1708 14.1457 26.2345 14.1692 26.3116C14.1927 26.3888 14.1927 26.4726 14.2161 26.5497C14.2396 26.6268 14.2966 26.6905 14.3201 26.7677C14.3435 26.8448 14.4106 26.9052 14.4374 26.9823C14.4643 27.0594 14.5045 27.1265 14.5313 27.2036C14.5582 27.2807 14.5682 27.3612 14.5917 27.435C14.6152 27.5088 14.5816 27.606 14.6084 27.6831C14.6353 27.7603 14.7493 27.8038 14.7728 27.881C14.7962 27.9581 14.7996 28.0419 14.8231 28.1157C14.8465 28.1895 14.9136 28.2532 14.9404 28.3303C14.9672 28.4074 14.9136 28.508 14.9404 28.5852C14.9672 28.6623 15.0578 28.7126 15.0846 28.7897C15.1115 28.8668 15.1282 28.944 15.1584 29.0177C15.1886 29.0915 15.1718 29.1821 15.1986 29.2592C15.2255 29.3363 15.2255 29.4201 15.2557 29.4939C15.2858 29.5677 15.4166 29.6046 15.4434 29.6817C15.4702 29.7588 15.3696 29.8795 15.3965 29.9567C15.4233 30.0338 15.5608 30.0673 15.5876 30.1411C15.6145 30.2149 15.5642 30.3222 15.5943 30.396C15.6245 30.4697 15.6379 30.5502 15.6647 30.6273C15.6916 30.7045 15.8257 30.738 15.8559 30.8118C15.886 30.8855 15.819 30.9996 15.8458 31.0733C15.8727 31.1471 15.9129 31.2175 15.9431 31.2946C15.9732 31.3718 16.0672 31.4187 16.0973 31.4925C16.1275 31.5663 16.0604 31.6803 16.0906 31.7541C16.1208 31.8278 16.218 31.8748 16.2482 31.9519C16.2784 32.029 16.3756 32.0726 16.4025 32.1497C16.4293 32.2269 16.4427 32.3073 16.4729 32.3811C16.5031 32.4549 16.4729 32.5521 16.5031 32.6293C16.5333 32.7064 16.5198 32.7969 16.55 32.8707C16.5802 32.9445 16.7278 32.9713 16.7579 33.0451C16.7881 33.1188 16.8217 33.1926 16.8518 33.2664C16.882 33.3402 16.8217 33.4508 16.8518 33.528C16.882 33.6051 16.8921 33.6856 16.9222 33.7593C16.9524 33.8331 16.9993 33.9002 17.0295 33.9739C17.0597 34.0477 17.0698 34.1315 17.1033 34.2053C17.1369 34.2791 17.1603 34.3562 17.1939 34.43C17.2274 34.5038 17.2643 34.5742 17.2978 34.648C17.3313 34.7217 17.3481 34.8022 17.3816 34.876C17.4152 34.9498 17.5426 34.9799 17.5761 35.0537C17.6097 35.1275 17.5661 35.2348 17.5996 35.3086C17.6331 35.3823 17.6801 35.4494 17.7103 35.5232C17.7404 35.5969 17.8075 35.654 17.841 35.7277C17.8746 35.8015 17.8947 35.882 17.9249 35.9524C17.9551 36.0228 18.002 36.0932 18.0355 36.167C18.0691 36.2408 18.0389 36.3414 18.0724 36.4152C18.106 36.4889 18.1764 36.5459 18.2099 36.6164C18.2434 36.6868 18.3172 36.7438 18.3508 36.8176C18.3843 36.8913 18.4681 36.9416 18.5016 37.012C18.5352 37.0825 18.4379 37.22 18.4715 37.2937C18.505 37.3675 18.6022 37.4111 18.6358 37.4815C18.6693 37.5519 18.6995 37.6291 18.733 37.7028C18.7666 37.7766 18.837 37.8336 18.8705 37.904C18.9041 37.9744 18.9845 38.0281 19.0181 38.1019C19.0516 38.1756 19.0617 38.2595 19.0985 38.3299C19.1354 38.4003 19.1455 38.4875 19.179 38.5579C19.2125 38.6283 19.3098 38.6719 19.3433 38.7457C19.3769 38.8195 19.3299 38.9301 19.3668 39.0039C19.4037 39.0777 19.5244 39.1045 19.5613 39.1783C19.5982 39.2521 19.6183 39.3292 19.6552 39.3996C19.6921 39.47 19.7256 39.5438 19.7625 39.6176C19.7994 39.6913 19.7089 39.8255 19.7424 39.8959C19.7759 39.9663 19.8698 40.0099 19.9067 40.0837C19.9436 40.1575 19.9838 40.2245 20.0207 40.2949C20.0576 40.3654 20.128 40.419 20.1649 40.4928C20.2018 40.5666 20.2487 40.6303 20.2856 40.7007C20.3225 40.7711 20.3326 40.8583 20.3695 40.9287C20.4063 40.9991 20.4466 41.0696 20.4835 41.14C20.5203 41.2104 20.5572 41.2842 20.5941 41.3546C20.631 41.425 20.6914 41.4854 20.7282 41.5558C20.7651 41.6262 20.7651 41.7167 20.802 41.7905C20.8389 41.8643 20.9462 41.8945 20.9865 41.9649C21.0267 42.0353 21.0435 42.1158 21.0837 42.1862C21.124 42.2566 21.191 42.3103 21.2312 42.3807C21.2715 42.4511 21.2883 42.5316 21.3251 42.602C21.362 42.6724 21.3955 42.7462 21.4324 42.8166C21.4693 42.887 21.5364 42.9441 21.5766 43.0145C21.6169 43.0849 21.5867 43.1922 21.6269 43.2626C21.6672 43.333 21.7443 43.38 21.7845 43.4504C21.8248 43.5208 21.7845 43.6348 21.8281 43.7053C21.8717 43.7757 21.8985 43.8528 21.9354 43.9199C21.9723 43.9869 22.0763 44.0238 22.1165 44.0942C22.1568 44.1647 22.2004 44.2317 22.2406 44.3021C22.2808 44.3726 22.3546 44.4229 22.3948 44.4933C22.4351 44.5637 22.4284 44.661 22.4686 44.7314C22.5089 44.8018 22.5156 44.8923 22.5558 44.9594C22.5961 45.0265 22.6866 45.0701 22.7268 45.1405C22.7671 45.2109 22.8509 45.2545 22.8912 45.3249C22.9314 45.3953 22.8408 45.5429 22.8811 45.6133C22.9213 45.6837 22.9817 45.7407 23.0253 45.8111C23.0688 45.8816 23.1896 45.9017 23.2332 45.9687C23.2768 46.0358 23.3539 46.0828 23.3975 46.1532C23.4411 46.2236 23.4813 46.2907 23.5216 46.3577C23.5618 46.4248 23.5718 46.5153 23.6121 46.5857C23.6523 46.6562 23.6356 46.7601 23.6792 46.8272C23.7228 46.8943 23.7362 46.9814 23.7797 47.0485C23.8233 47.1156 23.8904 47.1692 23.9307 47.2396C23.9709 47.3101 23.9843 47.3972 24.0246 47.4643C24.0648 47.5314 24.2056 47.5414 24.2492 47.6085C24.2928 47.6756 24.3029 47.7661 24.3465 47.8332C24.3901 47.9002 24.4303 47.9707 24.4739 48.0377C24.5175 48.1048 24.5443 48.1853 24.5879 48.2523C24.6315 48.3194 24.6181 48.4267 24.6617 48.4938C24.7053 48.5609 24.8696 48.5508 24.9132 48.6212C24.9568 48.6916 24.9702 48.7755 25.0138 48.8459C25.0574 48.9163 25.0205 49.0337 25.0641 49.1041C25.1077 49.1745 25.272 49.1611 25.3156 49.2282C25.3592 49.2952 25.3759 49.3824 25.4195 49.4495C25.4631 49.5165 25.5 49.5903 25.5436 49.6574C25.5872 49.7245 25.6643 49.7714 25.7079 49.8385C25.7515 49.9055 25.7985 49.9726 25.842 50.0397C25.8856 50.1067 25.9058 50.1906 25.9527 50.2576C25.9997 50.3247 26.0667 50.375 26.1137 50.4421C26.1606 50.5091 26.1841 50.5896 26.231 50.6567C26.278 50.7237 26.2981 50.8076 26.345 50.8713C26.392 50.935 26.4624 50.9853 26.5094 51.0524C26.5563 51.1194 26.5329 51.2334 26.5798 51.2972C26.6267 51.3609 26.7307 51.3877 26.7776 51.4548C26.8246 51.5218 26.9051 51.5621 26.9487 51.6291C26.9922 51.6962 27.0425 51.7599 27.0895 51.827C27.1364 51.894 27.18 51.9611 27.227 52.0248C27.2739 52.0885 27.2169 52.2294 27.2672 52.2964C27.3175 52.3635 27.3611 52.4272 27.4081 52.4909C27.455 52.5546 27.5891 52.558 27.6361 52.6251C27.683 52.6921 27.73 52.7558 27.7803 52.8196C27.8306 52.8833 27.8943 52.9369 27.9446 53.0006C27.9949 53.0644 27.9983 53.1616 28.0486 53.2253C28.0989 53.289 28.1827 53.3259 28.233 53.3896C28.2833 53.4533 28.347 53.507 28.3939 53.5707C28.4409 53.6344 28.3838 53.782 28.4308 53.8457C28.4777 53.9094 28.5784 53.9362 28.6287 53.9999C28.679 54.0636 28.7292 54.1274 28.7795 54.1911C28.8298 54.2548 28.8936 54.3051 28.9439 54.3688C28.9942 54.4325 29.021 54.513 29.0713 54.5767C29.1216 54.6404 29.2121 54.6706 29.2624 54.7343C29.3127 54.798 29.2826 54.9254 29.3329 54.9858C29.3832 55.0462 29.4871 55.0696 29.5374 55.13C29.5877 55.1903 29.6816 55.2205 29.7319 55.2842C29.7822 55.348 29.8291 55.415 29.8794 55.4754C29.9297 55.5357 29.923 55.6464 29.9733 55.7101C30.0236 55.7738 30.1175 55.8007 30.1712 55.861C30.2248 55.9214 30.2953 55.9683 30.3456 56.032C30.3959 56.0957 30.4328 56.1695 30.4831 56.2332C30.5334 56.2969 30.5367 56.4009 30.587 56.4613C30.6373 56.5216 30.7714 56.5149 30.8251 56.5753C30.8787 56.6356 30.8687 56.7496 30.9223 56.81C30.976 56.8704 30.986 56.9676 31.0397 57.028C31.0933 57.0883 31.1671 57.1319 31.2208 57.1923C31.2744 57.2526 31.4018 57.2493 31.4555 57.3096C31.5091 57.37 31.5326 57.4572 31.5863 57.5176C31.6399 57.5779 31.6399 57.6852 31.6936 57.7456C31.7473 57.8059 31.8043 57.8663 31.8579 57.9233C31.9116 57.9803 31.9686 58.0407 32.0222 58.101C32.0759 58.1614 32.1765 58.1782 32.2301 58.2385C32.2838 58.2989 32.3173 58.3793 32.3709 58.4364C32.4246 58.4934 32.5487 58.4934 32.6023 58.5504C32.656 58.6074 32.6694 58.708 32.7264 58.765C32.7834 58.822 32.8035 58.9125 32.8605 58.9695C32.9176 59.0265 33.0081 59.0534 33.0617 59.1104C33.1154 59.1674 33.1992 59.2009 33.2562 59.2579C33.3132 59.3149 33.2864 59.4524 33.3434 59.5094C33.4004 59.5664 33.501 59.5832 33.558 59.6402C33.615 59.6972 33.6653 59.7609 33.7223 59.8179C33.7793 59.8749 33.7827 59.9856 33.8397 60.0426C33.8967 60.0996 34.0677 60.0426 34.1248 60.0996C34.1818 60.1566 34.1717 60.284 34.2287 60.3377C34.2857 60.3913 34.3595 60.4349 34.4165 60.4919C34.4735 60.5489 34.4869 60.6495 34.5473 60.7065C34.6076 60.7636 34.7116 60.7703 34.7686 60.8239C34.8256 60.8776 34.8323 60.9916 34.8893 61.0486C34.9463 61.1056 35.0435 61.119 35.1039 61.1727C35.1643 61.2263 35.2481 61.2531 35.3084 61.3068C35.3688 61.3604 35.4024 61.4443 35.4627 61.4979C35.5231 61.5516 35.5532 61.6388 35.6136 61.6924C35.674 61.7461 35.8148 61.7125 35.8718 61.7662C35.9288 61.8198 36.0026 61.8601 36.0629 61.9137C36.1233 61.9674 36.0998 62.1183 36.1602 62.1686C36.2206 62.2189 36.3312 62.2189 36.3916 62.2692C36.452 62.3195 36.4955 62.3966 36.5559 62.4503C36.6163 62.5039 36.7235 62.5039 36.7839 62.5542C36.8443 62.6045 36.8174 62.7655 36.8778 62.8191C36.9382 62.8728 37.0186 62.903 37.079 62.9533C37.1394 63.0036 37.2869 62.9533 37.3506 63.0036C37.4143 63.0539 37.4009 63.1981 37.4646 63.2484C37.5284 63.2987 37.639 63.2886 37.6994 63.3389C37.7597 63.3892 37.8234 63.4429 37.8872 63.4898C37.9509 63.5367 37.9509 63.6742 38.0146 63.7212C38.0783 63.7681 38.1889 63.7581 38.2527 63.8084C38.3164 63.8587 38.3901 63.8922 38.4538 63.9425C38.5176 63.9928 38.5712 64.0532 38.6383 64.1001C38.7054 64.147 38.8093 64.1403 38.873 64.1873C38.9367 64.2342 38.9367 64.3751 39.0004 64.422C39.0642 64.469 39.1715 64.4623 39.2352 64.5059C39.2989 64.5494 39.3928 64.5629 39.4565 64.6098C39.5202 64.6568 39.5739 64.7238 39.6376 64.7708C39.7013 64.8177 39.7683 64.8613 39.8354 64.9082C39.9025 64.9552 39.9159 65.0793 39.983 65.1229C40.05 65.1665 40.1104 65.2235 40.1775 65.2671C40.2445 65.3106 40.372 65.2637 40.439 65.3073C40.5061 65.3509 40.5664 65.4045 40.6369 65.4481C40.7073 65.4917 40.7475 65.5756 40.8146 65.6191C40.8817 65.6627 40.9856 65.646 41.056 65.6896C41.1264 65.7332 41.1499 65.8472 41.217 65.8874C41.284 65.9277 41.4148 65.8673 41.4853 65.9075C41.5557 65.9478 41.6295 65.9813 41.6965 66.0216C41.7636 66.0618 41.7736 66.2093 41.844 66.2496C41.9145 66.2898 42.0419 66.2228 42.1123 66.263C42.1827 66.3032 42.2062 66.4273 42.2766 66.4642C42.3471 66.5011 42.4409 66.4977 42.5147 66.5346C42.5885 66.5715 42.6187 66.6822 42.6924 66.719C42.7662 66.7559 42.8299 66.8096 42.9003 66.8431C42.9708 66.8766 43.0412 66.9202 43.115 66.9571C43.1887 66.994 43.3195 66.9035 43.3933 66.9404C43.4671 66.9772 43.5241 67.0376 43.5979 67.0711C43.6716 67.1047 43.7186 67.1952 43.789 67.2287C43.8594 67.2623 43.9835 67.1919 44.0573 67.2254C44.131 67.2589 44.2014 67.2958 44.2752 67.3293C44.349 67.3629 44.3859 67.4802 44.4596 67.5104C44.5334 67.5406 44.6307 67.5171 44.7044 67.5473C44.7782 67.5775 44.8318 67.658 44.909 67.6881C44.9861 67.7183 45.0431 67.7887 45.1169 67.8189C45.1907 67.8491 45.3147 67.7485 45.3885 67.7787C45.4623 67.8089 45.5059 67.9229 45.583 67.9497C45.6601 67.9765 45.7373 67.9933 45.8144 68.0168C45.8915 68.0402 45.9854 68.0101 46.0625 68.0369C46.1397 68.0637 46.1967 68.1375 46.2738 68.161C46.3509 68.1844 46.418 68.2347 46.4951 68.2582C46.5723 68.2817 46.6426 68.3219 46.7198 68.3454C46.7969 68.3689 46.8673 68.4259 46.9445 68.446C47.0216 68.4661 47.1255 68.399 47.2027 68.4192C47.2798 68.4393 47.3535 68.4795 47.434 68.4963C47.5145 68.5131 47.5782 68.6036 47.6554 68.617C47.7325 68.6304 47.8364 68.5365 47.9136 68.5499C47.9907 68.5634 48.051 68.7042 48.1315 68.7176C48.212 68.731 48.3026 68.6841 48.3797 68.6941C48.4568 68.7042 48.5373 68.7579 48.6144 68.7679C48.6915 68.778 48.7821 68.7344 48.8592 68.7411C48.9363 68.7478 49.0201 68.778 49.1006 68.7813C49.1811 68.7847 49.265 68.7109 49.3454 68.7109C49.4259 68.7109 49.5064 68.7947 49.5869 68.7947C49.6674 68.7947 49.7478 68.7042 49.8249 68.7008C49.9021 68.6975 49.9926 68.778 50.0731 68.7713C50.1536 68.7646 50.2374 68.778 50.3179 68.7713C50.3983 68.7646 50.4621 68.6137 50.5426 68.6036C50.623 68.5935 50.7136 68.6505 50.7907 68.6371C50.8678 68.6237 50.9516 68.6237 51.0321 68.607C51.1126 68.5902 51.1797 68.5231 51.2568 68.5064C51.3339 68.4896 51.4178 68.4896 51.4949 68.4661C51.572 68.4426 51.6726 68.4896 51.7464 68.4661C51.8202 68.4426 51.904 68.4225 51.9811 68.3957C52.0583 68.3689 52.1421 68.3555 52.2159 68.3286C52.2896 68.3018 52.3433 68.2046 52.417 68.1744C52.4908 68.1442 52.5344 68.0436 52.6082 68.0101C52.682 67.9765 52.7826 68.0067 52.8564 67.9698C52.9301 67.9329 52.9871 67.8759 53.0609 67.8357C53.1347 67.7954 53.2051 67.7619 53.2755 67.7217C53.3459 67.6814 53.4499 67.6982 53.5169 67.6546C53.584 67.611 53.6209 67.5171 53.688 67.4735C53.755 67.4299 53.8053 67.3629 53.8724 67.3159C53.9395 67.269 54.0333 67.2656 54.0971 67.2187C54.1608 67.1717 54.2513 67.1516 54.315 67.1013C54.3787 67.051 54.4056 66.9571 54.4693 66.9068C54.533 66.8565 54.5799 66.7861 54.6403 66.7358C54.7007 66.6855 54.7946 66.6687 54.8549 66.6151C54.9153 66.5614 54.9689 66.5011 55.0293 66.4441C55.0897 66.3871 55.1198 66.3066 55.1768 66.2496C55.2338 66.1926 55.2674 66.1154 55.3244 66.0584C55.3814 66.0014 55.4451 65.9511 55.4988 65.8908C55.5524 65.8304 55.6061 65.7734 55.6597 65.713C55.7134 65.6527 55.824 65.6426 55.8743 65.5789C55.9246 65.5152 55.9917 65.4649 56.042 65.4045C56.0923 65.3442 56.1091 65.2503 56.1594 65.1866C56.2097 65.1229 56.2633 65.0625 56.3136 64.9988C56.3639 64.9351 56.4109 64.8714 56.4612 64.8076C56.5115 64.7439 56.5316 64.6601 56.5785 64.5964C56.6255 64.5327 56.6925 64.479 56.7361 64.412C56.7797 64.3449 56.8568 64.2979 56.9004 64.2309C56.944 64.1638 56.934 64.0599 56.9775 63.9928C57.0211 63.9257 57.0178 63.8285 57.0581 63.7581C57.0983 63.6876 57.2224 63.6709 57.2626 63.6005C57.3028 63.53 57.2458 63.4026 57.2861 63.3355C57.3263 63.2685 57.4168 63.2282 57.4571 63.1578C57.4973 63.0874 57.4705 62.9834 57.5108 62.913C57.551 62.8426 57.6348 62.799 57.6717 62.7252C57.7086 62.6515 57.8394 62.6313 57.8762 62.5609C57.9131 62.4905 57.9265 62.4067 57.9601 62.3329C57.9936 62.2591 57.9333 62.1418 57.9702 62.068C58.007 61.9942 58.1512 61.9775 58.1848 61.9037C58.2183 61.8299 58.1244 61.6991 58.1579 61.6254C58.1914 61.5516 58.2552 61.4946 58.2887 61.4208C58.3222 61.347 58.4564 61.3202 58.4899 61.2464C58.5234 61.1727 58.4597 61.0586 58.4899 60.9849C58.5201 60.9111 58.6475 60.8776 58.6777 60.8038C58.7079 60.73 58.7045 60.6428 58.738 60.5657C58.7716 60.4886 58.7749 60.4081 58.8051 60.331C58.8353 60.2539 58.8152 60.1633 58.8454 60.0862C58.8755 60.0091 58.9225 59.9453 58.9526 59.8682C58.9828 59.7911 59.1103 59.7542 59.1371 59.6804C59.1639 59.6067 59.0935 59.4927 59.1203 59.4189C59.1471 59.3451 59.2109 59.2814 59.2377 59.2043C59.2645 59.1271 59.2779 59.05 59.3048 58.9729C59.3316 58.8958 59.3215 58.8086 59.345 58.7314C59.3685 58.6543 59.4993 58.6141 59.5261 58.537C59.5529 58.4598 59.5126 58.3626 59.5361 58.2855C59.5596 58.2083 59.5764 58.1312 59.5999 58.0541C59.6233 57.977 59.7273 57.9233 59.7507 57.8462C59.7742 57.769 59.7206 57.6684 59.744 57.5913C59.7675 57.5142 59.8346 57.4505 59.8547 57.3734C59.8748 57.2962 59.8715 57.2124 59.895 57.1319C59.9184 57.0514 59.9184 56.971 59.9419 56.8938C59.9654 56.8167 60.0459 56.7563 60.066 56.6792C60.0861 56.6021 59.9754 56.4881 59.9955 56.411C60.0156 56.3338 60.18 56.2936 60.2001 56.2165C60.2202 56.1393 60.1632 56.0421 60.1833 55.9616C60.2035 55.8811 60.2538 55.8141 60.2739 55.7369C60.294 55.6598 60.237 55.5626 60.2571 55.4854C60.2772 55.4083 60.2671 55.3245 60.2873 55.244C60.3074 55.1635 60.4248 55.1099 60.4415 55.0327C60.4583 54.9556 60.4013 54.8584 60.418 54.7812C60.4348 54.7041 60.4315 54.6203 60.4483 54.5432C60.465 54.466 60.6058 54.4124 60.6226 54.3353C60.6394 54.2581 60.5723 54.1609 60.5891 54.0838C60.6058 54.0066 60.7366 53.9496 60.7534 53.8725C60.7701 53.7954 60.6461 53.6881 60.6629 53.6076C60.6796 53.5271 60.683 53.45 60.6964 53.3695C60.7098 53.289 60.7266 53.2119 60.7433 53.1348C60.7601 53.0576 60.9278 53.0073 60.9445 52.9269C60.9613 52.8464 60.9244 52.7592 60.9378 52.6787C60.9512 52.5982 61.0217 52.5312 61.0351 52.4507C61.0485 52.3702 60.968 52.2763 60.9814 52.1958C60.9948 52.1154 61.0552 52.0449 61.0686 51.9678C61.082 51.8907 60.9848 51.7901 60.9982 51.713C61.0116 51.6358 61.0586 51.5621 61.072 51.4816C61.0854 51.4011 61.1525 51.3307 61.1625 51.2536C61.1726 51.1764 61.1055 51.0825 61.1156 51.0021C61.1256 50.9216 61.2195 50.8545 61.2329 50.7774C61.2463 50.7003 61.3201 50.6265 61.3302 50.5494C61.3402 50.4722 61.2765 50.3783 61.2899 50.2979C61.3034 50.2174 61.3234 50.1403 61.3369 50.0598C61.3503 49.9793 61.3469 49.8988 61.357 49.8183C61.367 49.7379 61.4006 49.6607 61.414 49.5836C61.4274 49.5065 61.4576 49.426 61.4676 49.3489C61.4777 49.2718 61.404 49.1779 61.414 49.0974C61.4241 49.0169 61.5381 48.9498 61.5481 48.8727C61.5582 48.7956 61.5683 48.7117 61.5783 48.6346C61.5884 48.5575 61.5481 48.4703 61.5582 48.3898C61.5682 48.3094 61.5381 48.2255 61.5481 48.145C61.5582 48.0646 61.642 47.9941 61.6521 47.9137C61.6621 47.8332 61.5481 47.7393 61.5548 47.6588C61.5615 47.5783 61.575 47.5012 61.585 47.4207C61.5951 47.3402 61.689 47.2698 61.6957 47.1893C61.7024 47.1089 61.7728 47.0351 61.7795 46.9546C61.7862 46.8741 61.746 46.7903 61.7527 46.7098C61.7594 46.6293 61.8063 46.5522 61.813 46.4717C61.8197 46.3913 61.7661 46.3074 61.7728 46.2269C61.7795 46.1465 61.7191 46.0593 61.7258 45.9788C61.7326 45.8983 61.7996 45.8245 61.8063 45.7441C61.813 45.6636 61.7594 45.5798 61.7661 45.4993C61.7728 45.4188 61.8935 45.3484 61.9002 45.2679C61.9069 45.1874 61.8365 45.1002 61.8432 45.0198C61.8499 44.9393 61.813 44.8554 61.8164 44.775C61.8197 44.6945 61.8801 44.6174 61.8868 44.5369C61.8935 44.4564 61.9203 44.3793 61.9237 44.2988C61.927 44.2183 61.9572 44.1412 61.9639 44.0607C61.9706 43.9802 62.0075 43.9031 62.0109 43.8226C62.0142 43.7421 61.9304 43.655 61.9337 43.5745C61.9371 43.494 62.0377 43.4202 62.0411 43.3397C62.0444 43.2593 62.0277 43.1788 62.0344 43.0983C62.0411 43.0178 62.0679 42.9373 62.0712 42.8569C62.0746 42.7764 62.0645 42.6959 62.0712 42.6154C62.078 42.535 62.0713 42.4545 62.078 42.374C62.0847 42.2935 62.0277 42.2097 62.031 42.1292C62.0344 42.0487 61.9807 41.9649 61.9841 41.8844C61.9874 41.8039 62.1216 41.7302 62.1249 41.6463C62.1283 41.5625 62.031 41.482 62.031 41.4015C62.031 41.3211 62.1551 41.2439 62.1584 41.1634C62.1618 41.083 62.0209 40.9991 62.0209 40.9187C62.0209 40.8382 62.0545 40.7577 62.0545 40.6772C62.0545 40.5967 62.1752 40.5196 62.1785 40.4391C62.1819 40.3586 62.0813 40.2748 62.0813 40.1943C62.0813 40.1139 62.1785 40.0367 62.1819 39.9529C62.1852 39.8691 62.1014 39.7886 62.1014 39.7081C62.1014 39.6276 62.1115 39.5471 62.1115 39.4667C62.1115 39.3862 62.1652 39.3057 62.1685 39.2252C62.1719 39.1448 62.192 39.0643 62.1953 38.9838C62.1987 38.9033 62.0645 38.8195 62.0645 38.739C62.0645 38.6585 62.1953 38.578 62.1953 38.4976C62.1953 38.4171 62.1584 38.3366 62.1584 38.2561C62.1584 38.1756 62.1182 38.0952 62.1182 38.0147C62.1182 37.9342 62.145 37.8537 62.145 37.7732C62.145 37.6928 62.1819 37.6123 62.1819 37.5318C62.1819 37.4513 62.1148 37.3708 62.1148 37.2904C62.1148 37.2099 62.1349 37.1294 62.1349 37.0489C62.1349 36.9685 62.0813 36.888 62.078 36.8075C62.0746 36.727 62.1014 36.6465 62.1014 36.5661C62.1014 36.4856 62.1886 36.4051 62.1886 36.3213C62.1886 36.2374 62.1651 36.1603 62.1651 36.0798C62.1651 35.9993 62.1048 35.9189 62.1014 35.8384C62.0981 35.7579 62.1618 35.6741 62.1618 35.5936C62.1618 35.5131 62.0645 35.4326 62.0612 35.3522C62.0578 35.2717 62.1719 35.1878 62.1685 35.1074C62.1652 35.0269 62.078 34.9498 62.078 34.8659C62.078 34.7821 62.1316 34.7016 62.1283 34.6211C62.1249 34.5407 62.145 34.4602 62.1417 34.3797C62.1383 34.2992 62.0612 34.2221 62.0578 34.1416C62.0545 34.0611 62.1048 33.9773 62.1014 33.8968C62.0981 33.8163 62.0981 33.7359 62.0947 33.6554C62.0913 33.5749 61.9807 33.4978 61.9773 33.4173C61.974 33.3368 62.0344 33.253 62.031 33.1725C62.0277 33.092 62.0746 33.0082 62.0712 32.9277C62.0679 32.8472 62.0679 32.7668 62.0645 32.6863C62.0612 32.6058 62.0176 32.5253 62.0109 32.4448C62.0042 32.3644 62.0109 32.2839 62.0042 32.2034C61.9975 32.1229 61.9237 32.0458 61.917 31.9653C61.9103 31.8848 61.9874 31.801 61.9807 31.7172C61.974 31.6333 61.9572 31.5562 61.9539 31.4757C61.9505 31.3952 61.9069 31.3148 61.9036 31.2343C61.9002 31.1538 61.9572 31.07 61.9505 30.9895C61.9438 30.909 61.9505 30.8285 61.9505 30.7481C61.9505 30.6676 61.9337 30.5871 61.927 30.5066C61.9203 30.4261 61.8432 30.349 61.8365 30.2685C61.8298 30.1881 61.8432 30.1042 61.8365 30.0237C61.8298 29.9433 61.8801 29.8594 61.8734 29.779C61.8667 29.6985 61.7527 29.6247 61.7493 29.5442C61.746 29.4637 61.8834 29.3698 61.8801 29.2894C61.8767 29.2089 61.8633 29.1284 61.8566 29.0479C61.8499 28.9674 61.7091 28.897 61.7024 28.8165C61.6957 28.7361 61.7761 28.6489 61.7694 28.5684C61.7627 28.4879 61.7326 28.4074 61.7258 28.327C61.7191 28.2465 61.7963 28.1593 61.7896 28.0788C61.7829 27.9983 61.6353 27.9313 61.6286 27.8508C61.6219 27.7703 61.6018 27.6898 61.5917 27.6094C61.5816 27.5289 61.5817 27.4484 61.575 27.3679C61.5683 27.2874 61.6018 27.2036 61.5917 27.1231C61.5816 27.0426 61.5682 26.9622 61.5615 26.8817C61.5548 26.8012 61.5615 26.7174 61.5548 26.6369C61.5481 26.5564 61.6286 26.4659 61.6186 26.3854C61.6085 26.3049 61.4945 26.2345 61.4844 26.154C61.4744 26.0735 61.4576 25.9931 61.4475 25.9126C61.4375 25.8321 61.5347 25.7382 61.5247 25.6577C61.5146 25.5772 61.4106 25.5068 61.4006 25.4263C61.3905 25.3459 61.4878 25.252 61.4777 25.1715C61.4676 25.091 61.3603 25.024 61.3503 24.9435C61.3402 24.863 61.3536 24.7792 61.3436 24.6987C61.3335 24.6182 61.2598 24.5478 61.2463 24.4673C61.2329 24.3868 61.3738 24.2862 61.3637 24.2057C61.3536 24.1253 61.3067 24.0481 61.2966 23.9677C61.2866 23.8872 61.196 23.8168 61.186 23.7363C61.1759 23.6558 61.1692 23.5753 61.1592 23.4948C61.1491 23.4144 61.0988 23.3406 61.0854 23.2601C61.0719 23.1796 61.0787 23.0958 61.0686 23.0187C61.0585 22.9415 61.1223 22.8477 61.1088 22.7672C61.0954 22.6867 61.0585 22.6096 61.0485 22.5291C61.0384 22.4486 61.0585 22.3648 61.0485 22.2843C61.0384 22.2038 60.9211 22.1401 60.9077 22.0596C60.8942 21.9791 60.9546 21.8886 60.9412 21.8081C60.9278 21.7276 60.9244 21.6472 60.9144 21.5667C60.9043 21.4862 60.8506 21.4124 60.8406 21.332C60.8305 21.2515 60.7702 21.1777 60.7601 21.1006C60.75 21.0234 60.7702 20.9329 60.7601 20.8558C60.75 20.7787 60.8004 20.6848 60.7869 20.6043C60.7735 20.5238 60.7198 20.45 60.7064 20.3729C60.693 20.2958 60.626 20.222 60.6126 20.1415C60.5992 20.061 60.626 19.9739 60.6126 19.8967C60.5992 19.8196 60.569 19.7391 60.5555 19.6587C60.5421 19.5782 60.579 19.491 60.5623 19.4105C60.5455 19.33 60.5622 19.2462 60.5488 19.1657C60.5354 19.0852 60.4348 19.0215 60.4214 18.941C60.408 18.8606 60.3946 18.7801 60.3812 18.703C60.3678 18.6258 60.3007 18.5554 60.2839 18.4749C60.2672 18.3945 60.3141 18.3039 60.2973 18.2234C60.2806 18.143 60.2135 18.0759 60.1968 17.9954C60.18 17.9149 60.2672 17.8143 60.2537 17.7372C60.2403 17.6601 60.1934 17.5829 60.1766 17.5058C60.1599 17.4287 60.1632 17.3415 60.1464 17.2644C60.1297 17.1873 60.1464 17.0967 60.133 17.0196C60.1196 16.9425 60.066 16.8687 60.0492 16.7882C60.0324 16.7077 59.8983 16.6574 59.8815 16.577C59.8648 16.4965 59.9486 16.3959 59.9285 16.3188C59.9084 16.2416 59.8212 16.1779 59.801 16.0974C59.7809 16.017 59.7407 15.9465 59.7239 15.8661C59.7072 15.7856 59.7776 15.6883 59.7608 15.6078C59.744 15.5274 59.7306 15.4469 59.7105 15.3698C59.6904 15.2926 59.6334 15.2222 59.6133 15.1451C59.5932 15.068 59.6233 14.9741 59.6032 14.8969C59.5831 14.8198 59.6032 14.7293 59.5831 14.6522C59.563 14.575 59.4456 14.5214 59.4255 14.4409C59.4054 14.3604 59.4724 14.2598 59.4523 14.1827C59.4322 14.1056 59.2947 14.0553 59.2746 13.9781C59.2545 13.901 59.2008 13.8306 59.1807 13.7535C59.1606 13.6763 59.2779 13.559 59.2578 13.4818C59.2377 13.4047 59.1975 13.3309 59.174 13.2538C59.1505 13.1767 59.0197 13.1298 58.9962 13.0526C58.9728 12.9755 58.9963 12.885 58.9728 12.8078C58.9493 12.7307 58.9895 12.6335 58.9661 12.5563C58.9426 12.4792 58.8219 12.4289 58.7984 12.3518C58.7749 12.2747 58.8487 12.1674 58.8252 12.0902C58.8017 12.0131 58.7649 11.9393 58.7414 11.8622C58.7179 11.7851 58.7012 11.7046 58.6777 11.6275C58.6542 11.5503 58.5234 11.5067 58.5 11.4296C58.4765 11.3525 58.4564 11.2754 58.4296 11.1982C58.4027 11.1211 58.4094 11.0339 58.3826 10.9602C58.3558 10.8864 58.3558 10.7992 58.3289 10.7221C58.3021 10.6449 58.2485 10.5779 58.2217 10.5041C58.1948 10.4303 58.1613 10.3532 58.1345 10.2794C58.1076 10.2057 58.1847 10.0883 58.1579 10.0145C58.1311 9.94075 57.9635 9.91392 57.9333 9.84015C57.9031 9.76638 58.0037 9.6423 57.9769 9.56518C57.95 9.48805 57.8896 9.42434 57.8595 9.35057C57.8293 9.27679 57.7455 9.22314 57.7153 9.14601C57.6851 9.06889 57.6851 8.98506 57.6549 8.90793C57.6247 8.8308 57.5342 8.78386 57.504 8.71009C57.4739 8.63631 57.4269 8.56589 57.3967 8.49212C57.3665 8.41835 57.3464 8.33787 57.3129 8.26409C57.2793 8.19032 57.3598 8.06625 57.3263 7.99248C57.2928 7.9187 57.1754 7.88182 57.1419 7.8114C57.1084 7.74098 57.115 7.64708 57.0815 7.57331C57.048 7.49954 57.0446 7.41235 57.0078 7.34193C56.9709 7.27151 56.9474 7.19103 56.9105 7.12061C56.8736 7.0502 56.773 7.00996 56.7361 6.93954C56.6992 6.86912 56.6422 6.8054 56.6053 6.73498C56.5684 6.66456 56.5181 6.60085 56.4779 6.53043C56.4377 6.46001 56.4511 6.36277 56.4109 6.29235C56.3706 6.22193 56.317 6.16157 56.2767 6.09115C56.2365 6.02073 56.213 5.9436 56.1728 5.87318C56.1325 5.80276 56.089 5.7357 56.0487 5.66863C56.0085 5.60156 56.0085 5.50432 55.9649 5.43725C55.9213 5.37019 55.814 5.34336 55.7704 5.27629C55.7268 5.20923 55.6899 5.13545 55.6463 5.06839C55.6027 5.00132 55.6195 4.89066 55.5725 4.82695C55.5256 4.76324 55.5021 4.67605 55.4552 4.61234C55.4082 4.54862 55.3311 4.50168 55.2841 4.43796C55.2372 4.37425 55.2104 4.28707 55.1634 4.22671C55.1165 4.16635 55.0427 4.11605 54.9924 4.05233C54.9421 3.98862 54.8549 3.95509 54.8046 3.89473C54.7543 3.83437 54.6303 3.83772 54.5766 3.77736C54.5229 3.717 54.4693 3.66 54.4123 3.60299C54.3553 3.54598 54.3016 3.48898 54.2446 3.43532C54.1876 3.38167 54.2245 3.21736 54.1675 3.16371C54.1105 3.11005 54.0266 3.07652 53.9663 3.02622C53.9059 2.97592 53.7785 3.00275 53.7148 2.9558C53.6511 2.90885 53.5874 2.86191 53.5237 2.81496C53.4599 2.76801 53.4264 2.67077 53.3593 2.63053C53.2923 2.59029 53.252 2.48969 53.185 2.44945C53.1179 2.40921 52.9972 2.45951 52.9234 2.42598C52.8496 2.39244 52.7625 2.39915 52.6887 2.36897C52.6149 2.33879 52.5713 2.22143 52.4975 2.1946C52.4238 2.16777 52.3534 2.10741 52.2762 2.08729C52.1991 2.06717 52.1052 2.09735 52.0281 2.08729C51.951 2.07723 51.8705 2.04035 51.79 2.03029C51.7095 2.02023 51.6257 2.08059 51.5452 2.07723C51.4647 2.07388 51.3809 1.99675 51.3038 2.00011C51.2266 2.00346 51.1428 2.05711 51.0623 2.06382C50.9819 2.07053 50.9013 2.07388 50.8209 2.08394C50.7404 2.094 50.6767 2.19795 50.5996 2.21137C50.5225 2.22478 50.4151 2.12083 50.338 2.14095C50.2609 2.16107 50.1871 2.20466 50.11 2.22813C50.0328 2.2516 49.9524 2.27508 49.8786 2.30526C49.8048 2.33544 49.7176 2.34885 49.6472 2.38574C49.5768 2.42262 49.5064 2.46957 49.4359 2.50981C49.3655 2.55005 49.3119 2.61712 49.2448 2.66071C49.1778 2.7043 49.0705 2.70095 49.0068 2.74789C48.943 2.79484 48.8994 2.87867 48.8391 2.93233C48.7787 2.98598 48.6982 3.02287 48.6412 3.07987C48.5842 3.13688 48.5541 3.22071 48.5004 3.28107C48.4467 3.34143 48.4132 3.41856 48.3629 3.48227C48.3126 3.54598 48.2321 3.58622 48.1852 3.64994C48.1382 3.71365 48.0712 3.7673 48.0242 3.83772C47.9773 3.90814 47.937 3.97521 47.8968 4.04563C47.8565 4.11605 47.8264 4.19317 47.7861 4.26359C47.7459 4.33401 47.7727 4.43796 47.7358 4.50838C47.6989 4.5788 47.6051 4.6224 47.5715 4.69617C47.538 4.76994 47.5011 4.84372 47.4709 4.91749C47.4407 4.99126 47.481 5.09521 47.4542 5.16899C47.4273 5.24276 47.4508 5.33665 47.424 5.41378C47.3971 5.4909 47.2563 5.52444 47.2295 5.60492C47.2027 5.6854 47.3033 5.7927 47.2798 5.86983C47.2563 5.94696 47.2194 6.01737 47.1993 6.0945C47.1792 6.17163 47.0484 6.22193 47.0283 6.29905C47.0082 6.37618 46.9914 6.45666 46.9746 6.53378C46.9579 6.61091 47.0819 6.71822 47.0652 6.7987C47.0484 6.87918 46.9981 6.94624 46.9847 7.02672C46.9713 7.1072 46.9646 7.18433 46.9512 7.26481C46.9378 7.34529 46.8673 7.41235 46.8573 7.49283C46.8472 7.57331 46.7902 7.64373 46.7768 7.72421C46.7634 7.80469 46.8808 7.89858 46.8707 7.97906C46.8606 8.05954 46.817 8.13331 46.8103 8.21379C46.8036 8.29427 46.7869 8.3714 46.7801 8.45188C46.7734 8.53236 46.7097 8.60613 46.703 8.68661C46.6963 8.76709 46.75 8.85092 46.7466 8.9314C46.7433 9.01188 46.7097 9.08901 46.7063 9.16949C46.703 9.24997 46.7063 9.33045 46.7063 9.41093C46.7063 9.49141 46.6795 9.56853 46.6795 9.64901C46.6795 9.72949 46.6158 9.80662 46.6125 9.8871C46.6091 9.96758 46.646 10.0481 46.646 10.1285C46.646 10.209 46.6762 10.2861 46.6762 10.3666C46.6762 10.4471 46.7332 10.5242 46.7332 10.6047C46.7332 10.6852 46.6695 10.7657 46.6728 10.8461C46.6762 10.9266 46.6259 11.0071 46.6259 11.0876C46.6259 11.1681 46.703 11.2452 46.7063 11.3257C46.7097 11.4061 46.7567 11.4833 46.76 11.5638C46.7634 11.6442 46.6795 11.7281 46.6829 11.8085C46.6862 11.889 46.6829 11.9695 46.6896 12.05C46.6963 12.1305 46.7567 12.2042 46.76 12.2847C46.7634 12.3652 46.8204 12.439 46.8271 12.5194C46.8338 12.5999 46.7466 12.6871 46.7533 12.7642C46.76 12.8414 46.7366 12.9252 46.7433 13.0057C46.75 13.0862 46.8271 13.1599 46.8338 13.2371C46.8405 13.3142 46.864 13.3947 46.8707 13.4751C46.8774 13.5556 46.9109 13.6327 46.9176 13.7099C46.9243 13.787 46.8137 13.8809 46.8237 13.9614C46.8338 14.0419 46.8942 14.1123 46.9042 14.1928C46.9143 14.2732 46.9511 14.347 46.9612 14.4275C46.9713 14.508 47.0115 14.5817 47.0216 14.6622C47.0316 14.7427 46.9445 14.8332 46.9545 14.9137C46.9646 14.9942 47.0618 15.0613 47.0719 15.1384C47.0819 15.2155 47.1289 15.2926 47.1423 15.3698C47.1557 15.4469 47.0316 15.5475 47.045 15.628C47.0584 15.7084 47.1993 15.7655 47.2127 15.8459C47.2261 15.9264 47.1423 16.0203 47.1557 16.0974C47.1691 16.1746 47.1993 16.2517 47.2127 16.3322C47.2261 16.4126 47.2127 16.4931 47.2295 16.5736C47.2462 16.6541 47.3703 16.7111 47.3837 16.7882C47.3971 16.8653 47.3905 16.9492 47.4072 17.0297C47.424 17.1101 47.32 17.2107 47.3368 17.2879C47.3535 17.365 47.5145 17.4153 47.5313 17.4958C47.5481 17.5762 47.4508 17.6768 47.4642 17.754C47.4776 17.8311 47.6117 17.8881 47.6285 17.9652C47.6453 18.0424 47.6017 18.1329 47.6185 18.2134C47.6352 18.2939 47.6688 18.3676 47.6855 18.4448C47.7023 18.5219 47.6688 18.6124 47.6855 18.6895C47.7023 18.7667 47.7995 18.827 47.8197 18.9075C47.8398 18.988 47.7392 19.0919 47.7559 19.1691C47.7727 19.2462 47.7727 19.33 47.7929 19.4072C47.813 19.4843 47.8867 19.5513 47.9069 19.6285C47.927 19.7056 47.9538 19.7827 47.9739 19.8598C47.994 19.937 47.994 20.0208 48.0141 20.0979C48.0343 20.1751 48.1449 20.2287 48.1651 20.3092C48.1852 20.3897 48.1014 20.4903 48.1215 20.5674C48.1416 20.6445 48.1583 20.725 48.1785 20.8021C48.1986 20.8793 48.2958 20.9363 48.316 21.0167C48.3361 21.0972 48.3897 21.1643 48.4099 21.2414C48.43 21.3185 48.4501 21.3957 48.4702 21.4728C48.4903 21.5499 48.4501 21.6438 48.4702 21.7209C48.4903 21.7981 48.5809 21.8551 48.6043 21.9322C48.6278 22.0093 48.5909 22.1032 48.6144 22.1803C48.6379 22.2575 48.7083 22.3212 48.7284 22.3983C48.7485 22.4754 48.7385 22.5626 48.7619 22.6397C48.7854 22.7169 48.8055 22.794 48.829 22.8711C48.8525 22.9482 48.8726 23.0254 48.8961 23.1025C48.9195 23.1796 48.9967 23.24 49.0201 23.3171C49.0436 23.3942 49.0336 23.4814 49.0604 23.5586C49.0872 23.6357 49.0302 23.7363 49.057 23.8134C49.0838 23.8905 49.1006 23.9677 49.1241 24.0448C49.1476 24.1219 49.1476 24.2057 49.1744 24.2829C49.2012 24.36 49.3655 24.3902 49.3924 24.4673C49.4192 24.5444 49.436 24.6216 49.4628 24.6987C49.4896 24.7758 49.4393 24.8764 49.4628 24.9535C49.4863 25.0307 49.5768 25.0843 49.6036 25.1614C49.6304 25.2386 49.6137 25.3291 49.6405 25.4029C49.6673 25.4766 49.6908 25.5571 49.7177 25.6309C49.7445 25.7047 49.7948 25.7751 49.8216 25.8489C49.8484 25.9226 49.8417 26.0132 49.8685 26.087C49.8954 26.1607 49.939 26.2311 49.9658 26.3083C49.9926 26.3854 50.0161 26.4592 50.0463 26.5363C50.0765 26.6134 50.0899 26.6905 50.1167 26.7677C50.1435 26.8448 50.1033 26.9454 50.1335 27.0192C50.1636 27.0929 50.2441 27.15 50.2709 27.2237C50.2977 27.2975 50.3984 27.3478 50.4286 27.4216C50.4587 27.4953 50.3715 27.6161 50.4017 27.6898C50.4319 27.7636 50.5526 27.8038 50.5828 27.8776C50.613 27.9514 50.6029 28.0419 50.6331 28.1157C50.6633 28.1895 50.7169 28.2565 50.7471 28.3303C50.7773 28.4041 50.8276 28.4712 50.8577 28.5449C50.8879 28.6187 50.841 28.726 50.8712 28.7998C50.9014 28.8736 51.0388 28.9037 51.069 28.9809C51.0992 29.058 51.0019 29.1821 51.0321 29.2558C51.0623 29.3296 51.1864 29.3665 51.2199 29.4403C51.2535 29.514 51.2769 29.5912 51.3105 29.6649C51.344 29.7387 51.3675 29.8158 51.401 29.8896C51.4345 29.9634 51.411 30.0606 51.4446 30.1344C51.4781 30.2082 51.6056 30.2384 51.6391 30.3121C51.6726 30.3859 51.6357 30.4899 51.6693 30.5636C51.7028 30.6374 51.7464 30.7045 51.7799 30.7782C51.8134 30.852 51.8872 30.9057 51.9208 30.9794C51.9543 31.0532 51.9979 31.1203 52.0314 31.194C52.0649 31.2678 51.9677 31.402 52.0012 31.4757C52.0348 31.5495 52.1219 31.5964 52.1555 31.6702C52.189 31.744 52.1958 31.8278 52.2326 31.9016C52.2695 31.9754 52.3802 32.0089 52.4137 32.0827C52.4472 32.1564 52.4372 32.2503 52.4707 32.3241C52.5042 32.3979 52.6149 32.4314 52.6518 32.5052C52.6887 32.579 52.6652 32.6796 52.6988 32.75C52.7323 32.8204 52.7826 32.8875 52.8195 32.9612C52.8564 33.035 52.806 33.149 52.8429 33.2194C52.8798 33.2899 52.9469 33.3469 52.9838 33.4206C53.0207 33.4944 53.1514 33.5179 53.1883 33.5883C53.2252 33.6587 53.2688 33.7258 53.3057 33.7996C53.3426 33.8733 53.3694 33.9471 53.4063 34.0209C53.4432 34.0947 53.4197 34.1953 53.4566 34.2657C53.4935 34.3361 53.5438 34.4032 53.5806 34.4736C53.6175 34.544 53.6377 34.6245 53.6779 34.6983C53.7181 34.772 53.8288 34.7989 53.8691 34.8693C53.9093 34.9397 53.859 35.0571 53.8992 35.1275C53.9395 35.1979 53.9428 35.2884 53.9797 35.3589C54.0166 35.4293 54.0434 35.5098 54.0836 35.5802C54.1239 35.6506 54.1977 35.7009 54.2379 35.7713C54.2782 35.8417 54.3418 35.8987 54.3787 35.9692C54.4156 36.0396 54.5062 36.0798 54.5464 36.1502C54.5866 36.2207 54.533 36.3447 54.5732 36.4152C54.6135 36.4856 54.6571 36.5526 54.6973 36.6231C54.7376 36.6935 54.8482 36.7237 54.8884 36.7907C54.9287 36.8578 54.9991 36.9114 55.0394 36.9819C55.0796 37.0523 55.0628 37.1562 55.1064 37.2233C55.15 37.2904 55.1902 37.3608 55.2305 37.4312C55.2707 37.5016 55.3345 37.5553 55.378 37.6257C55.4216 37.6961 55.482 37.7498 55.5256 37.8202C55.5692 37.8906 55.539 38.0013 55.5826 38.0717C55.6262 38.1421 55.7771 38.1388 55.8207 38.2058C55.8643 38.2729 55.814 38.4003 55.8575 38.4707C55.9011 38.5412 55.9716 38.5881 56.0151 38.6552C56.0587 38.7222 56.0688 38.8128 56.1124 38.8798C56.156 38.9469 56.1795 39.0307 56.223 39.0978C56.2666 39.1649 56.3237 39.2252 56.3673 39.2923C56.4109 39.3594 56.4779 39.413 56.5249 39.4801C56.5718 39.5471 56.6422 39.5941 56.6892 39.6612C56.7361 39.7282 56.8334 39.7584 56.8803 39.8221C56.9273 39.8858 56.9273 39.9864 56.9742 40.0535C57.0212 40.1206 57.0514 40.1943 57.0983 40.2614C57.1452 40.3285 57.1452 40.4257 57.1922 40.4928C57.2391 40.5598 57.3095 40.6068 57.3565 40.6739C57.4034 40.7409 57.4705 40.7912 57.5175 40.8549C57.5644 40.9187 57.6449 40.9622 57.6918 41.026C57.7387 41.0897 57.7388 41.1936 57.7857 41.2573C57.8327 41.3211 57.95 41.3345 58.0003 41.3982C58.0506 41.4619 58.0339 41.5759 58.0808 41.6396C58.1277 41.7033 58.2217 41.7335 58.272 41.7972C58.3223 41.8609 58.4128 41.8911 58.4631 41.9548C58.5134 42.0185 58.567 42.0755 58.6173 42.1393C58.6676 42.203 58.6643 42.3103 58.7146 42.3706C58.7649 42.431 58.8454 42.4712 58.8957 42.5349C58.946 42.5987 59.0063 42.6523 59.06 42.7127C59.1136 42.773 59.0902 42.8971 59.1438 42.9608C59.1975 43.0245 59.3182 43.0245 59.3685 43.0849C59.4188 43.1453 59.4657 43.2123 59.5194 43.2727C59.573 43.333 59.6401 43.38 59.6938 43.4403C59.7474 43.5007 59.744 43.6114 59.7977 43.6717C59.8513 43.7321 59.8715 43.8226 59.9251 43.883C59.9788 43.9433 60.0659 43.9735 60.1196 44.0339C60.1732 44.0942 60.2705 44.1144 60.3242 44.1747C60.3778 44.2351 60.4717 44.2552 60.5287 44.3122C60.5857 44.3692 60.6226 44.443 60.6796 44.5033C60.7366 44.5637 60.7635 44.6475 60.8205 44.7045C60.8775 44.7615 60.9345 44.8186 60.9915 44.8756C61.0485 44.9326 61.0854 45.013 61.1424 45.0667C61.1994 45.1204 61.3101 45.1271 61.3671 45.1841C61.4241 45.2411 61.4308 45.3484 61.4878 45.4054C61.5448 45.4624 61.6688 45.449 61.7258 45.506C61.7829 45.563 61.8231 45.6368 61.8834 45.6904C61.9438 45.7441 62.0176 45.781 62.078 45.8346C62.1383 45.8883 62.1752 45.9654 62.2356 46.019C62.2959 46.0727 62.3462 46.1364 62.4066 46.1901C62.4669 46.2437 62.5675 46.2504 62.6279 46.3007C62.6883 46.351 62.6614 46.512 62.7218 46.5623C62.7821 46.6126 62.923 46.5757 62.9833 46.626C63.0437 46.6763 63.0605 46.7836 63.1242 46.8339C63.1879 46.8842 63.2851 46.8909 63.3488 46.9412C63.4126 46.9915 63.4159 47.1156 63.4796 47.1659C63.5433 47.2162 63.6238 47.243 63.6909 47.2899C63.7579 47.3369 63.825 47.3805 63.8888 47.4308C63.9525 47.4811 64.0229 47.5213 64.0899 47.5683C64.157 47.6152 64.2542 47.6152 64.3213 47.6588C64.3884 47.7024 64.4052 47.8198 64.4722 47.8667C64.5393 47.9137 64.5862 47.9841 64.6533 48.0277C64.7203 48.0713 64.8377 48.0411 64.9048 48.0847C64.9718 48.1283 64.9786 48.2658 65.0456 48.3094C65.1127 48.3529 65.2368 48.3093 65.3072 48.3496C65.3776 48.3898 65.391 48.5206 65.4614 48.5608C65.5319 48.6011 65.6425 48.5709 65.7129 48.6145C65.7834 48.6581 65.8068 48.7721 65.8772 48.8123C65.9477 48.8526 66.0315 48.8694 66.1019 48.9062C66.1724 48.9431 66.2931 48.8895 66.3635 48.9297C66.4339 48.97 66.4842 49.0471 66.5546 49.084C66.625 49.1209 66.682 49.1913 66.7525 49.2282C66.8229 49.265 66.9403 49.208 67.014 49.2449C67.0878 49.2818 67.1515 49.3321 67.2219 49.3656C67.2923 49.3992 67.3661 49.4327 67.4399 49.4629C67.5137 49.4931 67.5505 49.6138 67.6243 49.644C67.6981 49.6741 67.7853 49.6742 67.8591 49.7043C67.9328 49.7345 68.0167 49.7379 68.0938 49.768C68.1709 49.7982 68.2614 49.7781 68.3386 49.8049C68.4157 49.8318 68.4459 49.9793 68.523 50.0061C68.6001 50.033 68.7175 49.9357 68.7947 49.9625C68.8718 49.9894 68.9422 50.0195 69.0193 50.043C69.0964 50.0665 69.1702 50.0933 69.2473 50.1168C69.3245 50.1403 69.3882 50.204 69.4653 50.2241C69.5424 50.2442 69.6095 50.3079 69.6866 50.328C69.7637 50.3482 69.8308 50.4186 69.9079 50.4387C69.9851 50.4588 70.0722 50.4521 70.1494 50.4689C70.2265 50.4857 70.3237 50.4219 70.4009 50.4354C70.478 50.4488 70.5619 50.4521 70.639 50.4655C70.7161 50.4789 70.7865 50.5427 70.867 50.5561C70.9475 50.5695 71.0212 50.6064 71.1017 50.6164C71.1822 50.6265 71.256 50.6768 71.3365 50.6868C71.4169 50.6969 71.5008 50.6701 71.5812 50.6801C71.6617 50.6902 71.7489 50.6097 71.8294 50.6164C71.9099 50.6231 71.9769 50.7774 72.0574 50.7841C72.1379 50.7908 72.2284 50.6533 72.3089 50.6567C72.3894 50.66 72.4665 50.774 72.547 50.7774C72.6275 50.7807 72.7113 50.7036 72.7918 50.7036C72.8723 50.7036 72.9561 50.7874 73.0366 50.7874C73.117 50.7874 73.1942 50.6399 73.2747 50.6366C73.3552 50.6332 73.439 50.6734 73.5161 50.6667C73.5932 50.66 73.6871 50.774 73.7676 50.7673C73.8481 50.7606 73.9252 50.6969 74.0057 50.6902C74.0862 50.6835 74.1733 50.7036 74.2505 50.6902C74.3276 50.6768 74.4081 50.6399 74.4852 50.6265C74.5623 50.6131 74.6495 50.6097 74.7266 50.5963C74.8038 50.5829 74.8809 50.5393 74.958 50.5192C75.0351 50.4991 75.1257 50.5125 75.2028 50.4924C75.28 50.4722 75.3202 50.3113 75.3973 50.2878C75.4744 50.2643 75.5549 50.2576 75.632 50.2308C75.7091 50.204 75.7997 50.2207 75.8735 50.1939C75.9473 50.1671 76.0612 50.2308 76.135 50.2006C76.2088 50.1704 76.2457 50.0464 76.3195 50.0128C76.3932 49.9793 76.4838 49.986 76.5575 49.9491C76.6313 49.9122 76.7152 49.8988 76.7856 49.8619C76.856 49.8251 76.9465 49.815 77.0169 49.7747C77.0874 49.7345 77.0807 49.5601 77.1477 49.5199C77.2148 49.4797 77.2986 49.4629 77.3691 49.4193C77.4395 49.3757 77.5568 49.4092 77.6206 49.3623C77.6843 49.3153 77.7647 49.2852 77.8285 49.2349C77.8922 49.1846 77.9358 49.1108 77.9995 49.0605C78.0632 49.0102 78.1571 49.0001 78.2208 48.9465C78.2845 48.8928 78.3046 48.7956 78.365 48.7419C78.4253 48.6883 78.4891 48.638 78.5494 48.5843C78.6098 48.5307 78.6903 48.4971 78.7473 48.4401C78.8043 48.3831 78.8646 48.3295 78.9216 48.2725C78.9786 48.2155 79.0055 48.1283 79.0591 48.0713C79.1128 48.0143 79.1698 47.9539 79.2234 47.8935C79.2771 47.8332 79.257 47.7125 79.3106 47.6487C79.3643 47.585 79.5185 47.6085 79.5655 47.5448C79.6124 47.4811 79.5923 47.3604 79.6393 47.2966C79.6862 47.2329 79.6962 47.1424 79.7465 47.0753C79.7968 47.0083 79.9444 47.0183 79.9913 46.9513C80.0383 46.8842 80.0718 46.8104 80.1188 46.7434C80.1657 46.6763 80.0953 46.5388 80.1389 46.4684C80.1825 46.398 80.2864 46.3711 80.3267 46.3041C80.3669 46.237 80.377 46.1498 80.4172 46.0794C80.4574 46.009 80.5748 45.9855 80.6151 45.9117C80.6553 45.838 80.6385 45.7407 80.6754 45.6703C80.7123 45.5999 80.7358 45.5227 80.7727 45.449C80.8096 45.3752 80.9068 45.335 80.9437 45.2645C80.9806 45.1941 80.9403 45.0835 80.9739 45.0097C81.0074 44.9359 81.1315 44.9057 81.165 44.832C81.1985 44.7582 81.2388 44.6878 81.2723 44.614C81.3059 44.5402 81.2723 44.4396 81.3025 44.3659C81.3327 44.2921 81.3427 44.2083 81.3729 44.1345C81.4031 44.0607 81.3997 43.9735 81.4266 43.8964C81.4534 43.8193 81.6177 43.7958 81.6479 43.722C81.6781 43.6483 81.6747 43.5611 81.7016 43.4839C81.7284 43.4068 81.6512 43.2962 81.6781 43.219C81.7049 43.1419 81.7116 43.0614 81.7384 42.9843C81.7653 42.9072 81.8457 42.8502 81.8692 42.773C81.8927 42.6959 81.9128 42.6188 81.9363 42.5417C81.9597 42.4645 82.0838 42.4176 82.1073 42.3405C82.1308 42.2633 82.0067 42.1426 82.0268 42.0655C82.0469 41.9884 82.0737 41.9112 82.0972 41.8341C82.1207 41.757 82.1308 41.6765 82.1509 41.5994C82.171 41.5223 82.2146 41.4485 82.2347 41.3713C82.2548 41.2942 82.3755 41.2406 82.3957 41.1634C82.4158 41.0863 82.3521 40.9891 82.3722 40.9086C82.3923 40.8281 82.389 40.7476 82.4091 40.6705C82.4292 40.5934 82.5399 40.533 82.5566 40.4559C82.5734 40.3788 82.5734 40.2949 82.5901 40.2178C82.6069 40.1407 82.627 40.0602 82.6438 39.9831C82.6606 39.906 82.6203 39.8154 82.6371 39.7349C82.6539 39.6545 82.731 39.5874 82.7444 39.5103C82.7578 39.4331 82.7377 39.3459 82.7511 39.2655C82.7646 39.185 82.6908 39.0911 82.7042 39.014C82.7176 38.9368 82.731 38.8564 82.7444 38.7759C82.7578 38.6954 82.8014 38.6216 82.8148 38.5412C82.8282 38.4607 82.8148 38.3768 82.8249 38.2997C82.835 38.2226 82.8819 38.1455 82.892 38.065C82.902 37.9845 82.9288 37.9074 82.9389 37.8269C82.949 37.7464 83.0328 37.676 83.0429 37.5955C83.0529 37.515 83.0663 37.4346 83.0764 37.3541C83.0865 37.2736 83.0797 37.1931 83.0898 37.1126C83.0998 37.0322 83.1468 36.955 83.1535 36.8746C83.1602 36.7941 83.0261 36.7002 83.0362 36.6197C83.0462 36.5392 83.1133 36.4655 83.1234 36.385C83.1334 36.3045 83.063 36.2173 83.0697 36.1368C83.0764 36.0563 83.1099 35.9792 83.1166 35.8987C83.1233 35.8183 83.1636 35.7411 83.1703 35.6607C83.177 35.5802 83.281 35.5064 83.2877 35.4259C83.2944 35.3454 83.1904 35.2549 83.1938 35.1744C83.1971 35.0939 83.3044 35.0202 83.3111 34.9397C83.3178 34.8592 83.3379 34.7787 83.3413 34.6983C83.3446 34.6178 83.3246 34.5339 83.3313 34.4535C83.338 34.373 83.2206 34.2858 83.2273 34.2053C83.234 34.1248 83.3782 34.0511 83.3816 33.9706C83.3849 33.8901 83.2642 33.8029 83.2675 33.7224C83.2709 33.642 83.3782 33.5648 83.3816 33.4844C83.3849 33.4039 83.3815 33.3234 83.3849 33.2429C83.3882 33.1624 83.3514 33.0786 83.3514 32.9981C83.3514 32.9176 83.3916 32.8372 83.3916 32.7567C83.3916 32.6762 83.4151 32.5957 83.4184 32.5153C83.4218 32.4348 83.4117 32.3543 83.4151 32.2738C83.4184 32.1933 83.4151 32.1129 83.4151 32.0324C83.4151 31.9519 83.338 31.8681 83.338 31.7876C83.338 31.7071 83.3313 31.6266 83.3313 31.5461C83.3313 31.4657 83.3212 31.3852 83.3212 31.3047C83.3212 31.2242 83.3145 31.1437 83.3145 31.0633C83.3145 30.9828 83.3044 30.9023 83.3044 30.8218C83.3044 30.7414 83.4084 30.6575 83.4084 30.577C83.4084 30.4966 83.3614 30.4161 83.3614 30.3356C83.3614 30.2551 83.4151 30.1713 83.4117 30.0908C83.4084 30.0103 83.3044 29.9298 83.3044 29.8494C83.3044 29.7689 83.3849 29.6851 83.3849 29.6046C83.3849 29.5241 83.3983 29.4436 83.395 29.3631C83.3916 29.2827 83.2944 29.2055 83.291 29.1251C83.2877 29.0446 83.3648 28.9607 83.3648 28.8803C83.3648 28.7998 83.348 28.7193 83.3446 28.6388C83.3413 28.5583 83.2843 28.4779 83.2809 28.4007C83.2776 28.3236 83.3313 28.2364 83.3279 28.1559C83.3245 28.0755 83.3681 27.9916 83.3648 27.9112C83.3614 27.8307 83.3614 27.7502 83.3581 27.6697C83.3547 27.5892 83.2206 27.5155 83.2172 27.435C83.2139 27.3545 83.2709 27.2707 83.2675 27.1902C83.2642 27.1097 83.1938 27.0326 83.1904 26.9521C83.1871 26.8716 83.1535 26.7911 83.1468 26.714C83.1401 26.6369 83.1468 26.5531 83.1401 26.4726C83.1334 26.3921 83.187 26.3083 83.1837 26.2278C83.1803 26.1473 83.1636 26.0668 83.1569 25.9864C83.1502 25.9059 83.2273 25.8187 83.2206 25.7382C83.2139 25.6577 83.1904 25.5772 83.1837 25.4968C83.177 25.4163 83.0798 25.3425 83.073 25.262C83.0663 25.1816 83.0831 25.0977 83.0764 25.0172C83.0697 24.9368 83.0496 24.8563 83.0429 24.7792C83.0362 24.702 83.1032 24.6115 83.0965 24.531C83.0898 24.4505 82.9624 24.3801 82.9557 24.303C82.949 24.2225 82.9355 24.142 82.9288 24.0649C82.9188 23.9811 83.063 23.8872 83.0529 23.8101C83.0428 23.7262 82.9691 23.6524 82.959 23.5787C82.949 23.4948 82.8886 23.4211 82.8786 23.3473C82.8685 23.2635 82.8182 23.1897 82.8115 23.1126C82.8014 23.0254 82.9121 22.9315 82.902 22.8611C82.892 22.7672 82.7645 22.7035 82.7578 22.6364C82.7377 22.4821 82.8886 22.4989 82.8719 22.3815" stroke="black" stroke-width="2.24944" stroke-linecap="round" stroke-linejoin="round"/>
<path d="M80.5332 25.2075C80.5332 25.2075 81.8309 23.7354 82.4647 21.5625" stroke="black" stroke-width="2.24944" stroke-linecap="round" stroke-linejoin="round"/>
<path d="M85.0628 24.104C85.0628 24.104 83.2889 22.7627 82.8262 21.3945" stroke="black" stroke-width="2.24944" stroke-linecap="round" stroke-linejoin="round"/>
</svg>
