<svg width="172" height="146" viewBox="0 0 172 146" fill="none" xmlns="http://www.w3.org/2000/svg">
<path d="M119.639 145.995C119.242 145.995 118.85 145.995 118.454 145.982C106.168 145.704 94.3063 141.06 85.0643 132.896C82.823 130.916 79.9914 129.894 77.1367 129.894C75.0891 129.894 73.0276 130.421 71.1644 131.494C64.0115 135.616 55.8487 137.794 47.5613 137.794C21.3341 137.794 0 116.397 0 90.0913C0 78.1852 4.41808 66.7787 12.4426 57.9624C15.4817 54.6228 16.3995 49.8585 14.813 45.6262C13.3972 41.8425 12.6778 37.8645 12.6778 33.7941C12.6778 15.1625 27.7906 0 46.3715 0C53.9163 0 61.0554 2.46078 67.0138 7.10943C69.1675 8.79312 71.7686 9.6442 74.3789 9.6442C76.5187 9.6442 78.6678 9.07064 80.5817 7.90963C87.3841 3.78367 95.1918 1.60506 103.166 1.60506C126.367 1.60506 145.58 19.7926 146.899 43.0081C147.097 46.4911 148.79 49.7105 151.543 51.8429C164.714 62.0375 172.356 78.0326 171.987 94.6336C171.678 108.455 166.08 121.388 156.22 131.046C146.378 140.69 133.382 146 119.634 146L119.639 145.995Z" fill="#37967B"/>
</svg>
