<svg width="56" height="66" viewBox="0 0 56 66" fill="none" xmlns="http://www.w3.org/2000/svg">
<path d="M25.9561 7.15404C26.0198 7.10709 26.1371 7.13057 26.2042 7.08362C26.2713 7.03668 26.288 6.92267 26.3518 6.87572C26.4155 6.82877 26.4624 6.755 26.5295 6.70805C26.5965 6.66111 26.7139 6.69128 26.781 6.64769C26.848 6.60409 26.9319 6.58398 26.9989 6.54039C27.066 6.4968 27.1096 6.41632 27.1767 6.37272C27.2437 6.32913 27.2974 6.26541 27.3645 6.22182C27.4315 6.17823 27.5254 6.17487 27.5925 6.13463C27.6595 6.09439 27.6629 5.9435 27.73 5.8999C27.797 5.85631 27.9245 5.90996 27.9949 5.86637C28.0653 5.82278 28.0921 5.71547 28.1625 5.67523C28.233 5.63499 28.3269 5.63499 28.3973 5.59475C28.4677 5.55451 28.5348 5.51092 28.6052 5.47068C28.6756 5.43044 28.7561 5.41031 28.8265 5.37008C28.8969 5.32984 28.9774 5.31307 29.0478 5.27618C29.1182 5.2393 29.135 5.09846 29.2054 5.06158C29.2758 5.02469 29.4066 5.09511 29.477 5.06158C29.5475 5.02804 29.6179 4.9878 29.6917 4.95091C29.7654 4.91402 29.8426 4.89391 29.913 4.85702C29.9834 4.82013 30.027 4.72624 30.1008 4.68935C30.1745 4.65247 30.2584 4.64577 30.3321 4.61223C30.4059 4.5787 30.4931 4.57534 30.5635 4.54181C30.6339 4.50827 30.6943 4.44121 30.7681 4.40768C30.8418 4.37414 30.8888 4.2836 30.9626 4.25007C31.0363 4.21654 31.1168 4.19642 31.1906 4.16624C31.2644 4.13606 31.3582 4.14612 31.432 4.11594C31.5058 4.08576 31.5829 4.06564 31.66 4.03546C31.7372 4.00528 31.8076 3.96839 31.8814 3.93821C31.9551 3.90803 32.0021 3.80409 32.0759 3.77391C32.1496 3.74373 32.2536 3.78731 32.3274 3.75713C32.4011 3.72695 32.4917 3.74036 32.5688 3.71354C32.6459 3.68671 32.6962 3.59282 32.77 3.56599C32.8438 3.53916 32.9209 3.50564 32.9947 3.47881C33.0684 3.45199 33.159 3.46875 33.2361 3.44192C33.3132 3.41509 33.387 3.38156 33.4608 3.35809C33.5345 3.33461 33.5848 3.21055 33.6586 3.18708C33.7324 3.1636 33.8565 3.27761 33.9302 3.25414C34.004 3.23066 34.0878 3.21725 34.165 3.19378C34.2421 3.17031 34.2991 3.07977 34.3762 3.05965C34.4534 3.03953 34.5137 2.95234 34.5908 2.93222C34.668 2.9121 34.7652 2.9624 34.8423 2.94228C34.9195 2.92216 35.01 2.94898 35.0871 2.92886C35.1643 2.90874 35.2447 2.89869 35.3219 2.87857C35.399 2.85845 35.4627 2.78132 35.5432 2.7612C35.6237 2.74108 35.7075 2.7612 35.788 2.74444C35.8685 2.72767 35.9389 2.68407 36.0194 2.66731C36.0998 2.65054 36.1568 2.53653 36.234 2.52312C36.3111 2.5097 36.415 2.61366 36.4955 2.59689C36.576 2.58012 36.6565 2.58348 36.7336 2.56671C36.8107 2.54994 36.8778 2.45941 36.9549 2.44264C37.0321 2.42587 37.1092 2.38228 37.1863 2.36887C37.2634 2.35545 37.3439 2.32862 37.4244 2.31856C37.5049 2.3085 37.5887 2.32862 37.6692 2.31856C37.7497 2.3085 37.8201 2.24479 37.9006 2.23473C37.981 2.22467 38.0749 2.32192 38.1554 2.31186C38.2359 2.3018 38.3063 2.21461 38.3868 2.20455C38.4673 2.19449 38.5612 2.31521 38.6416 2.30515C38.7221 2.29509 38.7925 2.20455 38.873 2.19784C38.9535 2.19114 39.0273 2.10396 39.1078 2.09725C39.1882 2.09054 39.2721 2.13413 39.3525 2.12743C39.433 2.12072 39.5135 2.10396 39.594 2.09725C39.6745 2.09054 39.7583 2.1509 39.8388 2.14755C39.9193 2.14419 39.993 2.04359 40.0735 2.03688C40.154 2.03017 40.2412 2.14084 40.3217 2.13749C40.4021 2.13413 40.4793 2.08383 40.5597 2.08048C40.6402 2.07712 40.7207 2.13748 40.8012 2.13413C40.8817 2.13078 40.9621 2.11066 41.0426 2.10731C41.1231 2.10396 41.2036 2 41.2841 2C41.3645 2 41.445 2.08048 41.5255 2.08048C41.606 2.08048 41.6865 2.08719 41.7669 2.08719C41.8474 2.08719 41.9279 2.05365 42.0084 2.057C42.0888 2.06035 42.1693 2.04694 42.2498 2.0503C42.3303 2.05365 42.4074 2.12072 42.4879 2.12407C42.5684 2.12742 42.6522 2.03353 42.7327 2.04024C42.8132 2.04694 42.8903 2.13413 42.9708 2.14083C43.0512 2.14754 43.1384 2.06706 43.2156 2.07042C43.2927 2.07377 43.3765 2.07042 43.457 2.07713C43.5375 2.08384 43.618 2.07713 43.6984 2.08719C43.7789 2.09725 43.8493 2.21796 43.9298 2.22467C44.0103 2.23137 44.0941 2.19784 44.1746 2.20455C44.2551 2.21125 44.3423 2.1509 44.4228 2.16096C44.5032 2.17102 44.577 2.23138 44.6575 2.24144C44.738 2.2515 44.805 2.3588 44.8822 2.37221C44.9593 2.38563 45.0498 2.33197 45.1303 2.34203C45.2108 2.35209 45.298 2.31522 45.3751 2.32863C45.4556 2.34204 45.5361 2.3521 45.6165 2.36551C45.697 2.37892 45.7574 2.49629 45.8345 2.5097C45.9116 2.52311 46.0189 2.40575 46.0994 2.42252C46.1799 2.43929 46.257 2.46946 46.3341 2.48622C46.4113 2.50299 46.4683 2.63042 46.5454 2.64719C46.6225 2.66395 46.7231 2.60025 46.8003 2.62036C46.8774 2.64048 46.931 2.75449 47.0115 2.77461C47.092 2.79473 47.1859 2.75449 47.263 2.77461C47.3401 2.79473 47.3904 2.90875 47.4676 2.93222C47.5447 2.95569 47.6386 2.92887 47.7157 2.95234C47.7928 2.97581 47.8968 2.91545 47.9739 2.94228C48.051 2.96911 48.1248 2.99929 48.2019 3.02611C48.2791 3.05294 48.3428 3.1133 48.4199 3.14012C48.497 3.16695 48.5641 3.2139 48.6412 3.24408C48.7183 3.27426 48.8089 3.26419 48.8827 3.29437C48.9564 3.32455 49.0201 3.38827 49.0939 3.4218C49.1677 3.45533 49.2482 3.47546 49.3219 3.50899C49.3957 3.54252 49.4594 3.59617 49.5332 3.62971C49.607 3.66324 49.6807 3.69677 49.7545 3.73366C49.8283 3.77054 49.8618 3.87785 49.9356 3.91474C50.0094 3.95163 50.1234 3.90803 50.1938 3.94492C50.2642 3.9818 50.3481 4.00193 50.4185 4.04217C50.4889 4.08241 50.5258 4.18301 50.5928 4.22325C50.6599 4.26349 50.7437 4.28695 50.8142 4.33055C50.8846 4.37414 50.9382 4.4345 51.0087 4.47809C51.0791 4.52169 51.1931 4.49486 51.2602 4.54181C51.3272 4.58875 51.3105 4.74972 51.3775 4.79666C51.4446 4.84361 51.5418 4.84361 51.6055 4.89391C51.6693 4.94421 51.7564 4.96098 51.8202 5.01128C51.8839 5.06158 51.9677 5.0884 52.0314 5.1387C52.0951 5.189 52.1018 5.30636 52.1622 5.36002C52.2226 5.41367 52.2695 5.48074 52.3299 5.53439C52.3902 5.58805 52.5277 5.56122 52.5847 5.61823C52.6417 5.67523 52.6887 5.74565 52.7457 5.80266C52.8027 5.85966 52.8765 5.90326 52.9301 5.96362C52.9838 6.02398 52.9536 6.1581 53.0072 6.21846C53.0609 6.27882 53.0911 6.35595 53.1447 6.41966C53.1984 6.48338 53.299 6.5035 53.3459 6.56721C53.3929 6.63092 53.4666 6.67787 53.5136 6.74494C53.5605 6.812 53.5136 6.93943 53.5605 7.00649C53.6075 7.07356 53.6812 7.11716 53.7248 7.18758C53.7684 7.25799 53.7651 7.34853 53.8053 7.41895C53.8456 7.48937 54.0233 7.48602 54.0602 7.55644C54.0971 7.62686 54.03 7.75093 54.0602 7.8247C54.0904 7.89848 54.1004 7.98231 54.1306 8.05608C54.1608 8.12985 54.2245 8.19022 54.2513 8.26734C54.2781 8.34447 54.3284 8.41154 54.3519 8.48866C54.3754 8.56579 54.429 8.63285 54.4525 8.71333C54.476 8.79381 54.4827 8.87429 54.4995 8.95142C54.5162 9.02855 54.5732 9.10231 54.5866 9.18279C54.6001 9.26327 54.5062 9.36052 54.5196 9.441C54.533 9.52148 54.5967 9.5919 54.6068 9.67238C54.6168 9.75286 54.6571 9.82998 54.6638 9.91046C54.6705 9.99094 54.5699 10.0748 54.5699 10.1553C54.5699 10.2357 54.5699 10.3129 54.5665 10.3933C54.5632 10.4738 54.6504 10.5543 54.647 10.6348C54.6437 10.7153 54.5866 10.789 54.5799 10.8695C54.5732 10.95 54.5799 11.0305 54.5699 11.1076C54.5598 11.1847 54.5934 11.2719 54.5799 11.3524C54.5665 11.4329 54.4659 11.4932 54.4492 11.5704C54.4324 11.6475 54.5095 11.7481 54.4894 11.8252C54.4693 11.9023 54.3854 11.9627 54.362 12.0365C54.3385 12.1102 54.3989 12.2175 54.372 12.2913C54.3452 12.3651 54.2379 12.412 54.2077 12.4858C54.1775 12.5596 54.1306 12.6266 54.0971 12.6971C54.0635 12.7675 54.0132 12.8312 53.9797 12.905C53.9462 12.9787 53.9093 13.0458 53.8724 13.1162C53.8355 13.1866 53.8221 13.2671 53.7852 13.3375C53.7483 13.408 53.7785 13.5186 53.7383 13.5857C53.698 13.6528 53.6142 13.6963 53.5706 13.7634C53.527 13.8305 53.4499 13.8741 53.4063 13.9411C53.3627 14.0082 53.3392 14.0887 53.2956 14.1524C53.252 14.2161 53.2151 14.2899 53.1682 14.357C53.1212 14.424 53.0441 14.4609 52.9938 14.5246C52.9435 14.5883 52.9435 14.6856 52.8899 14.7493C52.8362 14.813 52.7658 14.8533 52.7155 14.9136C52.6652 14.974 52.6283 15.0477 52.5747 15.1081C52.521 15.1685 52.5042 15.2624 52.4506 15.3194C52.3969 15.3764 52.3165 15.4132 52.2594 15.4703C52.2024 15.5273 52.065 15.5004 52.0079 15.5541C51.9509 15.6077 51.904 15.6715 51.8436 15.7285C51.7833 15.7855 51.7732 15.8861 51.7129 15.9397C51.6525 15.9934 51.6022 16.0537 51.5418 16.1074C51.4815 16.161 51.3608 16.1409 51.3004 16.1946C51.24 16.2482 51.2769 16.4159 51.2166 16.4662C51.1562 16.5165 51.0958 16.5701 51.0321 16.6204C50.9684 16.6707 50.8946 16.7043 50.8309 16.7546C50.7672 16.8049 50.623 16.7445 50.5593 16.7915C50.4956 16.8384 50.4889 16.9625 50.4252 17.0094C50.3615 17.0564 50.3246 17.1436 50.2609 17.1872C50.1972 17.2307 50.1167 17.2643 50.053 17.3079C49.9893 17.3515 49.9322 17.4185 49.8685 17.4621C49.8048 17.5057 49.6573 17.4353 49.5902 17.4789C49.5231 17.5225 49.4628 17.5761 49.3957 17.6197C49.3286 17.6633 49.3018 17.7673 49.2348 17.8075C49.1677 17.8478 49.1308 17.9416 49.0637 17.9852C48.9967 18.0288 48.9363 18.0825 48.8659 18.1227C48.7955 18.163 48.6949 18.1496 48.6278 18.1898C48.5607 18.23 48.4736 18.2401 48.4031 18.2803C48.3327 18.3206 48.3059 18.4312 48.2388 18.4715C48.1718 18.5117 48.0645 18.4882 47.994 18.5285C47.9236 18.5687 47.8934 18.676 47.8264 18.7163C47.7593 18.7565 47.6688 18.7632 47.6017 18.8034C47.5346 18.8437 47.4206 18.8035 47.3535 18.8437C47.2831 18.8806 47.2094 18.9108 47.1389 18.951C47.0685 18.9912 46.9947 19.0248 46.9243 19.0617C46.8539 19.0985 46.8137 19.1991 46.7432 19.236C46.6728 19.2729 46.6393 19.3836 46.5689 19.4205C46.4985 19.4573 46.428 19.4976 46.3576 19.5345C46.2872 19.5714 46.2 19.5814 46.1296 19.6183C46.0592 19.6552 45.9586 19.6384 45.8882 19.6753C45.8177 19.7122 45.7507 19.7625 45.6802 19.7994C45.6098 19.8363 45.5327 19.8631 45.4623 19.9C45.3919 19.9369 45.3114 19.9603 45.241 19.9972C45.1705 20.0341 45.1001 20.0744 45.0297 20.1112C44.9593 20.1481 44.9325 20.2755 44.862 20.3124C44.7916 20.3493 44.7145 20.3762 44.6407 20.413C44.5669 20.4499 44.4395 20.3728 44.3691 20.4097C44.2987 20.4466 44.2584 20.5505 44.188 20.5841C44.1176 20.6176 44.0002 20.5706 43.9298 20.6042C43.8594 20.6377 43.8125 20.7282 43.7387 20.7618C43.6649 20.7953 43.571 20.7853 43.5006 20.8221C43.4302 20.859 43.3564 20.8926 43.286 20.9294C43.2156 20.9663 43.2055 21.1273 43.1317 21.1642C43.058 21.2011 42.9272 21.1072 42.8534 21.1441C42.7796 21.1809 42.7327 21.2648 42.6623 21.2983C42.5918 21.3318 42.5181 21.3654 42.4443 21.4023C42.3705 21.4391 42.3102 21.4962 42.2397 21.5297C42.1693 21.5632 42.0687 21.5465 41.9983 21.58C41.9279 21.6135 41.8441 21.6269 41.7703 21.6605C41.6965 21.694 41.6865 21.8583 41.6127 21.8919C41.5389 21.9254 41.4517 21.9287 41.3779 21.9623C41.3042 21.9958 41.1835 21.9287 41.113 21.9623C41.0426 21.9958 40.9722 22.0394 40.8984 22.0763C40.8246 22.1132 40.8146 22.2775 40.7408 22.311C40.667 22.3446 40.5463 22.2741 40.4726 22.311C40.3988 22.3479 40.3686 22.4686 40.2948 22.5021C40.2211 22.5357 40.1573 22.586 40.0836 22.6195C40.0098 22.653 39.9125 22.6296 39.8388 22.6631C39.765 22.6966 39.661 22.6598 39.5873 22.6933C39.5135 22.7268 39.4867 22.861 39.4163 22.8945C39.3458 22.928 39.2452 22.9079 39.1748 22.9414C39.1044 22.975 39.0206 22.9884 38.9468 23.0219C38.873 23.0555 38.7959 23.0756 38.7221 23.1091C38.6484 23.1426 38.6282 23.2935 38.5578 23.3271C38.4874 23.3606 38.3901 23.3438 38.3164 23.374C38.2426 23.4042 38.1688 23.4377 38.0951 23.4713C38.0213 23.5048 37.9475 23.535 37.8737 23.5685C37.8 23.602 37.6893 23.5484 37.6155 23.5819C37.5418 23.6154 37.5149 23.7462 37.4412 23.7798C37.3674 23.8133 37.2701 23.7898 37.1964 23.8234C37.1226 23.8569 37.0455 23.877 36.9717 23.9105C36.8979 23.9441 36.8107 23.9441 36.737 23.9743C36.6632 24.0044 36.6129 24.0883 36.5391 24.1184C36.4653 24.1486 36.3681 24.1319 36.2943 24.162C36.2206 24.1922 36.1904 24.3264 36.1166 24.3599C36.0428 24.3934 35.9523 24.3834 35.8785 24.4135C35.8047 24.4437 35.7041 24.4169 35.6304 24.4504C35.5566 24.484 35.5465 24.6617 35.4728 24.6919C35.399 24.722 35.3219 24.7455 35.2481 24.7791C35.1743 24.8126 35.0871 24.8159 35.0134 24.8461C34.9396 24.8763 34.8457 24.8629 34.7719 24.8964C34.6981 24.93 34.6512 25.0171 34.5774 25.0507C34.5037 25.0842 34.4198 25.0943 34.3461 25.1244C34.2723 25.1546 34.1884 25.1613 34.1147 25.1949C34.0409 25.2284 33.9839 25.2988 33.9101 25.3323C33.8363 25.3659 33.7223 25.3055 33.6486 25.3357C33.5748 25.3659 33.5044 25.4028 33.4306 25.4363C33.3568 25.4698 33.3334 25.614 33.2596 25.6476C33.1858 25.6811 33.0684 25.6073 32.9947 25.6409C32.9209 25.6744 32.8773 25.7716 32.8035 25.8018C32.7298 25.832 32.6325 25.8152 32.5621 25.8488C32.4917 25.8823 32.4246 25.9326 32.3508 25.9661C32.2771 25.9997 32.2201 26.0667 32.1463 26.1003C32.0725 26.1338 31.9786 26.117 31.9048 26.1472C31.8311 26.1774 31.7908 26.2847 31.7171 26.3182C31.6433 26.3518 31.5561 26.3484 31.4823 26.3786C31.4085 26.4088 31.3314 26.4356 31.2576 26.4691C31.1839 26.5027 31.0833 26.4691 31.0095 26.5027C30.9357 26.5362 30.8687 26.5798 30.7949 26.6133C30.7211 26.6468 30.6775 26.7441 30.6038 26.7776C30.53 26.8112 30.4696 26.8682 30.3958 26.9017C30.3221 26.9352 30.2047 26.8615 30.1309 26.895C30.0572 26.9285 29.97 26.9252 29.8962 26.9587C29.8224 26.9922 29.7855 27.1062 29.7118 27.1364C29.638 27.1666 29.534 27.1297 29.4603 27.1599C29.3865 27.1901 29.3597 27.3276 29.2859 27.3611C29.2121 27.3946 29.1317 27.408 29.0579 27.4416C28.9841 27.4751 28.9003 27.4785 28.8265 27.512C28.7527 27.5455 28.7091 27.6394 28.6354 27.673C28.5616 27.7065 28.4811 27.7166 28.4073 27.7501C28.3336 27.7836 28.2665 27.8272 28.1927 27.8607C28.1189 27.8943 28.0217 27.8742 27.9513 27.9077C27.8809 27.9412 27.7769 27.911 27.7031 27.9446C27.6294 27.9781 27.5858 28.0754 27.512 28.1055C27.4382 28.1357 27.3611 28.1625 27.2873 28.1961C27.2136 28.2296 27.1431 28.2665 27.0694 28.3C26.9956 28.3336 26.9352 28.3939 26.8615 28.4275C26.7877 28.461 26.6938 28.4409 26.62 28.4744C26.5462 28.5079 26.4993 28.5951 26.4255 28.6287C26.3518 28.6622 26.278 28.689 26.2042 28.7225C26.1304 28.7561 26.0734 28.8231 25.9997 28.8567C25.9259 28.8902 25.8588 28.9338 25.785 28.9673C25.7113 29.0009 25.6341 29.0243 25.5637 29.0579C25.4933 29.0914 25.3726 29.0243 25.2988 29.0579C25.225 29.0914 25.1714 29.1652 25.0976 29.1987C25.0238 29.2322 24.9568 29.2792 24.883 29.3127C24.8092 29.3463 24.7321 29.3664 24.6583 29.3999C24.5846 29.4334 24.5108 29.4636 24.437 29.4972C24.3632 29.5307 24.3196 29.6279 24.2492 29.6615C24.1788 29.695 24.0547 29.6246 23.9843 29.6615C23.9139 29.6984 23.8234 29.6984 23.7529 29.7319C23.6825 29.7654 23.6658 29.923 23.592 29.9599C23.5182 29.9968 23.4578 30.0471 23.3841 30.084C23.3103 30.1209 23.1829 30.0337 23.1125 30.0706C23.042 30.1075 22.9951 30.198 22.9247 30.2349C22.8542 30.2718 22.7872 30.3187 22.7134 30.3523C22.6396 30.3858 22.5759 30.4361 22.5022 30.4696C22.4284 30.5032 22.3412 30.5032 22.2674 30.5367C22.1936 30.5702 22.1467 30.6541 22.0729 30.6876C21.9992 30.7211 21.8784 30.6574 21.808 30.6909C21.7376 30.7245 21.7141 30.8653 21.6404 30.8988C21.5666 30.9324 21.4392 30.8485 21.3654 30.8854C21.2916 30.9223 21.2514 31.0162 21.1776 31.0497C21.1038 31.0833 21.0468 31.147 20.9764 31.1839C20.906 31.2208 20.7853 31.1638 20.7148 31.1973C20.6444 31.2308 20.6411 31.4085 20.5673 31.4421C20.4935 31.4756 20.3929 31.4521 20.3225 31.489C20.2521 31.5259 20.1649 31.5293 20.0911 31.5662C20.0173 31.603 19.9738 31.6936 19.9033 31.7271C19.8329 31.7606 19.7491 31.7774 19.6787 31.8143C19.6082 31.8512 19.5714 31.9551 19.5009 31.992C19.4305 32.0289 19.3366 32.0222 19.2629 32.0591C19.1891 32.096 19.0985 32.0893 19.0281 32.1262C18.9577 32.163 18.8672 32.163 18.7934 32.1999C18.7196 32.2368 18.7129 32.3911 18.6425 32.428C18.5721 32.4648 18.4279 32.3676 18.3575 32.4045C18.287 32.4414 18.2803 32.6057 18.2099 32.6426C18.1395 32.6795 18.0624 32.7096 17.9919 32.7465C17.9215 32.7834 17.8243 32.77 17.7539 32.8102C17.6834 32.8505 17.6331 32.9276 17.5627 32.9645C17.4923 33.0014 17.4286 33.055 17.3582 33.0919C17.2878 33.1288 17.1804 33.102 17.11 33.1389C17.0396 33.1757 16.9994 33.273 16.9289 33.3099C16.8585 33.3468 16.7378 33.2931 16.6674 33.3334C16.597 33.3736 16.5467 33.444 16.4762 33.4842C16.4058 33.5245 16.3321 33.5547 16.2616 33.5949C16.1912 33.6352 16.1711 33.7626 16.1007 33.7995C16.0303 33.8363 15.9464 33.8531 15.8794 33.8934C15.8123 33.9336 15.7486 33.9873 15.6782 34.0275C15.6077 34.0677 15.4971 34.0375 15.43 34.0744C15.3629 34.1113 15.2925 34.1583 15.2221 34.1985C15.1517 34.2387 15.0813 34.279 15.0142 34.3192C14.9471 34.3595 14.8499 34.3561 14.7795 34.3963C14.7091 34.4366 14.6655 34.5171 14.595 34.5607C14.5246 34.6043 14.4609 34.6479 14.3905 34.6881C14.3201 34.7283 14.2698 34.8021 14.2027 34.8423C14.1356 34.8826 14.0887 34.9664 14.0216 35.0067C13.9546 35.0469 13.8573 35.0435 13.7902 35.0871C13.7232 35.1307 13.6326 35.1374 13.5656 35.181C13.4985 35.2246 13.4113 35.238 13.3443 35.2783C13.2772 35.3185 13.2638 35.456 13.1967 35.4996C13.1296 35.5432 13.0592 35.5834 12.9922 35.627C12.9251 35.6706 12.8413 35.6874 12.7742 35.731C12.7071 35.7746 12.6635 35.855 12.5965 35.8986C12.5294 35.9422 12.3819 35.8584 12.3148 35.8986C12.2477 35.9389 12.2209 36.0495 12.1538 36.0931C12.0868 36.1367 12.0163 36.177 11.9493 36.2239C11.8822 36.2709 11.8185 36.3212 11.7514 36.3648C11.6844 36.4083 11.567 36.3782 11.4999 36.4218C11.4329 36.4653 11.3692 36.5156 11.3021 36.5626C11.235 36.6095 11.2216 36.7336 11.1545 36.7772C11.0875 36.8208 10.9701 36.794 10.9064 36.8409C10.8427 36.8879 10.8092 36.9818 10.7421 37.0287C10.675 37.0756 10.5644 37.0555 10.4973 37.1025C10.4302 37.1494 10.4135 37.2634 10.3497 37.3104C10.286 37.3573 10.1921 37.3674 10.1284 37.4177C10.0647 37.468 10.0513 37.5853 9.98759 37.6356C9.92388 37.6859 9.85681 37.7295 9.7931 37.7798C9.72938 37.8301 9.62208 37.8234 9.55837 37.8704C9.49465 37.9173 9.43429 37.971 9.37058 38.0213C9.30687 38.0716 9.24986 38.1286 9.18615 38.1755C9.12244 38.2225 9.10232 38.3298 9.0386 38.3801C8.97489 38.4304 8.86088 38.417 8.79716 38.4673C8.73345 38.5176 8.71668 38.6249 8.65297 38.6752C8.58926 38.7255 8.54231 38.7925 8.4786 38.8462C8.41489 38.8999 8.28075 38.8596 8.21704 38.9133C8.15333 38.9669 8.14997 39.0843 8.08962 39.1379C8.02926 39.1916 7.91189 39.1782 7.85153 39.2318C7.79117 39.2855 7.7174 39.3224 7.65704 39.376C7.59668 39.4297 7.58326 39.5336 7.52291 39.5906C7.46255 39.6476 7.38542 39.6778 7.32506 39.7348C7.2647 39.7918 7.16745 39.8019 7.10709 39.8589C7.04674 39.9159 7.02997 40.0131 6.96961 40.0668C6.90925 40.1205 6.8556 40.1808 6.79859 40.2378C6.74158 40.2948 6.72482 40.3921 6.66781 40.4491C6.6108 40.5061 6.54038 40.5497 6.48338 40.6067C6.42637 40.6637 6.38278 40.7341 6.32577 40.7911C6.26877 40.8481 6.22853 40.9219 6.17487 40.9789C6.12122 41.0359 6.03068 41.0661 5.97703 41.1264C5.92338 41.1868 5.84625 41.2237 5.7926 41.2841C5.73894 41.3444 5.67858 41.4014 5.62828 41.4618C5.57798 41.5221 5.52433 41.5859 5.47068 41.6462C5.41703 41.7066 5.34996 41.7569 5.29966 41.8172C5.24936 41.8776 5.22589 41.9681 5.17559 42.0285C5.12529 42.0889 5.07834 42.1559 5.02804 42.2196C4.97774 42.2833 4.97774 42.3873 4.9308 42.451C4.88385 42.5147 4.72289 42.4946 4.67259 42.5583C4.62229 42.622 4.6357 42.7327 4.58876 42.7964C4.54181 42.8601 4.4278 42.8802 4.38085 42.9473C4.33391 43.0144 4.38756 43.1485 4.34061 43.2156C4.29367 43.2826 4.24337 43.343 4.19977 43.4101C4.15618 43.4771 4.08576 43.5274 4.04217 43.5945C3.99857 43.6616 3.93486 43.7186 3.89127 43.7856C3.84768 43.8527 3.77726 43.9063 3.73366 43.9734C3.69007 44.0405 3.74372 44.1679 3.70348 44.235C3.66324 44.302 3.63977 44.3825 3.60288 44.4563C3.566 44.5301 3.52911 44.5971 3.49222 44.6709C3.45534 44.7447 3.32121 44.7648 3.28432 44.8352C3.24743 44.9056 3.18037 44.966 3.14683 45.0398C3.1133 45.1135 3.17031 45.2309 3.14013 45.3047C3.10995 45.3784 3.09318 45.4589 3.063 45.5327C3.03282 45.6065 2.94563 45.6568 2.91545 45.7339C2.88527 45.811 2.92551 45.9116 2.89869 45.9854C2.87186 46.0592 2.8115 46.1229 2.78468 46.2C2.75785 46.2771 2.74108 46.3543 2.71426 46.4314C2.68743 46.5085 2.62036 46.5689 2.59689 46.646C2.57342 46.7231 2.59018 46.8103 2.56671 46.8874C2.54324 46.9646 2.4527 47.0216 2.43258 47.1021C2.41246 47.1825 2.34874 47.2462 2.32862 47.3267C2.3085 47.4072 2.37557 47.5044 2.35545 47.5816C2.33533 47.6587 2.24815 47.7224 2.23138 47.8029C2.21461 47.8834 2.32862 47.9873 2.31521 48.0645C2.3018 48.1416 2.21797 48.212 2.20455 48.2891C2.19114 48.3663 2.24144 48.4568 2.23138 48.5373C2.22132 48.6178 2.07377 48.6815 2.06371 48.7619C2.05365 48.8424 2.06371 48.9263 2.05365 49.0067C2.04695 49.0872 2.07377 49.171 2.06707 49.2515C2.06036 49.332 2.07377 49.4125 2.07042 49.493C2.06707 49.5734 2.02347 49.6539 2.02347 49.7344C2.02347 49.8149 2 49.8954 2 49.9758C2 50.0563 2 50.1368 2 50.2173C2 50.2978 2.06036 50.3782 2.06371 50.4587C2.06707 50.5392 2.16767 50.613 2.17437 50.6934C2.18108 50.7739 2.04695 50.8645 2.05365 50.9449C2.06036 51.0254 2.18443 51.0925 2.19449 51.173C2.20455 51.2535 2.19114 51.3339 2.2012 51.4144C2.21126 51.4949 2.16431 51.5821 2.17773 51.6626C2.19114 51.743 2.27497 51.8101 2.28838 51.8872C2.3018 51.9644 2.28168 52.0515 2.29844 52.132C2.31521 52.2125 2.39234 52.2762 2.41246 52.3533C2.43258 52.4305 2.30515 52.5445 2.32527 52.6216C2.34539 52.6987 2.37557 52.7759 2.39569 52.853C2.41581 52.9301 2.503 52.9905 2.52312 53.0676C2.54324 53.1447 2.54324 53.2286 2.57006 53.3057C2.59689 53.3828 2.57677 53.4734 2.6036 53.5505C2.63042 53.6276 2.75114 53.6678 2.77797 53.745C2.80479 53.8221 2.80479 53.9059 2.83497 53.9797C2.86515 54.0535 2.8618 54.144 2.89198 54.2178C2.92216 54.2916 2.98252 54.3553 3.01605 54.429C3.04959 54.5028 3.13007 54.5531 3.1636 54.6269C3.19713 54.7007 3.15019 54.8113 3.18372 54.8851C3.21725 54.9589 3.29773 55.0092 3.33462 55.0796C3.3715 55.15 3.4654 55.1902 3.50564 55.2607C3.54588 55.3311 3.4721 55.4619 3.51234 55.5323C3.55258 55.6027 3.58276 55.6798 3.623 55.7503C3.66324 55.8207 3.77726 55.8475 3.8175 55.9146C3.85774 55.9816 3.96169 56.0118 4.00528 56.0822C4.04887 56.1526 4.01199 56.2667 4.05893 56.3337C4.10588 56.4008 4.20983 56.4243 4.25678 56.4913C4.30373 56.5584 4.29031 56.6623 4.33726 56.7294C4.38421 56.7965 4.44121 56.8535 4.48816 56.9172C4.5351 56.9809 4.62564 57.0144 4.67259 57.0782C4.71954 57.1419 4.78325 57.1922 4.83355 57.2559C4.88385 57.3196 4.92409 57.3867 4.97774 57.4504C5.03139 57.5141 5.05151 57.5946 5.10517 57.6583C5.15882 57.722 5.20912 57.7824 5.25942 57.8427C5.30972 57.9031 5.39355 57.94 5.44721 58.0003C5.50086 58.0607 5.51762 58.1512 5.57128 58.2116C5.62493 58.2719 5.69535 58.3122 5.75236 58.3725C5.80936 58.4329 5.81607 58.5335 5.86972 58.5905C5.92338 58.6475 6.00386 58.681 6.06086 58.738C6.11787 58.795 6.19835 58.8286 6.25535 58.8822C6.31236 58.9359 6.38613 58.9761 6.44314 59.0331C6.50015 59.0901 6.46661 59.2444 6.52362 59.2981C6.58062 59.3517 6.68122 59.3618 6.74158 59.4154C6.80194 59.4691 6.89248 59.4858 6.95284 59.5361C7.0132 59.5864 7.08697 59.6267 7.14733 59.677C7.20769 59.7273 7.18757 59.8782 7.25129 59.9318C7.315 59.9855 7.37536 60.0358 7.43907 60.0861C7.50279 60.1364 7.64027 60.0861 7.70398 60.1397C7.7677 60.1934 7.84482 60.2169 7.90854 60.2672C7.97225 60.3175 8.02926 60.3711 8.09297 60.4214C8.15668 60.4717 8.2271 60.5052 8.29417 60.5522C8.36123 60.5991 8.42159 60.6461 8.48866 60.693C8.55573 60.74 8.5792 60.8473 8.64626 60.8909C8.71333 60.9345 8.81728 60.9211 8.8877 60.9646C8.95812 61.0082 9.01848 61.0552 9.0889 61.0988C9.15932 61.1424 9.19621 61.2296 9.26663 61.2698C9.33705 61.31 9.40076 61.357 9.47118 61.3972C9.5416 61.4375 9.57849 61.5347 9.64555 61.575C9.71262 61.6152 9.84004 61.5582 9.91046 61.5984C9.98088 61.6387 10.0144 61.7426 10.0848 61.7795C10.1553 61.8164 10.2458 61.8197 10.3162 61.8566C10.3866 61.8935 10.4503 61.9438 10.5241 61.9807C10.5979 62.0176 10.6314 62.1249 10.7052 62.1618C10.779 62.1987 10.893 62.145 10.9634 62.1785C11.0338 62.2121 11.1311 62.1953 11.2048 62.2289C11.2786 62.2624 11.3557 62.2858 11.4262 62.3194C11.4966 62.3529 11.5368 62.4703 11.6106 62.5005C11.6844 62.5307 11.7816 62.5105 11.8554 62.5407C11.9292 62.5709 12.0096 62.5843 12.0868 62.6111C12.1639 62.6379 12.2209 62.705 12.298 62.7319C12.3751 62.7587 12.4187 62.8727 12.4925 62.9029C12.5663 62.9331 12.6736 62.8727 12.7507 62.9029C12.8278 62.9331 12.8983 62.9699 12.9754 62.9934C13.0525 63.0169 13.1363 63.0169 13.2135 63.0403C13.2906 63.0638 13.3711 63.0672 13.4482 63.0907C13.5253 63.1141 13.6092 63.1041 13.6863 63.1275C13.7634 63.151 13.8171 63.2617 13.8942 63.2818C13.9713 63.3019 14.0417 63.3556 14.1222 63.3757C14.2027 63.3958 14.2932 63.3589 14.3704 63.3757C14.4475 63.3924 14.528 63.4126 14.6051 63.4327C14.6822 63.4528 14.7459 63.5501 14.8231 63.5668C14.9002 63.5836 14.984 63.5869 15.0645 63.6037C15.145 63.6205 15.2456 63.5165 15.3261 63.5299C15.4065 63.5434 15.4837 63.5601 15.5641 63.5769C15.6446 63.5936 15.715 63.6574 15.7922 63.6708C15.8693 63.6842 15.9598 63.644 16.0403 63.6574C16.1208 63.6708 16.2013 63.6708 16.2818 63.6808C16.3622 63.6909 16.4192 63.8619 16.4997 63.8753C16.5802 63.8887 16.6741 63.8049 16.7546 63.815C16.8351 63.825 16.9088 63.882 16.9893 63.8887C17.0698 63.8954 17.1536 63.8887 17.2307 63.8988C17.3079 63.9089 17.385 63.9759 17.4655 63.9826C17.546 63.9893 17.6398 63.8686 17.7203 63.8787C17.8008 63.8887 17.8746 63.9457 17.9551 63.9524C18.0355 63.9591 18.116 63.9457 18.1965 63.9524C18.277 63.9591 18.3575 63.9524 18.4379 63.9592C18.5184 63.9659 18.6022 63.9323 18.6827 63.9357C18.7632 63.939 18.8437 63.9491 18.9242 63.9558C19.0046 63.9625 19.0818 64.0128 19.1623 64.0162C19.2427 64.0195 19.3199 64.0967 19.4003 64.0967C19.4808 64.0967 19.5613 64.1134 19.6418 64.1168C19.7223 64.1201 19.8061 63.9692 19.8866 63.9692C19.967 63.9692 20.0475 64.1268 20.128 64.1268C20.2085 64.1268 20.289 63.9726 20.3694 63.9726C20.4499 63.9726 20.5304 64.0027 20.6109 63.9994C20.6914 63.996 20.7718 63.9692 20.8523 63.9692C20.9328 63.9692 21.0166 64.1101 21.0971 64.1067C21.1776 64.1033 21.2547 64.0027 21.3352 63.9994C21.4157 63.996 21.4962 64.0095 21.5766 64.0061C21.6571 64.0028 21.7376 63.9592 21.8181 63.9558C21.8986 63.9524 21.979 63.9457 22.0595 63.9424C22.14 63.939 22.2205 63.9558 22.301 63.9524C22.3814 63.9491 22.4619 63.939 22.5424 63.9357C22.6229 63.9323 22.7101 64.0296 22.7905 64.0262C22.871 64.0229 22.9515 64.0095 23.032 64.0027C23.1125 63.996 23.1862 63.8887 23.2667 63.882C23.3472 63.8753 23.431 63.8921 23.5115 63.8854C23.592 63.8787 23.6725 63.8854 23.7529 63.8787C23.8334 63.872 23.9139 63.8686 23.9944 63.8619C24.0749 63.8552 24.162 63.9122 24.2425 63.9022C24.323 63.8921 24.4001 63.8418 24.4773 63.8317C24.5544 63.8217 24.6416 63.8384 24.722 63.8317C24.8025 63.825 24.8729 63.7412 24.9534 63.7311C25.0339 63.7211 25.1278 63.8183 25.2083 63.8083C25.2888 63.7982 25.3558 63.6942 25.4363 63.6842C25.5168 63.6741 25.6073 63.7445 25.6878 63.7345C25.7683 63.7244 25.842 63.6741 25.9225 63.6641C26.003 63.654 26.0801 63.6238 26.1606 63.6104C26.2411 63.597 26.3216 63.6037 26.4021 63.5903C26.4825 63.5769 26.5563 63.5266 26.6368 63.5165C26.7173 63.5065 26.8011 63.5299 26.8816 63.5165C26.9621 63.5031 27.0392 63.4729 27.1197 63.4629C27.2001 63.4528 27.2706 63.3857 27.351 63.3723C27.4315 63.3589 27.512 63.3656 27.5925 63.3522C27.673 63.3388 27.7501 63.3254 27.8306 63.312C27.911 63.2986 27.9949 63.3086 28.072 63.2952C28.1491 63.2818 28.2397 63.3187 28.3201 63.3053C28.4006 63.2918 28.4744 63.255 28.5549 63.2415C28.6354 63.2281 28.7058 63.1644 28.7863 63.151C28.8667 63.1376 28.9606 63.2114 29.0411 63.1979C29.1216 63.1845 29.1987 63.1544 29.2758 63.1376C29.353 63.1208 29.4234 63.0404 29.5005 63.0236C29.5776 63.0068 29.6749 63.0739 29.7554 63.0571C29.8358 63.0403 29.8962 62.9398 29.9767 62.923C30.0572 62.9062 30.141 62.923 30.2215 62.9062C30.302 62.8894 30.3724 62.8358 30.4529 62.8224C30.5333 62.809 30.6138 62.809 30.6943 62.7922C30.7748 62.7754 30.8553 62.7654 30.9324 62.7486C31.0095 62.7318 31.1068 62.8023 31.1872 62.7855C31.2677 62.7687 31.3482 62.7587 31.4253 62.7419C31.5024 62.7251 31.5594 62.5876 31.6366 62.5709C31.7137 62.5541 31.821 62.6614 31.9015 62.6447C31.982 62.6279 32.039 62.5172 32.1195 62.5005C32.1999 62.4837 32.2804 62.487 32.3609 62.4703C32.4414 62.4535 32.5286 62.4904 32.609 62.4703C32.6895 62.4502 32.7633 62.4233 32.8438 62.4066C32.9242 62.3898 33.0047 62.3898 33.0852 62.373C33.1657 62.3563 33.2361 62.306 33.3132 62.2892C33.3904 62.2724 33.4507 62.1584 33.5278 62.1417C33.605 62.1249 33.7056 62.2087 33.786 62.192" stroke="black" stroke-width="2.24944" stroke-linecap="round" stroke-linejoin="round"/>
<path d="M29.4798 8.21525C29.4798 8.21525 27.5449 7.89333 25.3652 8.50699" stroke="black" stroke-width="2.24944" stroke-linecap="round" stroke-linejoin="round"/>
<path d="M26.1445 4.95898C26.1445 4.95898 25.9434 7.17552 25.0312 8.29218" stroke="black" stroke-width="2.24944" stroke-linecap="round" stroke-linejoin="round"/>
</svg>
